SplineFontDB: 3.0
FontName: Simplifica-pl
FullName: Simplifica polskie znaki
FamilyName: Simplifica
Weight: Book
Copyright: KAIWA (Kamil Iwaszczyszyn)
Version: 1.000
ItalicAngle: 0
UnderlinePosition: -100
UnderlineWidth: 50
Ascent: 750
Descent: 250
InvalidEm: 0
sfntRevision: 0x00010000
LayerCount: 2
Layer: 0 1 "Warstwa t+AUIA-a" 1
Layer: 1 1 "Plan pierwszy" 0
XUID: [1021 754 759962686 19285]
StyleMap: 0x0040
FSType: 4
OS2Version: 3
OS2_WeightWidthSlopeOnly: 0
OS2_UseTypoMetrics: 0
CreationTime: 1391075280
ModificationTime: 1519053210
PfmFamily: 17
TTFWeight: 400
TTFWidth: 5
LineGap: 0
VLineGap: 0
Panose: 2 0 0 0 0 0 0 0 0 0
OS2TypoAscent: 750
OS2TypoAOffset: 0
OS2TypoDescent: -250
OS2TypoDOffset: 0
OS2TypoLinegap: 0
OS2WinAscent: 848
OS2WinAOffset: 0
OS2WinDescent: 233
OS2WinDOffset: 0
HheadAscent: 750
HheadAOffset: 0
HheadDescent: -250
HheadDOffset: 0
OS2SubXSize: 700
OS2SubYSize: 650
OS2SubXOff: 0
OS2SubYOff: 140
OS2SupXSize: 700
OS2SupYSize: 650
OS2SupXOff: 0
OS2SupYOff: 477
OS2StrikeYSize: 50
OS2StrikeYPos: 250
OS2CapHeight: 675
OS2XHeight: 492
OS2Vendor: 'pyrs'
OS2CodePages: 00000001.00000000
OS2UnicodeRanges: 00000001.00000000.00000000.00000000
Lookup: 258 0 0 "'kern' Kerning poziomy w tablicy 0" { "Podtablica 'kern' Kerning poziomy w tablicy 0"  } ['kern' ('DFLT' <'dflt' > ) ]
MarkAttachClasses: 1
DEI: 91125
TtTable: prep
PUSHW_1
 0
CALL
SVTCA[y-axis]
PUSHW_3
 1
 1
 2
CALL
SVTCA[x-axis]
PUSHW_3
 2
 1
 2
CALL
SVTCA[x-axis]
PUSHW_8
 2
 167
 137
 107
 76
 46
 0
 8
CALL
SVTCA[y-axis]
PUSHW_8
 1
 167
 137
 107
 76
 46
 0
 8
CALL
SVTCA[y-axis]
PUSHW_3
 3
 4
 7
CALL
PUSHW_1
 0
DUP
RCVT
RDTG
ROUND[Black]
RTG
WCVTP
EndTTInstrs
TtTable: fpgm
PUSHW_1
 0
FDEF
MPPEM
PUSHW_1
 9
LT
IF
PUSHB_2
 1
 1
INSTCTRL
EIF
PUSHW_1
 511
SCANCTRL
PUSHW_1
 68
SCVTCI
PUSHW_2
 9
 3
SDS
SDB
ENDF
PUSHW_1
 1
FDEF
DUP
DUP
RCVT
ROUND[Black]
WCVTP
PUSHB_1
 1
ADD
ENDF
PUSHW_1
 2
FDEF
PUSHW_1
 1
LOOPCALL
POP
ENDF
PUSHW_1
 3
FDEF
DUP
GC[cur]
PUSHB_1
 3
CINDEX
GC[cur]
GT
IF
SWAP
EIF
DUP
ROLL
DUP

StartChar: e
Encoding: 101 101 4
Width: 338
Flags: W
LayerCount: 2
Fore
SplineSet
192 273 m 0,0,1
 183 270 183 270 162 261.5 c 128,-1,2
 141 253 141 253 116.5 244 c 128,-1,3
 92 235 92 235 69 226 c 128,-1,4
 46 217 46 217 33 213 c 1,5,-1
 33 128 l 2,6,7
 33 107 33 107 41 88.5 c 128,-1,8
 49 70 49 70 62.5 56.5 c 128,-1,9
 76 43 76 43 94.5 35 c 128,-1,10
 113 27 113 27 134 27 c 256,11,12
 155 27 155 27 173.5 35 c 128,-1,13
 192 43 192 43 205.5 56.5 c 128,-1,14
 219 70 219 70 227 88.5 c 128,-1,15
 235 107 235 107 235 128 c 1,16,-1
 268 128 l 1,17,18
 268 100 268 100 257.5 75.5 c 128,-1,19
 247 51 247 51 229 33 c 128,-1,20
 211 15 211 15 186.5 4.5 c 128,-1,21
 162 -6 162 -6 134 -6 c 256,22,23
 106 -6 106 -6 81.5 4.5 c 128,-1,24
 57 15 57 15 39 33 c 128,-1,25
 21 51 21 51 10.5 75.5 c 128,-1,26
 0 100 0 100 0 128 c 2,27,-1
 0 363 l 2,28,29
 0 391 0 391 10.5 415.5 c 128,-1,30
 21 440 21 440 39 458 c 128,-1,31
 57 476 57 476 81.5 486.5 c 128,-1,32
 106 497 106 497 134 497 c 256,33,34
 162 497 162 497 186.5 486.5 c 128,-1,35
 211 476 211 476 229 458 c 128,-1,36
 247 440 247 440 257.5 415.5 c 128,-1,37
 268 391 268 391 268 364 c 2,38,-1
 268 363 l 2,39,40
 268 301 268 301 192 273 c 0,0,1
134 464 m 256,41,42
 113 464 113 464 94.5 456 c 128,-1,43
 76 448 76 448 62.5 434.5 c 128,-1,44
 49 421 49 421 41 402.5 c 128,-1,45
 33 384 33 384 33 363 c 2,46,-1
 33 248 l 1,47,48
 48 254 48 254 70 262.5 c 128,-1,49
 92 271 92 271 114 279 c 128,-1,50
 136 287 136 287 154.5 294 c 128,-1,51
 173 301 173 301 181 304 c 0,52,53
 199 311 199 311 217 325 c 128,-1,54
 235 339 235 339 235 364 c 0,55,56
 235 385 235 385 227 403 c 128,-1,57
 219 421 219 421 205.5 434.5 c 128,-1,58
 192 448 192 448 173.5 456 c 128,-1,59
 155 464 155 464 134 464 c 256,41,42
EndSplineSet
Validated: 1
EndChar

StartChar: f
Encoding: 102 102 5
Width: 169
Flags: W
LayerCount: 2
Fore
SplineSet
149 459 m 1,0,-1
 41 459 l 1,1,-1
 41 27 l 1,2,-1
 41 -1 l 1,3,-1
 41 -90 l 2,4,5
 41 -118 41 -118 31.5 -142.5 c 128,-1,6
 22 -167 22 -167 5.5 -185.5 c 128,-1,7
 -11 -204 -11 -204 -33 -214.5 c 128,-1,8
 -55 -225 -55 -225 -80 -225 c 1,9,-1
 -80 -191 l 1,10,11
 -62 -191 -62 -191 -46 -183 c 128,-1,12
 -30 -175 -30 -175 -18 -161.5 c 128,-1,13
 -6 -148 -6 -148 1 -129.5 c 128,-1,14
 8 -111 8 -111 8 -90 c 2,15,-1
 8 -1 l 1,16,-1
 8 27 l 1,17,-1
 8 459 l 1,18,-1
 8 464 l 1,19,-1
 8 492 l 1,20,-1
 8 582 l 2,21,22
 8 610 8 610 17.5 634.5 c 128,-1,23
 27 659 27 659 43.5 677 c 128,-1,24
 60 695 60 695 82 705.5 c 128,-1,25
 104 716 104 716 129 716 c 1,26,-1
 129 683 l 1,27,28
 111 683 111 683 95 675 c 128,-1,29
 79 667 79 667 67 653 c 128,-1,30
 55 639 55 639 48 621 c 128,-1,31
 41 603 41 603 41 582 c 2,32,-1
 41 492 l 1,33,-1
 149 492 l 1,34,-1
 149 459 l 1,0,-1
EndSplineSet
Validated: 1
EndChar

StartChar: g
Encoding: 103 103 6
Width: 338
Flags: W
LayerCount: 2
Fore
SplineSet
268 492 m 1,0,-1
 268 363 l 1,1,-1
 268 128 l 1,2,-1
 268 -99 l 2,3,4
 268 -127 268 -127 257.5 -151.5 c 128,-1,5
 247 -176 247 -176 229 -194 c 128,-1,6
 211 -212 211 -212 186.5 -222.5 c 128,-1,7
 162 -233 162 -233 134 -233 c 256,8,9
 106 -233 106 -233 81.5 -222.5 c 128,-1,10
 57 -212 57 -212 39 -194 c 128,-1,11
 21 -176 21 -176 10.5 -151.5 c 128,-1,12
 0 -127 0 -127 0 -99 c 1,13,-1
 33 -99 l 1,14,15
 33 -120 33 -120 41 -138 c 128,-1,16
 49 -156 49 -156 62.5 -170 c 128,-1,17
 76 -184 76 -184 94.5 -192 c 128,-1,18
 113 -200 113 -200 134 -200 c 256,19,20
 155 -200 155 -200 173.5 -192 c 128,-1,21
 192 -184 192 -184 205.5 -170 c 128,-1,22
 219 -156 219 -156 227 -138 c 128,-1,23
 235 -120 235 -120 235 -99 c 2,24,-1
 235 40 l 1,25,26
 216 19 216 19 190 6.5 c 128,-1,27
 164 -6 164 -6 134 -6 c 0,28,29
 106 -6 106 -6 81.5 4.5 c 128,-1,30
 57 15 57 15 39 33 c 128,-1,31
 21 51 21 51 10.5 75.5 c 128,-1,32
 0 100 0 100 0 128 c 2,33,-1
 0 363 l 2,34,35
 0 391 0 391 10.5 415.5 c 128,-1,36
 21 440 21 440 39 458 c 128,-1,37
 57 476 57 476 81.5 486.5 c 128,-1,38
 106 497 106 497 134 497 c 0,39,40
 164 497 164 497 190 485 c 128,-1,41
 216 473 216 473 235 451 c 1,42,-1
 235 492 l 1,43,-1
 268 492 l 1,0,-1
134 27 m 256,44,45
 155 27 155 27 173.5 35 c 128,-1,46
 192 43 192 43 205.5 56.5 c 128,-1,47
 219 70 219 70 227 88.5 c 128,-1,48
 235 107 235 107 235 128 c 2,49,-1
 235 363 l 2,50,51
 235 384 235 384 227 402.5 c 128,-1,52
 219 421 219 421 205.5 434.5 c 128,-1,53
 192 448 192 448 173.5 456 c 128,-1,54
 155 464 155 464 134 464 c 256,55,56
 113 464 113 464 94.5 456 c 128,-1,57
 76 448 76 448 62.5 434.5 c 128,-1,58
 49 421 49 421 41 402.5 c 128,-1,59
 33 384 33 384 33 363 c 2,60,-1
 33 128 l 2,61,62
 33 107 33 107 41 88.5 c 128,-1,63
 49 70 49 70 62.5 56.5 c 128,-1,64
 76 43 76 43 94.5 35 c 128,-1,65
 113 27 113 27 134 27 c 256,44,45
EndSplineSet
Validated: 1
EndChar

StartChar: h
Encoding: 104 104 7
Width: 338
Flags: W
LayerCount: 2
Fore
SplineSet
134 497 m 0,0,1
 162 497 162 497 186.5 486.5 c 128,-1,2
 211 476 211 476 229 458 c 128,-1,3
 247 440 247 440 257.5 415.5 c 128,-1,4
 268 391 268 391 268 363 c 2,5,-1
 268 246 l 1,6,-1
 268 -1 l 1,7,-1
 235 -1 l 1,8,-1
 235 246 l 1,9,-1
 235 363 l 2,10,11
 235 384 235 384 227 402.5 c 128,-1,12
 219 421 219 421 205.5 434.5 c 128,-1,13
 192 448 192 448 173.5 456 c 128,-1,14
 155 464 155 464 134 464 c 256,15,16
 113 464 113 464 94.5 456 c 128,-1,17
 76 448 76 448 62.5 434.5 c 128,-1,18
 49 421 49 421 41 402.5 c 128,-1,19
 33 384 33 384 33 363 c 2,20,-1
 33 246 l 1,21,-1
 33 -1 l 1,22,-1
 0 -1 l 1,23,-1
 0 246 l 1,24,-1
 0 363 l 1,25,-1
 0 716 l 1,26,-1
 33 716 l 1,27,-1
 33 451 l 1,28,29
 52 473 52 473 78 485 c 128,-1,30
 104 497 104 497 134 497 c 0,0,1
EndSplineSet
Validated: 1
EndChar

StartChar: i
Encoding: 105 105 8
Width: 137
Flags: W
LayerCount: 2
Fore
SplineSet
33 500 m 1,0,-1
 67 500 l 1,1,-1
 67 466 l 1,2,-1
 67 6 l 1,3,-1
 33 6 l 1,4,-1
 33 466 l 1,5,-1
 0 466 l 1,6,-1
 0 500 l 1,7,-1
 33 500 l 1,0,-1
42 614 m 4,8,9
 31 614 31 614 24 621 c 132,-1,10
 17 628 17 628 17 639 c 260,11,12
 17 650 17 650 24 657 c 132,-1,13
 31 664 31 664 42 664 c 4,14,15
 52 664 52 664 59.5 657 c 132,-1,16
 67 650 67 650 67 639 c 260,17,18
 67 628 67 628 59.5 621 c 132,-1,19
 52 614 52 614 42 614 c 4,8,9
EndSplineSet
Validated: 1
EndChar

StartChar: j
Encoding: 106 106 9
Width: 142
Flags: W
LayerCount: 2
Fore
SplineSet
47 607 m 4,0,1
 36 607 36 607 29 614 c 132,-1,2
 22 621 22 621 22 632 c 260,3,4
 22 643 22 643 29 650 c 132,-1,5
 36 657 36 657 47 657 c 4,6,7
 57 657 57 657 64.5 650 c 132,-1,8
 72 643 72 643 72 632 c 260,9,10
 72 621 72 621 64.5 614 c 132,-1,11
 57 607 57 607 47 607 c 4,0,1
38 492 m 1,12,-1
 72 492 l 1,13,-1
 72 459 l 1,14,-1
 72 27 l 1,15,-1
 72 -1 l 1,16,-1
 72 -90 l 2,17,18
 72 -118 72 -118 62.5 -142.5 c 128,-1,19
 53 -167 53 -167 36.5 -185.5 c 128,-1,20
 20 -204 20 -204 -2.5 -214.5 c 128,-1,21
 -25 -225 -25 -225 -50 -225 c 1,22,-1
 -50 -191 l 1,23,24
 -32 -191 -32 -191 -16 -183 c 128,-1,25
 0 -175 0 -175 12 -161.5 c 128,-1,26
 24 -148 24 -148 31 -129.5 c 128,-1,27
 38 -111 38 -111 38 -90 c 2,28,-1
 38 -1 l 1,29,-1
 38 27 l 1,30,-1
 38 459 l 1,31,-1
 5 459 l 1,32,-1
 5 492 l 1,33,-1
 38 492 l 1,12,-1
EndSplineSet
Validated: 1
EndChar

StartChar: k
Encoding: 107 107 10
Width: 325
Flags: W
LayerCount: 2
Fore
SplineSet
285 -1 m 1,0,-1
 246 -1 l 1,1,-1
 82 267 l 1,2,-1
 33 267 l 1,3,-1
 33 -1 l 1,4,-1
 0 -1 l 1,5,-1
 0 716 l 1,6,-1
 33 716 l 1,7,-1
 33 300 l 1,8,-1
 81 300 l 1,9,-1
 85 302 l 1,10,-1
 213 492 l 1,11,-1
 253 492 l 1,12,-1
 112 282 l 1,13,-1
 285 -1 l 1,14,-1
 285 -1 l 1,0,-1
EndSplineSet
Validated: 5
EndChar

StartChar: l
Encoding: 108 108 11
Width: 113
Flags: W
LayerCount: 2
Fore
SplineSet
33 -1 m 1,0,-1
 0 -1 l 1,1,-1
 0 716 l 1,2,-1
 33 716 l 1,3,-1
 33 -1 l 1,4,-1
 33 -1 l 1,0,-1
EndSplineSet
Validated: 5
EndChar

StartChar: m
Encoding: 109 109 12
Width: 573
Flags: W
LayerCount: 2
Fore
SplineSet
369 497 m 0,0,1
 397 497 397 497 421.5 486.5 c 128,-1,2
 446 476 446 476 464 458 c 128,-1,3
 482 440 482 440 492.5 415.5 c 128,-1,4
 503 391 503 391 503 363 c 2,5,-1
 503 246 l 1,6,-1
 503 -1 l 1,7,-1
 470 -1 l 1,8,-1
 470 246 l 1,9,-1
 470 363 l 2,10,11
 470 384 470 384 462 402.5 c 128,-1,12
 454 421 454 421 440.5 434.5 c 128,-1,13
 427 448 427 448 408.5 456 c 128,-1,14
 390 464 390 464 369 464 c 256,15,16
 348 464 348 464 330 456 c 128,-1,17
 312 448 312 448 298 434.5 c 128,-1,18
 284 421 284 421 276 402.5 c 128,-1,19
 268 384 268 384 268 363 c 2,20,-1
 268 246 l 1,21,-1
 268 -1 l 1,22,-1
 235 -1 l 1,23,-1
 235 246 l 1,24,-1
 235 363 l 2,25,26
 235 384 235 384 227 402.5 c 128,-1,27
 219 421 219 421 205.5 434.5 c 128,-1,28
 192 448 192 448 173.5 456 c 128,-1,29
 155 464 155 464 134 464 c 256,30,31
 113 464 113 464 94.5 456 c 128,-1,32
 76 448 76 448 62.5 434.5 c 128,-1,33
 49 421 49 421 41 402.5 c 128,-1,34
 33 384 33 384 33 363 c 2,35,-1
 33 246 l 1,36,-1
 33 -1 l 1,37,-1
 0 -1 l 1,38,-1
 0 246 l 1,39,-1
 0 363 l 1,40,-1
 0 492 l 1,41,-1
 33 492 l 1,42,-1
 33 451 l 1,43,44
 52 473 52 473 78 485 c 128,-1,45
 104 497 104 497 134 497 c 0,46,47
 172 497 172 497 203.5 478 c 128,-1,48
 235 459 235 459 252 428 c 1,49,50
 269 459 269 459 300 478 c 128,-1,51
 331 497 331 497 369 497 c 0,0,1
EndSplineSet
Validated: 1
EndChar

StartChar: n
Encoding: 110 110 13
Width: 338
Flags: W
LayerCount: 2
Fore
SplineSet
134 497 m 0,0,1
 162 497 162 497 186.5 486.5 c 128,-1,2
 211 476 211 476 229 458 c 128,-1,3
 247 440 247 440 257.5 415.5 c 128,-1,4
 268 391 268 391 268 363 c 2,5,-1
 268 246 l 1,6,-1
 268 -1 l 1,7,-1
 235 -1 l 1,8,-1
 235 246 l 1,9,-1
 235 363 l 2,10,11
 235 384 235 384 227 402.5 c 128,-1,12
 219 421 219 421 205.5 434.5 c 128,-1,13
 192 448 192 448 173.5 456 c 128,-1,14
 155 464 155 464 134 464 c 256,15,16
 113 464 113 464 94.5 456 c 128,-1,17
 76 448 76 448 62.5 434.5 c 128,-1,18
 49 421 49 421 41 402.5 c 128,-1,19
 33 384 33 384 33 363 c 2,20,-1
 33 246 l 1,21,-1
 33 -1 l 1,22,-1
 0 -1 l 1,23,-1
 0 246 l 1,24,-1
 0 363 l 1,25,-1
 0 492 l 1,26,-1
 33 492 l 1,27,-1
 33 451 l 1,28,29
 52 473 52 473 78 485 c 128,-1,30
 104 497 104 497 134 497 c 0,0,1
EndSplineSet
Validated: 1
EndChar

StartChar: o
Encoding: 111 111 14
Width: 338
Flags: W
LayerCount: 2
Fore
SplineSet
134 -6 m 256,0,1
 106 -6 106 -6 81.5 4.5 c 128,-1,2
 57 15 57 15 39 33 c 128,-1,3
 21 51 21 51 10.5 75.5 c 128,-1,4
 0 100 0 100 0 128 c 2,5,-1
 0 363 l 2,6,7
 0 391 0 391 10.5 415.5 c 128,-1,8
 21 440 21 440 39 458 c 128,-1,9
 57 476 57 476 81.5 486.5 c 128,-1,10
 106 497 106 497 134 497 c 256,11,12
 162 497 162 497 186.5 486.5 c 128,-1,13
 211 476 211 476 229 458 c 128,-1,14
 247 440 247 440 257.5 415.5 c 128,-1,15
 268 391 268 391 268 363 c 2,16,-1
 268 128 l 2,17,18
 268 100 268 100 257.5 75.5 c 128,-1,19
 247 51 247 51 229 33 c 128,-1,20
 211 15 211 15 186.5 4.5 c 128,-1,21
 162 -6 162 -6 134 -6 c 256,0,1
134 464 m 256,22,23
 113 464 113 464 94.5 456 c 128,-1,24
 76 448 76 448 62.5 434.5 c 128,-1,25
 49 421 49 421 41 402.5 c 128,-1,26
 33 384 33 384 33 363 c 2,27,-1
 33 128 l 2,28,29
 33 107 33 107 41 88.5 c 128,-1,30
 49 70 49 70 62.5 56.5 c 128,-1,31
 76 43 76 43 94.5 35 c 128,-1,32
 113 27 113 27 134 27 c 256,33,34
 155 27 155 27 173.5 35 c 128,-1,35
 192 43 192 43 205.5 56.5 c 128,-1,36
 219 70 219 70 227 88.5 c 128,-1,37
 235 107 235 107 235 128 c 2,38,-1
 235 363 l 2,39,40
 235 384 235 384 227 402.5 c 128,-1,41
 219 421 219 421 205.5 434.5 c 128,-1,42
 192 448 192 448 173.5 456 c 128,-1,43
 155 464 155 464 134 464 c 256,22,23
EndSplineSet
Validated: 1
EndChar

StartChar: p
Encoding: 112 112 15
Width: 338
Flags: W
LayerCount: 2
Fore
SplineSet
134 497 m 0,0,1
 162 497 162 497 186.5 486.5 c 128,-1,2
 211 476 211 476 229 458 c 128,-1,3
 247 440 247 440 257.5 415.5 c 128,-1,4
 268 391 268 391 268 363 c 2,5,-1
 268 128 l 2,6,7
 268 100 268 100 257.5 75.5 c 128,-1,8
 247 51 247 51 229 33 c 128,-1,9
 211 15 211 15 186.5 4.5 c 128,-1,10
 162 -6 162 -6 134 -6 c 0,11,12
 104 -6 104 -6 78 6.5 c 128,-1,13
 52 19 52 19 33 40 c 1,14,-1
 33 -225 l 1,15,-1
 0 -225 l 1,16,-1
 0 128 l 1,17,-1
 0 363 l 1,18,-1
 0 492 l 1,19,-1
 33 492 l 1,20,-1
 33 451 l 1,21,22
 52 473 52 473 78 485 c 128,-1,23
 104 497 104 497 134 497 c 0,0,1
235 363 m 2,24,25
 235 384 235 384 227 402.5 c 128,-1,26
 219 421 219 421 205.5 434.5 c 128,-1,27
 192 448 192 448 173.5 456 c 128,-1,28
 155 464 155 464 134 464 c 256,29,30
 113 464 113 464 94.5 456 c 128,-1,31
 76 448 76 448 62.5 434.5 c 128,-1,32
 49 421 49 421 41 402.5 c 128,-1,33
 33 384 33 384 33 363 c 2,34,-1
 33 128 l 2,35,36
 33 107 33 107 41 88.5 c 128,-1,37
 49 70 49 70 62.5 56.5 c 128,-1,38
 76 43 76 43 94.5 35 c 128,-1,39
 113 27 113 27 134 27 c 256,40,41
 155 27 155 27 173.5 35 c 128,-1,42
 192 43 192 43 205.5 56.5 c 128,-1,43
 219 70 219 70 227 88.5 c 128,-1,44
 235 107 235 107 235 128 c 2,45,-1
 235 363 l 2,24,25
EndSplineSet
Validated: 1
EndChar

StartChar: q
Encoding: 113 113 16
Width: 338
Flags: W
LayerCount: 2
Fore
SplineSet
268 492 m 1,0,-1
 268 363 l 1,1,-1
 268 128 l 1,2,-1
 268 -225 l 1,3,-1
 235 -225 l 1,4,-1
 235 40 l 1,5,6
 216 19 216 19 190 6.5 c 128,-1,7
 164 -6 164 -6 134 -6 c 0,8,9
 106 -6 106 -6 81.5 4.5 c 128,-1,10
 57 15 57 15 39 33 c 128,-1,11
 21 51 21 51 10.5 75.5 c 128,-1,12
 0 100 0 100 0 128 c 2,13,-1
 0 363 l 2,14,15
 0 391 0 391 10.5 415.5 c 128,-1,16
 21 440 21 440 39 458 c 128,-1,17
 57 476 57 476 81.5 486.5 c 128,-1,18
 106 497 106 497 134 497 c 0,19,20
 164 497 164 497 190 485 c 128,-1,21
 216 473 216 473 235 451 c 1,22,-1
 235 492 l 1,23,-1
 268 492 l 1,0,-1
134 27 m 256,24,25
 155 27 155 27 173.5 35 c 128,-1,26
 192 43 192 43 205.5 56.5 c 128,-1,27
 219 70 219 70 227 88.5 c 128,-1,28
 235 107 235 107 235 128 c 2,29,-1
 235 363 l 2,30,31
 235 384 235 384 227 402.5 c 128,-1,32
 219 421 219 421 205.5 434.5 c 128,-1,33
 192 448 192 448 173.5 456 c 128,-1,34
 155 464 155 464 134 464 c 256,35,36
 113 464 113 464 94.5 456 c 128,-1,37
 76 448 76 448 62.5 434.5 c 128,-1,38
 49 421 49 421 41 402.5 c 128,-1,39
 33 384 33 384 33 363 c 2,40,-1
 33 128 l 2,41,42
 33 107 33 107 41 88.5 c 128,-1,43
 49 70 49 70 62.5 56.5 c 128,-1,44
 76 43 76 43 94.5 35 c 128,-1,45
 113 27 113 27 134 27 c 256,24,25
EndSplineSet
Validated: 1
EndChar

StartChar: r
Encoding: 114 114 17
Width: 266
Flags: W
LayerCount: 2
Fore
SplineSet
206 497 m 1,0,-1
 206 464 l 1,1,-1
 167 464 l 2,2,3
 146 464 146 464 128 456 c 128,-1,4
 110 448 110 448 96 434.5 c 128,-1,5
 82 421 82 421 74 402.5 c 128,-1,6
 66 384 66 384 66 363 c 2,7,-1
 66 246 l 1,8,-1
 66 -1 l 1,9,-1
 33 -1 l 1,10,-1
 33 246 l 1,11,-1
 33 363 l 1,12,-1
 33 459 l 1,13,-1
 0 459 l 1,14,-1
 0 492 l 1,15,-1
 33 492 l 1,16,-1
 66 492 l 1,17,-1
 66 459 l 1,18,-1
 66 451 l 1,19,20
 104 495 104 495 164 497 c 2,21,-1
 206 497 l 1,0,-1
EndSplineSet
Validated: 1
EndChar

StartChar: s
Encoding: 115 115 18
Width: 338
Flags: W
LayerCount: 2
Fore
SplineSet
142 261 m 0,0,1
 164 250 164 250 186.5 237.5 c 128,-1,2
 209 225 209 225 227 209 c 128,-1,3
 245 193 245 193 256.5 173.5 c 128,-1,4
 268 154 268 154 268 128 c 0,5,6
 268 100 268 100 257.5 75.5 c 128,-1,7
 247 51 247 51 229 33 c 128,-1,8
 211 15 211 15 186.5 4.5 c 128,-1,9
 162 -6 162 -6 134 -6 c 256,10,11
 106 -6 106 -6 81.5 4.5 c 128,-1,12
 57 15 57 15 39 33 c 128,-1,13
 21 51 21 51 10.5 75.5 c 128,-1,14
 0 100 0 100 0 128 c 1,15,-1
 33 128 l 1,16,17
 33 107 33 107 41 88.5 c 128,-1,18
 49 70 49 70 62.5 56.5 c 128,-1,19
 76 43 76 43 94.5 35 c 128,-1,20
 113 27 113 27 134 27 c 256,21,22
 155 27 155 27 173.5 35 c 128,-1,23
 192 43 192 43 205.5 56.5 c 128,-1,24
 219 70 219 70 227 88.5 c 128,-1,25
 235 107 235 107 235 128 c 0,26,27
 235 146 235 146 226 160.5 c 128,-1,28
 217 175 217 175 202 187 c 128,-1,29
 187 199 187 199 167.5 209.5 c 128,-1,30
 148 220 148 220 127 231 c 0,31,32
 104 242 104 242 81.5 254.5 c 128,-1,33
 59 267 59 267 41 282.5 c 128,-1,34
 23 298 23 298 11.5 317.5 c 128,-1,35
 0 337 0 337 0 363 c 0,36,37
 0 391 0 391 10.5 415.5 c 128,-1,38
 21 440 21 440 39 458 c 128,-1,39
 57 476 57 476 81.5 486.5 c 128,-1,40
 106 497 106 497 134 497 c 256,41,42
 162 497 162 497 186.5 486.5 c 128,-1,43
 211 476 211 476 229 458 c 128,-1,44
 247 440 247 440 257.5 415.5 c 128,-1,45
 268 391 268 391 268 363 c 1,46,-1
 235 363 l 1,47,48
 235 384 235 384 227 402.5 c 128,-1,49
 219 421 219 421 205.5 434.5 c 128,-1,50
 192 448 192 448 173.5 456 c 128,-1,51
 155 464 155 464 134 464 c 256,52,53
 113 464 113 464 94.5 456 c 128,-1,54
 76 448 76 448 62.5 434.5 c 128,-1,55
 49 421 49 421 41 402.5 c 128,-1,56
 33 384 33 384 33 363 c 0,57,58
 33 345 33 345 42 330.5 c 128,-1,59
 51 316 51 316 66.5 304 c 128,-1,60
 82 292 82 292 101.5 281.5 c 128,-1,61
 121 271 121 271 142 261 c 0,0,1
EndSplineSet
Validated: 1
EndChar

StartChar: t
Encoding: 116 116 19
Width: 191
Flags: W
LayerCount: 2
Fore
SplineSet
33 246 m 1,0,-1
 33 128 l 2,1,2
 33 107 33 107 40 88.5 c 128,-1,3
 47 70 47 70 59 56.5 c 128,-1,4
 71 43 71 43 87 35 c 128,-1,5
 103 27 103 27 121 27 c 1,6,-1
 121 -6 l 1,7,8
 96 -6 96 -6 74 4.5 c 128,-1,9
 52 15 52 15 35.5 33 c 128,-1,10
 19 51 19 51 9.5 75.5 c 128,-1,11
 0 100 0 100 0 128 c 2,12,-1
 0 246 l 1,13,-1
 0 459 l 1,14,-1
 0 492 l 1,15,-1
 0 632 l 1,16,-1
 33 632 l 1,17,-1
 33 492 l 1,18,-1
 141 492 l 1,19,-1
 141 459 l 1,20,-1
 33 459 l 1,21,-1
 33 246 l 1,0,-1
EndSplineSet
Validated: 1
EndChar

StartChar: u
Encoding: 117 117 20
Width: 338
Flags: W
LayerCount: 2
Fore
SplineSet
268 492 m 1,0,-1
 268 246 l 1,1,-1
 268 128 l 1,2,-1
 268 -1 l 1,3,-1
 235 -1 l 1,4,-1
 235 40 l 1,5,6
 216 19 216 19 190 6.5 c 128,-1,7
 164 -6 164 -6 134 -6 c 0,8,9
 106 -6 106 -6 81.5 4.5 c 128,-1,10
 57 15 57 15 39 33 c 128,-1,11
 21 51 21 51 10.5 75.5 c 128,-1,12
 0 100 0 100 0 128 c 2,13,-1
 0 246 l 1,14,-1
 0 492 l 1,15,-1
 33 492 l 1,16,-1
 33 246 l 1,17,-1
 33 128 l 2,18,19
 33 107 33 107 41 88.5 c 128,-1,20
 49 70 49 70 62.5 56.5 c 128,-1,21
 76 43 76 43 94.5 35 c 128,-1,22
 113 27 113 27 134 27 c 256,23,24
 155 27 155 27 173.5 35 c 128,-1,25
 192 43 192 43 205.5 56.5 c 128,-1,26
 219 70 219 70 227 88.5 c 128,-1,27
 235 107 235 107 235 128 c 2,28,-1
 235 246 l 1,29,-1
 235 492 l 1,30,-1
 268 492 l 1,0,-1
EndSplineSet
Validated: 1
EndChar

StartChar: v
Encoding: 118 118 21
Width: 327
Flags: W
LayerCount: 2
Fore
SplineSet
252 492 m 1,0,-1
 287 492 l 1,1,-1
 157 -1 l 1,2,-1
 144 -1 l 1,3,-1
 123 -1 l 1,4,-1
 110 -1 l 1,5,-1
 -20 492 l 1,6,-1
 14 492 l 1,7,-1
 133 39 l 1,8,-1
 252 492 l 1,9,-1
 252 492 l 1,0,-1
EndSplineSet
Validated: 5
EndChar

StartChar: w
Encoding: 119 119 22
Width: 484
Flags: W
LayerCount: 2
Fore
SplineSet
410 492 m 1,0,-1
 444 492 l 1,1,-1
 332 -1 l 1,2,-1
 283 -1 l 1,3,-1
 212 399 l 1,4,-1
 141 -1 l 1,5,-1
 91 -1 l 1,6,-1
 -20 492 l 1,7,-1
 14 492 l 1,8,-1
 115 44 l 1,9,-1
 195 492 l 1,10,-1
 195 492 l 1,11,-1
 228 492 l 1,12,-1
 229 492 l 1,13,-1
 309 44 l 1,14,-1
 410 492 l 1,15,-1
 410 492 l 1,0,-1
EndSplineSet
Validated: 5
EndChar

StartChar: x
Encoding: 120 120 23
Width: 306
Flags: W
LayerCount: 2
Fore
SplineSet
-20 -1 m 1,0,-1
 104 250 l 1,1,-1
 -16 492 l 1,2,-1
 21 492 l 1,3,-1
 123 288 l 1,4,-1
 224 492 l 1,5,-1
 261 492 l 1,6,-1
 141 250 l 1,7,-1
 266 -1 l 1,8,-1
 228 -1 l 1,9,-1
 123 213 l 1,10,-1
 17 -1 l 1,11,-1
 -20 -1 l 1,12,-1
 -20 -1 l 1,0,-1
EndSplineSet
Validated: 5
EndChar

StartChar: y
Encoding: 121 121 24
Width: 318
Flags: W
LayerCount: 2
Fore
SplineSet
244 492 m 1,0,-1
 278 492 l 1,1,-1
 103 -225 l 1,2,-1
 69 -225 l 1,3,-1
 121 -9 l 1,4,-1
 -20 492 l 1,5,-1
 14 492 l 1,6,-1
 137 56 l 1,7,-1
 244 492 l 1,8,-1
 244 492 l 1,0,-1
EndSplineSet
Validated: 5
EndChar

StartChar: z
Encoding: 122 122 25
Width: 294
Flags: W
LayerCount: 2
Fore
SplineSet
234 492 m 1,0,-1
 234 459 l 1,1,-1
 234 459 l 1,2,-1
 234 459 l 1,3,-1
 17 32 l 1,4,-1
 234 32 l 1,5,-1
 234 -1 l 1,6,-1
 -20 -1 l 1,7,-1
 -20 32 l 1,8,-1
 -20 32 l 1,9,-1
 197 459 l 1,10,-1
 -20 459 l 1,11,-1
 -20 492 l 1,12,-1
 234 492 l 1,13,-1
 234 492 l 1,0,-1
EndSplineSet
Validated: 5
EndChar

StartChar: period
Encoding: 46 46 26
Width: 142
Flags: W
LayerCount: 2
Fore
SplineSet
72 30 m 0,0,1
 72 15 72 15 61.5 4 c 128,-1,2
 51 -7 51 -7 36 -7 c 256,3,4
 21 -7 21 -7 10.5 4 c 128,-1,5
 0 15 0 15 0 30 c 0,6,7
 0 44 0 44 10.5 55 c 128,-1,8
 21 66 21 66 36 66 c 256,9,10
 51 66 51 66 61.5 55 c 128,-1,11
 72 44 72 44 72 30 c 0,0,1
EndSplineSet
Validated: 1
EndChar

StartChar: comma
Encoding: 44 44 27
Width: 143
Flags: W
LayerCount: 2
Fore
SplineSet
72 27 m 1,0,1
 72 22 72 22 71.5 11 c 128,-1,2
 71 0 71 0 67 -14 c 128,-1,3
 63 -28 63 -28 54 -44.5 c 128,-1,4
 45 -61 45 -61 30 -77 c 1,5,-1
 11 -59 l 1,6,7
 25 -45 25 -45 32 -31.5 c 128,-1,8
 39 -18 39 -18 42 -6 c 1,9,10
 40 -6 40 -6 39 -6.5 c 128,-1,11
 38 -7 38 -7 36 -7 c 0,12,13
 21 -7 21 -7 10.5 4 c 128,-1,14
 0 15 0 15 0 30 c 0,15,16
 0 44 0 44 10.5 55 c 128,-1,17
 21 66 21 66 36 66 c 256,18,19
 51 66 51 66 61.5 55 c 128,-1,20
 72 44 72 44 72 30 c 2,21,-1
 72 27 l 1,22,-1
 72 27 l 1,0,1
EndSplineSet
Validated: 5
EndChar

StartChar: colon
Encoding: 58 58 28
Width: 142
Flags: W
LayerCount: 2
Fore
SplineSet
72 30 m 0,0,1
 72 15 72 15 61.5 4 c 128,-1,2
 51 -7 51 -7 36 -7 c 256,3,4
 21 -7 21 -7 10.5 4 c 128,-1,5
 0 15 0 15 0 30 c 0,6,7
 0 44 0 44 10.5 55 c 128,-1,8
 21 66 21 66 36 66 c 256,9,10
 51 66 51 66 61.5 55 c 128,-1,11
 72 44 72 44 72 30 c 0,0,1
72 413 m 256,12,13
 72 398 72 398 61.5 387.5 c 128,-1,14
 51 377 51 377 36 377 c 256,15,16
 21 377 21 377 10.5 387.5 c 128,-1,17
 0 398 0 398 0 413 c 256,18,19
 0 428 0 428 10.5 438.5 c 128,-1,20
 21 449 21 449 36 449 c 256,21,22
 51 449 51 449 61.5 438.5 c 128,-1,23
 72 428 72 428 72 413 c 256,12,13
EndSplineSet
Validated: 1
EndChar

StartChar: semicolon
Encoding: 59 59 29
Width: 143
Flags: W
LayerCount: 2
Fore
SplineSet
72 27 m 2,0,1
 72 22 72 22 71.5 11 c 128,-1,2
 71 0 71 0 67 -14 c 128,-1,3
 63 -28 63 -28 54 -44.5 c 128,-1,4
 45 -61 45 -61 30 -77 c 1,5,-1
 11 -59 l 1,6,7
 25 -45 25 -45 32 -31.5 c 128,-1,8
 39 -18 39 -18 42 -6 c 1,9,10
 40 -6 40 -6 39 -6.5 c 128,-1,11
 38 -7 38 -7 36 -7 c 0,12,13
 21 -7 21 -7 10.5 4 c 128,-1,14
 0 15 0 15 0 30 c 0,15,16
 0 44 0 44 10.5 55 c 128,-1,17
 21 66 21 66 36 66 c 256,18,19
 51 66 51 66 61.5 55 c 128,-1,20
 72 44 72 44 72 30 c 2,21,-1
 72 27 l 2,0,1
72 413 m 256,22,23
 72 398 72 398 61.5 387.5 c 128,-1,24
 51 377 51 377 36 377 c 256,25,26
 21 377 21 377 10.5 387.5 c 128,-1,27
 0 398 0 398 0 413 c 256,28,29
 0 428 0 428 10.5 438.5 c 128,-1,30
 21 449 21 449 36 449 c 256,31,32
 51 449 51 449 61.5 438.5 c 128,-1,33
 72 428 72 428 72 413 c 256,22,23
EndSplineSet
Validated: 1
EndChar

StartChar: exclam
Encoding: 33 33 30
Width: 182
Flags: W
LayerCount: 2
Fore
SplineSet
112 30 m 0,0,1
 112 44 112 44 101.5 55 c 128,-1,2
 91 66 91 66 76 66 c 256,3,4
 61 66 61 66 50.5 55 c 128,-1,5
 40 44 40 44 40 30 c 0,6,7
 40 15 40 15 50.5 4 c 128,-1,8
 61 -7 61 -7 76 -7 c 256,9,10
 91 -7 91 -7 101.5 4 c 128,-1,11
 112 15 112 15 112 30 c 0,0,1
93 180 m 1,12,-1
 59 180 l 1,13,-1
 59 682 l 1,14,-1
 93 682 l 1,15,-1
 93 180 l 1,12,-1
EndSplineSet
Validated: 9
EndChar

StartChar: question
Encoding: 63 63 31
Width: 359
Flags: W
LayerCount: 2
Fore
SplineSet
155 30 m 0,0,1
 155 15 155 15 144 4 c 128,-1,2
 133 -7 133 -7 118 -7 c 0,3,4
 104 -7 104 -7 93 4 c 128,-1,5
 82 15 82 15 82 30 c 0,6,7
 82 44 82 44 93 55 c 128,-1,8
 104 66 104 66 118 66 c 0,9,10
 133 66 133 66 144 55 c 128,-1,11
 155 44 155 44 155 30 c 0,0,1
289 541 m 0,12,13
 289 504 289 504 281.5 476 c 128,-1,14
 274 448 274 448 260 425.5 c 128,-1,15
 246 403 246 403 226.5 384 c 128,-1,16
 207 365 207 365 183 346 c 256,17,18
 159 327 159 327 148 311.5 c 128,-1,19
 137 296 137 296 134 278 c 128,-1,20
 131 260 131 260 132 236.5 c 128,-1,21
 133 213 133 213 133 179 c 1,22,-1
 100 179 l 1,23,24
 100 219 100 219 100.5 247 c 128,-1,25
 101 275 101 275 106 296 c 128,-1,26
 111 317 111 317 124 334.5 c 128,-1,27
 137 352 137 352 162 372 c 0,28,29
 185 390 185 390 202.5 407 c 128,-1,30
 220 424 220 424 232 443.5 c 128,-1,31
 244 463 244 463 250 486.5 c 128,-1,32
 256 510 256 510 256 541 c 0,33,34
 256 564 256 564 247 584.5 c 128,-1,35
 238 605 238 605 223 620 c 128,-1,36
 208 635 208 635 188 644 c 128,-1,37
 168 653 168 653 145 653 c 256,38,39
 122 653 122 653 101.5 644 c 128,-1,40
 81 635 81 635 66 620 c 128,-1,41
 51 605 51 605 42 584.5 c 128,-1,42
 33 564 33 564 33 541 c 1,43,-1
 0 541 l 1,44,45
 0 571 0 571 11.5 597.5 c 128,-1,46
 23 624 23 624 42.5 643.5 c 128,-1,47
 62 663 62 663 88.5 674.5 c 128,-1,48
 115 686 115 686 145 686 c 256,49,50
 175 686 175 686 201 674.5 c 128,-1,51
 227 663 227 663 246.5 643.5 c 128,-1,52
 266 624 266 624 277.5 597.5 c 128,-1,53
 289 571 289 571 289 541 c 0,12,13
EndSplineSet
Validated: 33
EndChar

StartChar: percent
Encoding: 37 37 32
Width: 465
Flags: W
LayerCount: 2
Fore
SplineSet
115 -1 m 1,0,-1
 81 -1 l 1,1,-1
 281 675 l 1,2,-1
 314 675 l 1,3,-1
 115 -1 l 1,0,-1
101 478 m 256,4,5
 80 478 80 478 61.5 486 c 128,-1,6
 43 494 43 494 29.5 507.5 c 128,-1,7
 16 521 16 521 8 539.5 c 128,-1,8
 0 558 0 558 0 579 c 256,9,10
 0 600 0 600 8 618 c 128,-1,11
 16 636 16 636 29.5 650 c 128,-1,12
 43 664 43 664 61.5 672 c 128,-1,13
 80 680 80 680 101 680 c 256,14,15
 122 680 122 680 140 672 c 128,-1,16
 158 664 158 664 172 650 c 128,-1,17
 186 636 186 636 194 618 c 128,-1,18
 202 600 202 600 202 579 c 256,19,20
 202 558 202 558 194 539.5 c 128,-1,21
 186 521 186 521 172 507.5 c 128,-1,22
 158 494 158 494 140 486 c 128,-1,23
 122 478 122 478 101 478 c 256,4,5
101 646 m 256,24,25
 73 646 73 646 53 626.5 c 128,-1,26
 33 607 33 607 33 579 c 0,27,28
 33 550 33 550 53 530.5 c 128,-1,29
 73 511 73 511 101 511 c 256,30,31
 129 511 129 511 149 530.5 c 128,-1,32
 169 550 169 550 169 579 c 0,33,34
 169 607 169 607 149 626.5 c 128,-1,35
 129 646 129 646 101 646 c 256,24,25
294 -6 m 256,36,37
 273 -6 273 -6 255 2 c 128,-1,38
 237 10 237 10 223 23.5 c 128,-1,39
 209 37 209 37 201 55.5 c 128,-1,40
 193 74 193 74 193 95 c 256,41,42
 193 116 193 116 201 134.5 c 128,-1,43
 209 153 209 153 223 166.5 c 128,-1,44
 237 180 237 180 255 188 c 128,-1,45
 273 196 273 196 294 196 c 256,46,47
 315 196 315 196 333.5 188 c 128,-1,48
 352 180 352 180 365.5 166.5 c 128,-1,49
 379 153 379 153 387 134.5 c 128,-1,50
 395 116 395 116 395 95 c 256,51,52
 395 74 395 74 387 55.5 c 128,-1,53
 379 37 379 37 365.5 23.5 c 128,-1,54
 352 10 352 10 333.5 2 c 128,-1,55
 315 -6 315 -6 294 -6 c 256,36,37
294 163 m 0,56,57
 266 163 266 163 246.5 143 c 128,-1,58
 227 123 227 123 227 95 c 256,59,60
 227 67 227 67 246.5 47 c 128,-1,61
 266 27 266 27 294 27 c 0,62,63
 323 27 323 27 342.5 47 c 128,-1,64
 362 67 362 67 362 95 c 256,65,66
 362 123 362 123 342.5 143 c 128,-1,67
 323 163 323 163 294 163 c 0,56,57
EndSplineSet
Validated: 1
EndChar

StartChar: perthousand
Encoding: 8240 8240 33
Width: 705
Flags: W
LayerCount: 2
Fore
SplineSet
115 -1 m 1,0,-1
 81 -1 l 1,1,-1
 281 675 l 1,2,-1
 314 675 l 1,3,-1
 115 -1 l 1,0,-1
101 478 m 256,4,5
 80 478 80 478 61.5 486 c 128,-1,6
 43 494 43 494 29.5 507.5 c 128,-1,7
 16 521 16 521 8 539.5 c 128,-1,8
 0 558 0 558 0 579 c 256,9,10
 0 600 0 600 8 618 c 128,-1,11
 16 636 16 636 29.5 650 c 128,-1,12
 43 664 43 664 61.5 672 c 128,-1,13
 80 680 80 680 101 680 c 256,14,15
 122 680 122 680 140 672 c 128,-1,16
 158 664 158 664 172 650 c 128,-1,17
 186 636 186 636 194 618 c 128,-1,18
 202 600 202 600 202 579 c 256,19,20
 202 558 202 558 194 539.5 c 128,-1,21
 186 521 186 521 172 507.5 c 128,-1,22
 158 494 158 494 140 486 c 128,-1,23
 122 478 122 478 101 478 c 256,4,5
101 646 m 256,24,25
 73 646 73 646 53 626.5 c 128,-1,26
 33 607 33 607 33 579 c 0,27,28
 33 550 33 550 53 530.5 c 128,-1,29
 73 511 73 511 101 511 c 256,30,31
 129 511 129 511 149 530.5 c 128,-1,32
 169 550 169 550 169 579 c 0,33,34
 169 607 169 607 149 626.5 c 128,-1,35
 129 646 129 646 101 646 c 256,24,25
294 -6 m 256,36,37
 273 -6 273 -6 255 2 c 128,-1,38
 237 10 237 10 223 23.5 c 128,-1,39
 209 37 209 37 201 55.5 c 128,-1,40
 193 74 193 74 193 95 c 256,41,42
 193 116 193 116 201 134.5 c 128,-1,43
 209 153 209 153 223 166.5 c 128,-1,44
 237 180 237 180 255 188 c 128,-1,45
 273 196 273 196 294 196 c 256,46,47
 315 196 315 196 333.5 188 c 128,-1,48
 352 180 352 180 365.5 166.5 c 128,-1,49
 379 153 379 153 387 134.5 c 128,-1,50
 395 116 395 116 395 95 c 256,51,52
 395 74 395 74 387 55.5 c 128,-1,53
 379 37 379 37 365.5 23.5 c 128,-1,54
 352 10 352 10 333.5 2 c 128,-1,55
 315 -6 315 -6 294 -6 c 256,36,37
294 163 m 0,56,57
 266 163 266 163 246.5 143 c 128,-1,58
 227 123 227 123 227 95 c 256,59,60
 227 67 227 67 246.5 47 c 128,-1,61
 266 27 266 27 294 27 c 0,62,63
 323 27 323 27 342.5 47 c 128,-1,64
 362 67 362 67 362 95 c 256,65,66
 362 123 362 123 342.5 143 c 128,-1,67
 323 163 323 163 294 163 c 0,56,57
535 -6 m 256,68,69
 514 -6 514 -6 495.5 2 c 128,-1,70
 477 10 477 10 463.5 23.5 c 128,-1,71
 450 37 450 37 442 55.5 c 128,-1,72
 434 74 434 74 434 95 c 256,73,74
 434 116 434 116 442 134.5 c 128,-1,75
 450 153 450 153 463.5 166.5 c 128,-1,76
 477 180 477 180 495.5 188 c 128,-1,77
 514 196 514 196 535 196 c 256,78,79
 556 196 556 196 574 188 c 128,-1,80
 592 180 592 180 605.5 166.5 c 128,-1,81
 619 153 619 153 627 134.5 c 128,-1,82
 635 116 635 116 635 95 c 256,83,84
 635 74 635 74 627 55.5 c 128,-1,85
 619 37 619 37 605.5 23.5 c 128,-1,86
 592 10 592 10 574 2 c 128,-1,87
 556 -6 556 -6 535 -6 c 256,68,69
535 163 m 0,88,89
 506 163 506 163 486.5 143 c 128,-1,90
 467 123 467 123 467 95 c 256,91,92
 467 67 467 67 486.5 47 c 128,-1,93
 506 27 506 27 535 27 c 0,94,95
 563 27 563 27 582.5 47 c 128,-1,96
 602 67 602 67 602 95 c 256,97,98
 602 123 602 123 582.5 143 c 128,-1,99
 563 163 563 163 535 163 c 0,88,89
EndSplineSet
Validated: 1
EndChar

StartChar: quotedblbase
Encoding: 8222 8222 34
Width: 183
Flags: W
LayerCount: 2
Fore
SplineSet
72 27 m 2,0,1
 72 22 72 22 71.5 11 c 128,-1,2
 71 0 71 0 67 -14 c 128,-1,3
 63 -28 63 -28 54 -44.5 c 128,-1,4
 45 -61 45 -61 30 -77 c 1,5,-1
 11 -59 l 1,6,7
 25 -45 25 -45 32 -31.5 c 128,-1,8
 39 -18 39 -18 42 -6 c 1,9,10
 40 -6 40 -6 39 -6.5 c 128,-1,11
 38 -7 38 -7 36 -7 c 0,12,13
 21 -7 21 -7 10.5 4 c 128,-1,14
 0 15 0 15 0 29 c 0,15,16
 0 44 0 44 10.5 55 c 128,-1,17
 21 66 21 66 36 66 c 256,18,19
 51 66 51 66 61.5 55 c 128,-1,20
 72 44 72 44 72 29 c 2,21,-1
 72 27 l 2,0,1
183 27 m 2,22,23
 183 22 183 22 182 11 c 128,-1,24
 181 0 181 0 177 -14 c 128,-1,25
 173 -28 173 -28 164.5 -44.5 c 128,-1,26
 156 -61 156 -61 140 -77 c 1,27,-1
 122 -59 l 1,28,29
 135 -45 135 -45 142 -31.5 c 128,-1,30
 149 -18 149 -18 153 -6 c 1,31,32
 151 -6 151 -6 150 -6.5 c 128,-1,33
 149 -7 149 -7 147 -7 c 0,34,35
 132 -7 132 -7 121.5 4 c 128,-1,36
 111 15 111 15 111 29 c 0,37,38
 111 44 111 44 121.5 55 c 128,-1,39
 132 66 132 66 147 66 c 256,40,41
 162 66 162 66 172.5 55 c 128,-1,42
 183 44 183 44 183 29 c 2,43,-1
 183 27 l 2,22,23
EndSplineSet
Validated: 1
EndChar

StartChar: quotedblright
Encoding: 8221 8221 35
Width: 183
Flags: W
LayerCount: 2
Fore
SplineSet
72 649 m 2,0,1
 72 644 72 644 71.5 632.5 c 128,-1,2
 71 621 71 621 67 607 c 128,-1,3
 63 593 63 593 54 576.5 c 128,-1,4
 45 560 45 560 30 544 c 1,5,-1
 11 562 l 1,6,7
 25 576 25 576 32 589.5 c 128,-1,8
 39 603 39 603 42 615 c 1,9,-1
 36 615 l 2,10,11
 21 615 21 615 10.5 625.5 c 128,-1,12
 0 636 0 636 0 651 c 256,13,14
 0 666 0 666 10.5 676.5 c 128,-1,15
 21 687 21 687 36 687 c 256,16,17
 51 687 51 687 61.5 676.5 c 128,-1,18
 72 666 72 666 72 651 c 2,19,-1
 72 649 l 2,0,1
183 649 m 2,20,21
 183 644 183 644 182 632.5 c 128,-1,22
 181 621 181 621 177 607 c 128,-1,23
 173 593 173 593 164.5 576.5 c 128,-1,24
 156 560 156 560 140 544 c 1,25,-1
 122 562 l 1,26,27
 135 576 135 576 142 589.5 c 128,-1,28
 149 603 149 603 153 615 c 1,29,-1
 147 615 l 2,30,31
 132 615 132 615 121.5 625.5 c 128,-1,32
 111 636 111 636 111 651 c 256,33,34
 111 666 111 666 121.5 676.5 c 128,-1,35
 132 687 132 687 147 687 c 256,36,37
 162 687 162 687 172.5 676.5 c 128,-1,38
 183 666 183 666 183 651 c 2,39,-1
 183 649 l 2,20,21
EndSplineSet
Validated: 1
EndChar

StartChar: quotedblleft
Encoding: 8220 8220 36
Width: 183
Flags: W
LayerCount: 2
Fore
SplineSet
111 582 m 2,0,1
 111 587 111 587 111.5 598 c 128,-1,2
 112 609 112 609 116 623.5 c 128,-1,3
 120 638 120 638 128.5 654.5 c 128,-1,4
 137 671 137 671 153 687 c 1,5,-1
 171 669 l 1,6,7
 158 655 158 655 151 641.5 c 128,-1,8
 144 628 144 628 141 616 c 1,9,-1
 147 616 l 2,10,11
 162 616 162 616 172.5 605.5 c 128,-1,12
 183 595 183 595 183 580 c 256,13,14
 183 565 183 565 172.5 554.5 c 128,-1,15
 162 544 162 544 147 544 c 256,16,17
 132 544 132 544 121.5 554.5 c 128,-1,18
 111 565 111 565 111 580 c 2,19,-1
 111 582 l 2,0,1
0 582 m 2,20,21
 0 587 0 587 1 598 c 128,-1,22
 2 609 2 609 6 623.5 c 128,-1,23
 10 638 10 638 18.5 654.5 c 128,-1,24
 27 671 27 671 42 687 c 1,25,-1
 61 669 l 1,26,27
 47 655 47 655 40.5 641.5 c 128,-1,28
 34 628 34 628 30 616 c 1,29,-1
 36 616 l 2,30,31
 51 616 51 616 61.5 605.5 c 128,-1,32
 72 595 72 595 72 580 c 256,33,34
 72 565 72 565 61.5 554.5 c 128,-1,35
 51 544 51 544 36 544 c 256,36,37
 21 544 21 544 10.5 554.5 c 128,-1,38
 0 565 0 565 0 580 c 2,39,-1
 0 582 l 2,20,21
EndSplineSet
Validated: 1
EndChar

StartChar: quoteright
Encoding: 8217 8217 37
Width: 73
Flags: W
LayerCount: 2
Fore
SplineSet
72 649 m 1,0,1
 72 644 72 644 71.5 632.5 c 128,-1,2
 71 621 71 621 67 607 c 128,-1,3
 63 593 63 593 54 576.5 c 128,-1,4
 45 560 45 560 30 544 c 1,5,-1
 11 562 l 1,6,7
 25 576 25 576 32 589.5 c 128,-1,8
 39 603 39 603 42 615 c 1,9,-1
 36 615 l 2,10,11
 21 615 21 615 10.5 625.5 c 128,-1,12
 0 636 0 636 0 651 c 256,13,14
 0 666 0 666 10.5 676.5 c 128,-1,15
 21 687 21 687 36 687 c 256,16,17
 51 687 51 687 61.5 676.5 c 128,-1,18
 72 666 72 666 72 651 c 2,19,-1
 72 649 l 1,20,-1
 72 649 l 1,0,1
EndSplineSet
Validated: 5
EndChar

StartChar: quoteleft
Encoding: 8216 8216 38
Width: 72
Flags: W
LayerCount: 2
Fore
SplineSet
0 582 m 1,0,1
 0 587 0 587 1 598 c 128,-1,2
 2 609 2 609 6 623.5 c 128,-1,3
 10 638 10 638 18.5 654.5 c 128,-1,4
 27 671 27 671 42 687 c 1,5,-1
 61 669 l 1,6,7
 47 655 47 655 40.5 641.5 c 128,-1,8
 34 628 34 628 30 616 c 1,9,-1
 36 616 l 2,10,11
 51 616 51 616 61.5 605.5 c 128,-1,12
 72 595 72 595 72 580 c 256,13,14
 72 565 72 565 61.5 554.5 c 128,-1,15
 51 544 51 544 36 544 c 256,16,17
 21 544 21 544 10.5 554.5 c 128,-1,18
 0 565 0 565 0 580 c 2,19,-1
 0 582 l 1,20,-1
 0 582 l 1,0,1
EndSplineSet
Validated: 5
EndChar

StartChar: A
Encoding: 65 65 39
Width: 376
Flags: W
LayerCount: 2
Fore
SplineSet
302 -1 m 1,0,-1
 255 211 l 1,1,-1
 61 211 l 1,2,-1
 14 -1 l 1,3,-1
 -20 -1 l 1,4,-1
 130 675 l 1,5,-1
 186 675 l 1,6,-1
 336 -1 l 1,7,-1
 302 -1 l 1,0,-1
68 244 m 1,8,-1
 248 244 l 1,9,-1
 158 648 l 1,10,-1
 68 244 l 1,8,-1
EndSplineSet
Validated: 1
EndChar

StartChar: B
Encoding: 66 66 40
Width: 377
Flags: W
LayerCount: 2
Fore
SplineSet
211 415 m 1,0,1
 253 400 253 400 280 363.5 c 128,-1,2
 307 327 307 327 307 280 c 2,3,-1
 307 142 l 2,4,5
 307 112 307 112 295.5 86 c 128,-1,6
 284 60 284 60 264.5 40.5 c 128,-1,7
 245 21 245 21 219 10 c 128,-1,8
 193 -1 193 -1 163 -1 c 2,9,-1
 33 -1 l 1,10,-1
 17 -1 l 1,11,-1
 0 -1 l 1,12,-1
 0 675 l 1,13,-1
 17 675 l 1,14,-1
 33 675 l 1,15,-1
 130 675 l 2,16,17
 160 675 160 675 186 664 c 128,-1,18
 212 653 212 653 231.5 633.5 c 128,-1,19
 251 614 251 614 262.5 588 c 128,-1,20
 274 562 274 562 274 532 c 0,21,22
 274 495 274 495 257 464.5 c 128,-1,23
 240 434 240 434 211 415 c 1,0,1
33 642 m 1,24,-1
 33 423 l 1,25,-1
 134 423 l 2,26,27
 156 424 156 424 175.5 432.5 c 128,-1,28
 195 441 195 441 209.5 456 c 128,-1,29
 224 471 224 471 232.5 490.5 c 128,-1,30
 241 510 241 510 241 532 c 0,31,32
 241 555 241 555 232 575 c 128,-1,33
 223 595 223 595 208 610 c 128,-1,34
 193 625 193 625 173 633.5 c 128,-1,35
 153 642 153 642 130 642 c 2,36,-1
 33 642 l 1,24,-1
274 280 m 2,37,38
 274 302 274 302 265.5 322 c 128,-1,39
 257 342 257 342 242.5 357 c 128,-1,40
 228 372 228 372 208 380.5 c 128,-1,41
 188 389 188 389 165 390 c 2,42,-1
 134 390 l 1,43,-1
 130 390 l 1,44,-1
 33 390 l 1,45,-1
 33 32 l 1,46,-1
 163 32 l 2,47,48
 186 32 186 32 206 40.5 c 128,-1,49
 226 49 226 49 241 64 c 128,-1,50
 256 79 256 79 265 99 c 128,-1,51
 274 119 274 119 274 142 c 2,52,-1
 274 280 l 2,37,38
EndSplineSet
Validated: 1
EndChar

StartChar: C
Encoding: 67 67 41
Width: 359
Flags: W
LayerCount: 2
Fore
SplineSet
145 27 m 256,0,1
 168 27 168 27 188 36 c 128,-1,2
 208 45 208 45 223 60 c 128,-1,3
 238 75 238 75 247 95.5 c 128,-1,4
 256 116 256 116 256 139 c 1,5,-1
 289 139 l 1,6,7
 289 109 289 109 277.5 82.5 c 128,-1,8
 266 56 266 56 246.5 36.5 c 128,-1,9
 227 17 227 17 201 5.5 c 128,-1,10
 175 -6 175 -6 145 -6 c 256,11,12
 115 -6 115 -6 88.5 5.5 c 128,-1,13
 62 17 62 17 42.5 36.5 c 128,-1,14
 23 56 23 56 11.5 82.5 c 128,-1,15
 0 109 0 109 0 139 c 2,16,-1
 0 534 l 2,17,18
 0 564 0 564 11.5 590.5 c 128,-1,19
 23 617 23 617 42.5 636.5 c 128,-1,20
 62 656 62 656 88.5 667.5 c 128,-1,21
 115 679 115 679 145 679 c 256,22,23
 175 679 175 679 201 667.5 c 128,-1,24
 227 656 227 656 246.5 636.5 c 128,-1,25
 266 617 266 617 277.5 590.5 c 128,-1,26
 289 564 289 564 289 534 c 1,27,-1
 256 534 l 1,28,29
 256 557 256 557 247 577 c 128,-1,30
 238 597 238 597 223 612 c 128,-1,31
 208 627 208 627 188 636 c 128,-1,32
 168 645 168 645 145 645 c 256,33,34
 122 645 122 645 101.5 636 c 128,-1,35
 81 627 81 627 66 612 c 128,-1,36
 51 597 51 597 42 577 c 128,-1,37
 33 557 33 557 33 534 c 2,38,-1
 33 139 l 2,39,40
 33 116 33 116 42 95.5 c 128,-1,41
 51 75 51 75 66 60 c 128,-1,42
 81 45 81 45 101.5 36 c 128,-1,43
 122 27 122 27 145 27 c 256,0,1
EndSplineSet
Validated: 1
EndChar

StartChar: D
Encoding: 68 68 42
Width: 353
Flags: W
LayerCount: 2
Fore
SplineSet
138 675 m 2,0,1
 168 675 168 675 194.5 664 c 128,-1,2
 221 653 221 653 240.5 633.5 c 128,-1,3
 260 614 260 614 271.5 588 c 128,-1,4
 283 562 283 562 283 532 c 2,5,-1
 283 142 l 2,6,7
 283 112 283 112 271.5 86 c 128,-1,8
 260 60 260 60 240.5 40.5 c 128,-1,9
 221 21 221 21 194.5 10 c 128,-1,10
 168 -1 168 -1 138 -1 c 2,11,-1
 33 -1 l 1,12,-1
 25 -1 l 1,13,-1
 0 -1 l 1,14,-1
 0 675 l 1,15,-1
 25 675 l 1,16,-1
 33 675 l 1,17,-1
 138 675 l 2,0,1
249 532 m 2,18,19
 249 555 249 555 240 575 c 128,-1,20
 231 595 231 595 216 610 c 128,-1,21
 201 625 201 625 181 633.5 c 128,-1,22
 161 642 161 642 138 642 c 2,23,-1
 33 642 l 1,24,-1
 33 32 l 1,25,-1
 138 32 l 2,26,27
 161 32 161 32 181 40.5 c 128,-1,28
 201 49 201 49 216 64 c 128,-1,29
 231 79 231 79 240 99 c 128,-1,30
 249 119 249 119 249 142 c 2,31,-1
 249 532 l 2,18,19
EndSplineSet
Validated: 1
EndChar

StartChar: E
Encoding: 69 69 43
Width: 313
Flags: W
LayerCount: 2
Fore
SplineSet
263 641 m 1,0,-1
 33 641 l 1,1,-1
 33 386 l 1,2,-1
 222 386 l 1,3,-1
 222 353 l 1,4,-1
 33 353 l 1,5,-1
 33 32 l 1,6,-1
 263 32 l 1,7,-1
 263 -1 l 1,8,-1
 33 -1 l 1,9,-1
 0 -1 l 1,10,-1
 0 -1 l 1,11,-1
 0 675 l 1,12,-1
 0 675 l 1,13,-1
 33 675 l 1,14,-1
 263 675 l 1,15,-1
 263 641 l 1,16,-1
 263 641 l 1,0,-1
EndSplineSet
Validated: 5
EndChar

StartChar: F
Encoding: 70 70 44
Width: 313
Flags: W
LayerCount: 2
Fore
SplineSet
263 641 m 1,0,-1
 33 641 l 1,1,-1
 33 386 l 1,2,-1
 222 386 l 1,3,-1
 222 353 l 1,4,-1
 33 353 l 1,5,-1
 33 -1 l 1,6,-1
 0 -1 l 1,7,-1
 0 675 l 1,8,-1
 0 675 l 1,9,-1
 33 675 l 1,10,-1
 263 675 l 1,11,-1
 263 641 l 1,12,-1
 263 641 l 1,0,-1
EndSplineSet
Validated: 5
EndChar

StartChar: G
Encoding: 71 71 45
Width: 359
Flags: W
LayerCount: 2
Fore
SplineSet
256 380 m 1,0,-1
 289 380 l 1,1,-1
 289 347 l 1,2,-1
 289 246 l 1,3,-1
 289 139 l 1,4,-1
 289 128 l 2,5,6
 287 100 287 100 275 75.5 c 128,-1,7
 263 51 263 51 243.5 33 c 128,-1,8
 224 15 224 15 198.5 4.5 c 128,-1,9
 173 -6 173 -6 145 -6 c 0,10,11
 115 -6 115 -6 88.5 5.5 c 128,-1,12
 62 17 62 17 42.5 36.5 c 128,-1,13
 23 56 23 56 11.5 82.5 c 128,-1,14
 0 109 0 109 0 139 c 2,15,-1
 0 534 l 2,16,17
 0 564 0 564 11.5 590.5 c 128,-1,18
 23 617 23 617 42.5 636.5 c 128,-1,19
 62 656 62 656 88.5 667.5 c 128,-1,20
 115 679 115 679 145 679 c 256,21,22
 175 679 175 679 201 667.5 c 128,-1,23
 227 656 227 656 246.5 636.5 c 128,-1,24
 266 617 266 617 277.5 590.5 c 128,-1,25
 289 564 289 564 289 534 c 1,26,-1
 256 534 l 1,27,28
 256 557 256 557 247 577 c 128,-1,29
 238 597 238 597 223 612 c 128,-1,30
 208 627 208 627 188 636 c 128,-1,31
 168 645 168 645 145 645 c 256,32,33
 122 645 122 645 101.5 636 c 128,-1,34
 81 627 81 627 66 612 c 128,-1,35
 51 597 51 597 42 577 c 128,-1,36
 33 557 33 557 33 534 c 2,37,-1
 33 139 l 2,38,39
 33 116 33 116 42 95.5 c 128,-1,40
 51 75 51 75 66 60 c 128,-1,41
 81 45 81 45 101.5 36 c 128,-1,42
 122 27 122 27 145 27 c 256,43,44
 168 27 168 27 188 36 c 128,-1,45
 208 45 208 45 223 60 c 128,-1,46
 238 75 238 75 247 95.5 c 128,-1,47
 256 116 256 116 256 139 c 2,48,-1
 256 246 l 1,49,-1
 256 347 l 1,50,-1
 120 347 l 1,51,-1
 120 380 l 1,52,-1
 256 380 l 1,0,-1
EndSplineSet
Validated: 1
EndChar

StartChar: H
Encoding: 72 72 46
Width: 353
Flags: W
LayerCount: 2
Fore
SplineSet
250 675 m 1,0,-1
 283 675 l 1,1,-1
 283 386 l 1,2,-1
 283 353 l 1,3,-1
 283 -1 l 1,4,-1
 250 -1 l 1,5,-1
 250 353 l 1,6,-1
 33 353 l 1,7,-1
 33 -1 l 1,8,-1
 0 -1 l 1,9,-1
 0 675 l 1,10,-1
 33 675 l 1,11,-1
 33 386 l 1,12,-1
 250 386 l 1,13,-1
 250 675 l 1,14,-1
 250 675 l 1,0,-1
EndSplineSet
Validated: 5
EndChar

StartChar: I
Encoding: 73 73 47
Width: 103
Flags: W
LayerCount: 2
Fore
SplineSet
33 -1 m 1,0,-1
 0 -1 l 1,1,-1
 0 675 l 1,2,-1
 33 675 l 1,3,-1
 33 -1 l 1,4,-1
 33 -1 l 1,0,-1
EndSplineSet
Validated: 5
EndChar

StartChar: J
Encoding: 74 74 48
Width: 359
Flags: W
LayerCount: 2
Fore
SplineSet
289 675 m 1,0,-1
 289 641 l 1,1,-1
 289 481 l 1,2,-1
 289 446 l 1,3,-1
 289 139 l 2,4,5
 289 109 289 109 277.5 82.5 c 128,-1,6
 266 56 266 56 246.5 36.5 c 128,-1,7
 227 17 227 17 201 5.5 c 128,-1,8
 175 -6 175 -6 145 -6 c 256,9,10
 115 -6 115 -6 88.5 5.5 c 128,-1,11
 62 17 62 17 42.5 36.5 c 128,-1,12
 23 56 23 56 11.5 82.5 c 128,-1,13
 0 109 0 109 0 139 c 2,14,-1
 0 246 l 1,15,-1
 33 246 l 1,16,-1
 33 139 l 2,17,18
 33 116 33 116 42 95.5 c 128,-1,19
 51 75 51 75 66 60 c 128,-1,20
 81 45 81 45 101.5 36 c 128,-1,21
 122 27 122 27 145 27 c 256,22,23
 168 27 168 27 188 36 c 128,-1,24
 208 45 208 45 223 60 c 128,-1,25
 238 75 238 75 247 95.5 c 128,-1,26
 256 116 256 116 256 139 c 2,27,-1
 256 446 l 1,28,-1
 256 481 l 1,29,-1
 256 641 l 1,30,-1
 76 641 l 1,31,-1
 76 675 l 1,32,-1
 256 675 l 1,33,-1
 289 675 l 1,0,-1
EndSplineSet
Validated: 1
EndChar

StartChar: K
Encoding: 75 75 49
Width: 352
Flags: W
LayerCount: 2
Fore
SplineSet
285 -1 m 1,0,-1
 110 334 l 1,1,-1
 33 334 l 1,2,-1
 33 -1 l 1,3,-1
 0 -1 l 1,4,-1
 0 675 l 1,5,-1
 33 675 l 1,6,-1
 33 368 l 1,7,-1
 110 368 l 1,8,-1
 270 675 l 1,9,-1
 307 675 l 1,10,-1
 139 351 l 1,11,-1
 322 -1 l 1,12,-1
 285 -1 l 1,13,-1
 285 -1 l 1,0,-1
EndSplineSet
Validated: 5
EndChar

StartChar: L
Encoding: 76 76 50
Width: 277
Flags: W
LayerCount: 2
Fore
SplineSet
33 32 m 1,0,-1
 247 32 l 1,1,-1
 247 -1 l 1,2,-1
 33 -1 l 1,3,-1
 0 -1 l 1,4,-1
 0 -1 l 1,5,-1
 0 675 l 1,6,-1
 33 675 l 1,7,-1
 33 32 l 1,8,-1
 33 32 l 1,0,-1
EndSplineSet
Validated: 5
EndChar

StartChar: M
Encoding: 77 77 51
Width: 471
Flags: W
LayerCount: 2
Fore
SplineSet
367 675 m 1,0,-1
 401 675 l 1,1,-1
 401 -1 l 1,2,-1
 368 -1 l 1,3,-1
 368 581 l 1,4,-1
 201 122 l 1,5,-1
 33 581 l 1,6,-1
 33 -1 l 1,7,-1
 0 -1 l 1,8,-1
 0 675 l 1,9,-1
 34 675 l 1,10,-1
 201 219 l 1,11,-1
 367 675 l 1,12,-1
 367 675 l 1,0,-1
EndSplineSet
Validated: 5
EndChar

StartChar: N
Encoding: 78 78 52
Width: 348
Flags: W
LayerCount: 2
Fore
SplineSet
245 675 m 1,0,-1
 278 675 l 1,1,-1
 278 -1 l 1,2,-1
 245 -1 l 1,3,-1
 33 583 l 1,4,-1
 33 -1 l 1,5,-1
 0 -1 l 1,6,-1
 0 675 l 1,7,-1
 33 675 l 1,8,-1
 245 91 l 1,9,-1
 245 675 l 1,10,-1
 245 675 l 1,0,-1
EndSplineSet
Validated: 5
EndChar

StartChar: O
Encoding: 79 79 53
Width: 359
Flags: W
LayerCount: 2
Fore
SplineSet
145 -6 m 256,0,1
 115 -6 115 -6 88.5 5.5 c 128,-1,2
 62 17 62 17 42.5 36.5 c 128,-1,3
 23 56 23 56 11.5 82.5 c 128,-1,4
 0 109 0 109 0 139 c 2,5,-1
 0 534 l 2,6,7
 0 564 0 564 11.5 590.5 c 128,-1,8
 23 617 23 617 42.5 636.5 c 128,-1,9
 62 656 62 656 88.5 667.5 c 128,-1,10
 115 679 115 679 145 679 c 256,11,12
 175 679 175 679 201 667.5 c 128,-1,13
 227 656 227 656 246.5 636.5 c 128,-1,14
 266 617 266 617 277.5 590.5 c 128,-1,15
 289 564 289 564 289 534 c 2,16,-1
 289 139 l 2,17,18
 289 109 289 109 277.5 82.5 c 128,-1,19
 266 56 266 56 246.5 36.5 c 128,-1,20
 227 17 227 17 201 5.5 c 128,-1,21
 175 -6 175 -6 145 -6 c 256,0,1
145 645 m 256,22,23
 122 645 122 645 101.5 636 c 128,-1,24
 81 627 81 627 66 612 c 128,-1,25
 51 597 51 597 42 577 c 128,-1,26
 33 557 33 557 33 534 c 2,27,-1
 33 139 l 2,28,29
 33 116 33 116 42 95.5 c 128,-1,30
 51 75 51 75 66 60 c 128,-1,31
 81 45 81 45 101.5 36 c 128,-1,32
 122 27 122 27 145 27 c 256,33,34
 168 27 168 27 188 36 c 128,-1,35
 208 45 208 45 223 60 c 128,-1,36
 238 75 238 75 247 95.5 c 128,-1,37
 256 116 256 116 256 139 c 2,38,-1
 256 534 l 2,39,40
 256 557 256 557 247 577 c 128,-1,41
 238 597 238 597 223 612 c 128,-1,42
 208 627 208 627 188 636 c 128,-1,43
 168 645 168 645 145 645 c 256,22,23
EndSplineSet
Validated: 1
EndChar

StartChar: P
Encoding: 80 80 54
Width: 344
Flags: W
LayerCount: 2
Fore
SplineSet
132 675 m 2,0,1
 162 675 162 675 187.5 663.5 c 128,-1,2
 213 652 213 652 232.5 632.5 c 128,-1,3
 252 613 252 613 263 587 c 128,-1,4
 274 561 274 561 274 532 c 2,5,-1
 274 394 l 2,6,7
 274 365 274 365 263.5 340 c 128,-1,8
 253 315 253 315 234.5 296 c 128,-1,9
 216 277 216 277 191.5 265 c 128,-1,10
 167 253 167 253 139 251 c 2,11,-1
 134 251 l 1,12,-1
 130 251 l 1,13,-1
 33 251 l 1,14,-1
 33 -1 l 1,15,-1
 0 -1 l 1,16,-1
 0 675 l 1,17,-1
 17 675 l 1,18,-1
 33 675 l 1,19,-1
 132 675 l 2,0,1
241 532 m 2,20,21
 241 554 241 554 232 574 c 128,-1,22
 223 594 223 594 208 609 c 128,-1,23
 193 624 193 624 173 633 c 128,-1,24
 153 642 153 642 130 642 c 2,25,-1
 33 642 l 1,26,-1
 33 284 l 1,27,-1
 132 284 l 2,28,29
 155 284 155 284 175 293 c 128,-1,30
 195 302 195 302 209.5 317 c 128,-1,31
 224 332 224 332 232.5 351.5 c 128,-1,32
 241 371 241 371 241 394 c 2,33,-1
 241 532 l 2,20,21
EndSplineSet
Validated: 1
EndChar

StartChar: Q
Encoding: 81 81 55
Width: 359
Flags: W
LayerCount: 2
Fore
SplineSet
145 679 m 256,0,1
 175 679 175 679 201 667.5 c 128,-1,2
 227 656 227 656 246.5 636.5 c 128,-1,3
 266 617 266 617 277.5 590.5 c 128,-1,4
 289 564 289 564 289 534 c 2,5,-1
 289 139 l 2,6,7
 289 111 289 111 279 86 c 128,-1,8
 269 61 269 61 252 42 c 128,-1,9
 235 23 235 23 211.5 10.5 c 128,-1,10
 188 -2 188 -2 161 -5 c 1,11,-1
 161 -92 l 1,12,-1
 128 -92 l 1,13,-1
 128 -5 l 1,14,15
 101 -2 101 -2 77.5 10.5 c 128,-1,16
 54 23 54 23 37 42 c 128,-1,17
 20 61 20 61 10 86 c 128,-1,18
 0 111 0 111 0 139 c 2,19,-1
 0 534 l 2,20,21
 0 564 0 564 11.5 590.5 c 128,-1,22
 23 617 23 617 42.5 636.5 c 128,-1,23
 62 656 62 656 88.5 667.5 c 128,-1,24
 115 679 115 679 145 679 c 256,0,1
256 534 m 2,25,26
 256 557 256 557 247 577 c 128,-1,27
 238 597 238 597 223 612 c 128,-1,28
 208 627 208 627 188 636 c 128,-1,29
 168 645 168 645 145 645 c 256,30,31
 122 645 122 645 101.5 636 c 128,-1,32
 81 627 81 627 66 612 c 128,-1,33
 51 597 51 597 42 577 c 128,-1,34
 33 557 33 557 33 534 c 2,35,-1
 33 139 l 2,36,37
 33 97 33 97 60 66 c 128,-1,38
 87 35 87 35 128 28 c 1,39,-1
 128 246 l 1,40,-1
 161 246 l 1,41,-1
 161 28 l 1,42,43
 202 35 202 35 229 66 c 128,-1,44
 256 97 256 97 256 139 c 2,45,-1
 256 534 l 2,25,26
EndSplineSet
Validated: 1
EndChar

StartChar: R
Encoding: 82 82 56
Width: 342
Flags: W
LayerCount: 2
Fore
SplineSet
115 284 m 1,0,-1
 33 284 l 1,1,-1
 33 -1 l 1,2,-1
 0 -1 l 1,3,-1
 0 284 l 1,4,-1
 0 317 l 1,5,-1
 0 642 l 1,6,-1
 0 675 l 1,7,-1
 33 675 l 1,8,-1
 122 675 l 2,9,10
 152 675 152 675 178.5 664 c 128,-1,11
 205 653 205 653 224.5 633.5 c 128,-1,12
 244 614 244 614 255.5 588 c 128,-1,13
 267 562 267 562 267 532 c 2,14,-1
 267 514 l 1,15,-1
 267 427 l 2,16,17
 267 401 267 401 258 378 c 128,-1,18
 249 355 249 355 233 336 c 128,-1,19
 217 317 217 317 196 304.5 c 128,-1,20
 175 292 175 292 150 287 c 1,21,-1
 272 -1 l 1,22,-1
 236 -1 l 1,23,-1
 115 284 l 1,0,-1
33 317 m 1,24,-1
 122 317 l 2,25,26
 145 317 145 317 165 325.5 c 128,-1,27
 185 334 185 334 200 349 c 128,-1,28
 215 364 215 364 224 384 c 128,-1,29
 233 404 233 404 233 427 c 2,30,-1
 233 514 l 1,31,-1
 233 532 l 2,32,33
 233 554 233 554 224 574 c 128,-1,34
 215 594 215 594 200 609 c 128,-1,35
 185 624 185 624 165 633 c 128,-1,36
 145 642 145 642 122 642 c 2,37,-1
 33 642 l 1,38,-1
 33 317 l 1,24,-1
EndSplineSet
Validated: 1
EndChar

StartChar: S
Encoding: 83 83 57
Width: 359
Flags: W
LayerCount: 2
Fore
SplineSet
152 356 m 0,0,1
 177 336 177 336 201.5 314.5 c 128,-1,2
 226 293 226 293 245.5 267.5 c 128,-1,3
 265 242 265 242 277 210.5 c 128,-1,4
 289 179 289 179 289 139 c 0,5,6
 289 109 289 109 277.5 82.5 c 128,-1,7
 266 56 266 56 246.5 36.5 c 128,-1,8
 227 17 227 17 201 5.5 c 128,-1,9
 175 -6 175 -6 145 -6 c 256,10,11
 115 -6 115 -6 88.5 5.5 c 128,-1,12
 62 17 62 17 42.5 36.5 c 128,-1,13
 23 56 23 56 11.5 82.5 c 128,-1,14
 0 109 0 109 0 139 c 1,15,-1
 33 139 l 1,16,17
 33 116 33 116 42 95.5 c 128,-1,18
 51 75 51 75 66 60 c 128,-1,19
 81 45 81 45 101.5 36 c 128,-1,20
 122 27 122 27 145 27 c 256,21,22
 168 27 168 27 188 36 c 128,-1,23
 208 45 208 45 223 60 c 128,-1,24
 238 75 238 75 247 95.5 c 128,-1,25
 256 116 256 116 256 139 c 0,26,27
 256 173 256 173 245.5 200 c 128,-1,28
 235 227 235 227 217.5 249.5 c 128,-1,29
 200 272 200 272 177.5 291.5 c 128,-1,30
 155 311 155 311 131 330 c 256,31,32
 107 349 107 349 83.5 369.5 c 128,-1,33
 60 390 60 390 41.5 414 c 128,-1,34
 23 438 23 438 11.5 467 c 128,-1,35
 0 496 0 496 0 534 c 0,36,37
 0 564 0 564 11.5 590.5 c 128,-1,38
 23 617 23 617 42.5 636.5 c 128,-1,39
 62 656 62 656 88.5 667.5 c 128,-1,40
 115 679 115 679 145 679 c 256,41,42
 175 679 175 679 201 667.5 c 128,-1,43
 227 656 227 656 246.5 636.5 c 128,-1,44
 266 617 266 617 277.5 590.5 c 128,-1,45
 289 564 289 564 289 534 c 1,46,-1
 256 534 l 1,47,48
 256 557 256 557 247 577 c 128,-1,49
 238 597 238 597 223 612 c 128,-1,50
 208 627 208 627 188 636 c 128,-1,51
 168 645 168 645 145 645 c 256,52,53
 122 645 122 645 101.5 636 c 128,-1,54
 81 627 81 627 66 612 c 128,-1,55
 51 597 51 597 42 577 c 128,-1,56
 33 557 33 557 33 534 c 0,57,58
 33 502 33 502 43 477.5 c 128,-1,59
 53 453 53 453 69.5 432 c 128,-1,60
 86 411 86 411 107.5 392.5 c 128,-1,61
 129 374 129 374 152 356 c 0,0,1
EndSplineSet
Validated: 1
EndChar

StartChar: T
Encoding: 84 84 58
Width: 303
Flags: W
LayerCount: 2
Fore
SplineSet
263 675 m 1,0,-1
 263 641 l 1,1,-1
 128 641 l 1,2,-1
 128 -1 l 1,3,-1
 95 -1 l 1,4,-1
 95 641 l 1,5,-1
 -40 641 l 1,6,-1
 -40 675 l 1,7,-1
 95 675 l 1,8,-1
 128 675 l 1,9,-1
 263 675 l 1,10,-1
 263 675 l 1,0,-1
EndSplineSet
Validated: 5
EndChar

StartChar: U
Encoding: 85 85 59
Width: 359
Flags: W
LayerCount: 2
Fore
SplineSet
289 675 m 1,0,-1
 289 387 l 1,1,-1
 289 370 l 1,2,-1
 289 140 l 2,3,4
 289 110 289 110 277.5 83.5 c 128,-1,5
 266 57 266 57 246.5 37.5 c 128,-1,6
 227 18 227 18 201 6.5 c 128,-1,7
 175 -5 175 -5 145 -5 c 256,8,9
 115 -5 115 -5 88.5 6.5 c 128,-1,10
 62 18 62 18 42.5 37.5 c 128,-1,11
 23 57 23 57 11.5 83.5 c 128,-1,12
 0 110 0 110 0 140 c 2,13,-1
 0 370 l 1,14,-1
 0 387 l 1,15,-1
 0 675 l 1,16,-1
 33 675 l 1,17,-1
 33 387 l 1,18,-1
 33 370 l 1,19,-1
 33 140 l 2,20,21
 33 117 33 117 42 96.5 c 128,-1,22
 51 76 51 76 66 61 c 128,-1,23
 81 46 81 46 101.5 37 c 128,-1,24
 122 28 122 28 145 28 c 256,25,26
 168 28 168 28 188 37 c 128,-1,27
 208 46 208 46 223 61 c 128,-1,28
 238 76 238 76 247 96.5 c 128,-1,29
 256 117 256 117 256 140 c 2,30,-1
 256 370 l 1,31,-1
 256 387 l 1,32,-1
 256 675 l 1,33,-1
 289 675 l 1,0,-1
EndSplineSet
Validated: 1
EndChar

StartChar: V
Encoding: 86 86 60
Width: 387
Flags: W
LayerCount: 2
Fore
SplineSet
303 675 m 1,0,-1
 337 675 l 1,1,-1
 190 -1 l 1,2,-1
 146 -1 l 1,3,-1
 0 675 l 1,4,-1
 34 675 l 1,5,-1
 168 54 l 1,6,-1
 303 675 l 1,7,-1
 303 675 l 1,0,-1
EndSplineSet
Validated: 5
EndChar

StartChar: W
Encoding: 87 87 61
Width: 623
Flags: W
LayerCount: 2
Fore
SplineSet
539 675 m 1,0,-1
 573 675 l 1,1,-1
 427 -1 l 1,2,-1
 377 -1 l 1,3,-1
 286 602 l 1,4,-1
 196 -1 l 1,5,-1
 146 -1 l 1,6,-1
 0 675 l 1,7,-1
 34 675 l 1,8,-1
 170 48 l 1,9,-1
 264 675 l 1,10,-1
 309 675 l 1,11,-1
 403 48 l 1,12,-1
 539 675 l 1,13,-1
 539 675 l 1,0,-1
EndSplineSet
Validated: 5
EndChar

StartChar: X
Encoding: 88 88 62
Width: 351
Flags: W
LayerCount: 2
Fore
SplineSet
0 -1 m 1,0,-1
 132 339 l 1,1,-1
 2 675 l 1,2,-1
 37 675 l 1,3,-1
 150 385 l 1,4,-1
 263 675 l 1,5,-1
 299 675 l 1,6,-1
 168 339 l 1,7,-1
 301 -1 l 1,8,-1
 265 -1 l 1,9,-1
 150 293 l 1,10,-1
 36 -1 l 1,11,-1
 0 -1 l 1,12,-1
 0 -1 l 1,0,-1
EndSplineSet
Validated: 5
EndChar

StartChar: Y
Encoding: 89 89 63
Width: 327
Flags: W
LayerCount: 2
Fore
SplineSet
241 675 m 1,0,-1
 277 675 l 1,1,-1
 146 339 l 1,2,-1
 145 336 l 1,3,-1
 145 -1 l 1,4,-1
 112 -1 l 1,5,-1
 112 336 l 1,6,-1
 111 339 l 1,7,-1
 -20 675 l 1,8,-1
 16 675 l 1,9,-1
 128 385 l 1,10,-1
 241 675 l 1,11,-1
 241 675 l 1,0,-1
EndSplineSet
Validated: 5
EndChar

StartChar: Z
Encoding: 90 90 64
Width: 321
Flags: W
LayerCount: 2
Fore
SplineSet
271 641 m 1,0,-1
 33 32 l 1,1,-1
 271 32 l 1,2,-1
 271 -1 l 1,3,-1
 0 -1 l 1,4,-1
 0 32 l 1,5,-1
 0 32 l 1,6,-1
 238 641 l 1,7,-1
 0 641 l 1,8,-1
 0 675 l 1,9,-1
 271 675 l 1,10,-1
 271 641 l 1,11,-1
 271 641 l 1,12,-1
 271 641 l 1,0,-1
EndSplineSet
Validated: 5
EndChar

StartChar: quotesingle
Encoding: 39 39 65
Width: 133
Flags: W
LayerCount: 2
Fore
SplineSet
33 531 m 1,0,-1
 0 531 l 1,1,-1
 0 714 l 1,2,-1
 33 714 l 1,3,-1
 33 531 l 1,4,-1
 33 531 l 1,0,-1
EndSplineSet
Validated: 5
EndChar

StartChar: quotedbl
Encoding: 34 34 66
Width: 184
Flags: W
LayerCount: 2
Fore
SplineSet
33 532 m 1,0,-1
 0 532 l 1,1,-1
 0 715 l 1,2,-1
 33 715 l 1,3,-1
 33 532 l 1,4,-1
 33 532 l 1,0,-1
114 532 m 1,5,-1
 81 532 l 1,6,-1
 81 715 l 1,7,-1
 114 715 l 1,8,-1
 114 532 l 1,9,-1
 114 532 l 1,5,-1
EndSplineSet
Validated: 5
EndChar

StartChar: asterisk
Encoding: 42 42 67
Width: 255
Flags: W
LayerCount: 2
Fore
SplineSet
185 612 m 1,0,-1
 125 578 l 1,1,-1
 185 544 l 1,2,-1
 168 515 l 1,3,-1
 109 549 l 1,4,-1
 109 481 l 1,5,-1
 76 481 l 1,6,-1
 76 549 l 1,7,-1
 17 515 l 1,8,-1
 0 544 l 1,9,-1
 59 578 l 1,10,-1
 0 612 l 1,11,-1
 17 641 l 1,12,-1
 76 606 l 1,13,-1
 76 675 l 1,14,-1
 109 675 l 1,15,-1
 109 606 l 1,16,-1
 168 641 l 1,17,-1
 185 612 l 1,18,-1
 185 612 l 1,0,-1
EndSplineSet
Validated: 5
EndChar

StartChar: plus
Encoding: 43 43 68
Width: 417
Flags: W
LayerCount: 2
Fore
SplineSet
347 335 m 1,0,-1
 347 302 l 1,1,-1
 190 302 l 1,2,-1
 190 145 l 1,3,-1
 157 145 l 1,4,-1
 157 302 l 1,5,-1
 0 302 l 1,6,-1
 0 335 l 1,7,-1
 157 335 l 1,8,-1
 157 492 l 1,9,-1
 190 492 l 1,10,-1
 190 335 l 1,11,-1
 347 335 l 1,12,-1
 347 335 l 1,0,-1
EndSplineSet
Validated: 5
EndChar

StartChar: divide
Encoding: 247 247 69
Width: 417
Flags: W
LayerCount: 2
Fore
SplineSet
347 302 m 1,0,-1
 0 302 l 1,1,-1
 0 335 l 1,2,-1
 347 335 l 1,3,-1
 347 302 l 1,0,-1
210 456 m 256,4,5
 210 441 210 441 199 430.5 c 128,-1,6
 188 420 188 420 174 420 c 0,7,8
 159 420 159 420 148 430.5 c 128,-1,9
 137 441 137 441 137 456 c 256,10,11
 137 471 137 471 148 481.5 c 128,-1,12
 159 492 159 492 174 492 c 0,13,14
 188 492 188 492 199 481.5 c 128,-1,15
 210 471 210 471 210 456 c 256,4,5
210 181 m 256,16,17
 210 166 210 166 199 155.5 c 128,-1,18
 188 145 188 145 174 145 c 0,19,20
 159 145 159 145 148 155.5 c 128,-1,21
 137 166 137 166 137 181 c 256,22,23
 137 196 137 196 148 206.5 c 128,-1,24
 159 217 159 217 174 217 c 0,25,26
 188 217 188 217 199 206.5 c 128,-1,27
 210 196 210 196 210 181 c 256,16,17
EndSplineSet
Validated: 1
EndChar

StartChar: hyphen
Encoding: 45 45 70
Width: 318
Flags: W
LayerCount: 2
Fore
SplineSet
218 302 m 1,0,-1
 0 302 l 1,1,-1
 0 335 l 1,2,-1
 218 335 l 1,3,-1
 218 302 l 1,4,-1
 218 302 l 1,0,-1
EndSplineSet
Validated: 5
EndChar

StartChar: multiply
Encoding: 215 215 71
Width: 339
Flags: W
LayerCount: 2
Fore
SplineSet
269 430 m 1,0,-1
 158 319 l 1,1,-1
 269 208 l 1,2,-1
 245 184 l 1,3,-1
 134 295 l 1,4,-1
 23 184 l 1,5,-1
 0 208 l 1,6,-1
 111 319 l 1,7,-1
 0 430 l 1,8,-1
 23 453 l 1,9,-1
 134 342 l 1,10,-1
 245 453 l 1,11,-1
 269 430 l 1,12,-1
 269 430 l 1,0,-1
EndSplineSet
Validated: 5
EndChar

StartChar: ampersand
Encoding: 38 38 72
Width: 533
Flags: W
LayerCount: 2
Fore
SplineSet
395 108 m 1,0,1
 421 67 421 67 439 38 c 128,-1,2
 457 9 457 9 463 -1 c 1,3,-1
 424 -1 l 1,4,5
 416 13 416 13 403.5 32.5 c 128,-1,6
 391 52 391 52 376 76 c 1,7,8
 316 -6 316 -6 196 -6 c 0,9,10
 155 -6 155 -6 119.5 9.5 c 128,-1,11
 84 25 84 25 57.5 51.5 c 128,-1,12
 31 78 31 78 15.5 113.5 c 128,-1,13
 0 149 0 149 0 190 c 256,14,15
 0 231 0 231 14.5 262 c 128,-1,16
 29 293 29 293 52.5 317.5 c 128,-1,17
 76 342 76 342 105 361.5 c 128,-1,18
 134 381 134 381 163 399 c 0,19,20
 165 400 165 400 166 401 c 128,-1,21
 167 402 167 402 169 403 c 1,22,23
 152 430 152 430 141 447.5 c 128,-1,24
 130 465 130 465 127 470 c 0,25,26
 110 496 110 496 103 514.5 c 128,-1,27
 96 533 96 533 96 560 c 0,28,29
 96 584 96 584 105.5 606 c 128,-1,30
 115 628 115 628 131 644 c 128,-1,31
 147 660 147 660 168.5 669.5 c 128,-1,32
 190 679 190 679 214 679 c 256,33,34
 238 679 238 679 259.5 669.5 c 128,-1,35
 281 660 281 660 297 644 c 128,-1,36
 313 628 313 628 322.5 606 c 128,-1,37
 332 584 332 584 332 560 c 0,38,39
 332 530 332 530 322.5 505.5 c 128,-1,40
 313 481 313 481 297 461 c 128,-1,41
 281 441 281 441 259.5 424.5 c 128,-1,42
 238 408 238 408 215 393 c 1,43,44
 232 366 232 366 251.5 334.5 c 128,-1,45
 271 303 271 303 292 270 c 128,-1,46
 313 237 313 237 333.5 204 c 128,-1,47
 354 171 354 171 374 141 c 1,48,49
 402 210 402 210 402 327 c 1,50,-1
 436 327 l 1,51,52
 436 188 436 188 395 108 c 1,0,1
154 488 m 0,53,54
 158 483 158 483 169 465.5 c 128,-1,55
 180 448 180 448 197 421 c 1,56,57
 239 448 239 448 269 480 c 128,-1,58
 299 512 299 512 299 560 c 0,59,60
 299 595 299 595 274 620 c 128,-1,61
 249 645 249 645 214 645 c 256,62,63
 179 645 179 645 154 620 c 128,-1,64
 129 595 129 595 129 560 c 0,65,66
 129 541 129 541 134 526.5 c 128,-1,67
 139 512 139 512 154 488 c 0,53,54
196 27 m 0,68,69
 306 27 306 27 356 107 c 1,70,71
 336 138 336 138 314 173 c 128,-1,72
 292 208 292 208 269.5 243.5 c 128,-1,73
 247 279 247 279 226 312.5 c 128,-1,74
 205 346 205 346 187 375 c 0,75,76
 185 374 185 374 183.5 373 c 128,-1,77
 182 372 182 372 180 371 c 0,78,79
 152 353 152 353 125.5 335.5 c 128,-1,80
 99 318 99 318 78.5 297 c 128,-1,81
 58 276 58 276 45.5 250 c 128,-1,82
 33 224 33 224 33 190 c 256,83,84
 33 156 33 156 46 126.5 c 128,-1,85
 59 97 59 97 81 75 c 128,-1,86
 103 53 103 53 132.5 40 c 128,-1,87
 162 27 162 27 196 27 c 0,68,69
EndSplineSet
Validated: 1
EndChar

StartChar: at
Encoding: 64 64 73
Width: 682
Flags: W
LayerCount: 2
Fore
SplineSet
548 69 m 0,0,1
 520 41 520 41 482 19 c 0,2,3
 464 9 464 9 444.5 1 c 128,-1,4
 425 -7 425 -7 405 -12 c 0,5,6
 366 -22 366 -22 323 -22 c 0,7,8
 254 -22 254 -22 195 3 c 0,9,10
 138 28 138 28 93 73 c 0,11,12
 49 117 49 117 25 176 c 0,13,14
 0 235 0 235 0 303 c 0,15,16
 0 368 0 368 26 428 c 0,17,18
 50 486 50 486 95 529 c 0,19,20
 138 572 138 572 197 598 c 0,21,22
 253 623 253 623 319 623 c 0,23,24
 380 623 380 623 434 603 c 0,25,26
 487 584 487 584 527 547 c 0,27,28
 566 513 566 513 589 463 c 0,29,30
 612 416 612 416 612 355 c 0,31,32
 612 304 612 304 594 261 c 0,33,34
 576 215 576 215 547 182 c 0,35,36
 533 165 533 165 517 151.5 c 128,-1,37
 501 138 501 138 484 128 c 0,38,39
 450 109 450 109 417 109 c 0,40,41
 395 109 395 109 376 119 c 0,42,43
 356 128 356 128 350 148 c 2,44,-1
 345 161 l 1,45,-1
 336 152 l 2,46,47
 327 142 327 142 315.5 134.5 c 128,-1,48
 304 127 304 127 291 121 c 0,49,50
 263 110 263 110 238 110 c 0,51,52
 214 110 214 110 191 120 c 0,53,54
 171 129 171 129 155 146 c 0,55,56
 141 162 141 162 133 185 c 0,57,58
 125 205 125 205 125 233 c 0,59,60
 125 275 125 275 140 320 c 0,61,62
 148 343 148 343 158.5 363.5 c 128,-1,63
 169 384 169 384 183 403 c 0,64,65
 211 441 211 441 249 465 c 0,66,67
 286 489 286 489 333 489 c 0,68,69
 361 489 361 489 387 475 c 0,70,71
 412 462 412 462 424 436 c 2,72,-1
 432 417 l 1,73,-1
 450 471 l 1,74,-1
 491 471 l 1,75,-1
 407 219 l 2,76,77
 404 211 404 211 402 204 c 128,-1,78
 400 197 400 197 398 191 c 0,79,80
 395 176 395 176 396 166 c 0,81,82
 398 153 398 153 405 146 c 0,83,84
 412 138 412 138 429 138 c 0,85,86
 459 138 459 138 487 160 c 0,87,88
 514 180 514 180 533 213 c 0,89,90
 543 229 543 229 551 246.5 c 128,-1,91
 559 264 559 264 564 283 c 0,92,93
 576 322 576 322 576 358 c 0,94,95
 576 413 576 413 555 457 c 0,96,97
 533 503 533 503 499 532 c 0,98,99
 464 563 464 563 418 579 c 0,100,101
 372 596 372 596 321 596 c 0,102,103
 258 596 258 596 206 572 c 256,104,105
 154 548 154 548 116 507 c 256,106,107
 78 466 78 466 57 412 c 256,108,109
 36 358 36 358 36 297 c 0,110,111
 36 238 36 238 58 183 c 0,112,113
 81 130 81 130 119 90 c 0,114,115
 156 51 156 51 209 28 c 0,116,117
 263 5 263 5 323 5 c 0,118,119
 356 5 356 5 391 13 c 0,120,121
 424 20 424 20 456 37 c 0,122,123
 487 52 487 52 513 76 c 0,124,125
 538 97 538 97 558 124 c 1,126,-1
 592 124 l 1,127,128
 582 109 582 109 571.5 95 c 128,-1,129
 561 81 561 81 548 69 c 0,0,1
360 236 m 0,130,131
 370 254 370 254 378 273 c 128,-1,132
 386 292 386 292 392 312 c 0,133,134
 403 353 403 353 403 382 c 256,135,136
 403 411 403 411 385 432 c 0,137,138
 366 454 366 454 335 454 c 0,139,140
 298 454 298 454 267 431 c 0,141,142
 253 420 253 420 240.5 406.5 c 128,-1,143
 228 393 228 393 218 376 c 0,144,145
 207 359 207 359 199.5 341.5 c 128,-1,146
 192 324 192 324 186 306 c 0,147,148
 175 267 175 267 175 237 c 0,149,150
 175 202 175 202 194 177 c 0,151,152
 213 149 213 149 251 149 c 0,153,154
 284 149 284 149 313 176 c 0,155,156
 338 199 338 199 360 236 c 0,130,131
EndSplineSet
Validated: 1
EndChar

StartChar: zero
Encoding: 48 48 74
Width: 359
Flags: W
LayerCount: 2
Fore
SplineSet
145 -6 m 256,0,1
 115 -6 115 -6 88.5 5.5 c 128,-1,2
 62 17 62 17 42.5 36.5 c 128,-1,3
 23 56 23 56 11.5 82.5 c 128,-1,4
 0 109 0 109 0 139 c 2,5,-1
 0 534 l 2,6,7
 0 564 0 564 11.5 590.5 c 128,-1,8
 23 617 23 617 42.5 636.5 c 128,-1,9
 62 656 62 656 88.5 667.5 c 128,-1,10
 115 679 115 679 145 679 c 256,11,12
 175 679 175 679 201 667.5 c 128,-1,13
 227 656 227 656 246.5 636.5 c 128,-1,14
 266 617 266 617 277.5 590.5 c 128,-1,15
 289 564 289 564 289 534 c 2,16,-1
 289 139 l 2,17,18
 289 109 289 109 277.5 82.5 c 128,-1,19
 266 56 266 56 246.5 36.5 c 128,-1,20
 227 17 227 17 201 5.5 c 128,-1,21
 175 -6 175 -6 145 -6 c 256,0,1
145 645 m 256,22,23
 122 645 122 645 101.5 636 c 128,-1,24
 81 627 81 627 66 612 c 128,-1,25
 51 597 51 597 42 577 c 128,-1,26
 33 557 33 557 33 534 c 2,27,-1
 33 139 l 2,28,29
 33 116 33 116 42 95.5 c 128,-1,30
 51 75 51 75 66 60 c 128,-1,31
 81 45 81 45 101.5 36 c 128,-1,32
 122 27 122 27 145 27 c 256,33,34
 168 27 168 27 188 36 c 128,-1,35
 208 45 208 45 223 60 c 128,-1,36
 238 75 238 75 247 95.5 c 128,-1,37
 256 116 256 116 256 139 c 2,38,-1
 256 534 l 2,39,40
 256 557 256 557 247 577 c 128,-1,41
 238 597 238 597 223 612 c 128,-1,42
 208 627 208 627 188 636 c 128,-1,43
 168 645 168 645 145 645 c 256,22,23
EndSplineSet
Validated: 1
EndChar

StartChar: one
Encoding: 49 49 75
Width: 249
Flags: W
LayerCount: 2
Fore
SplineSet
130 32 m 1,0,-1
 179 32 l 1,1,-1
 179 -1 l 1,2,-1
 130 -1 l 1,3,-1
 97 -1 l 1,4,-1
 23 -1 l 1,5,-1
 23 32 l 1,6,-1
 97 32 l 1,7,-1
 97 639 l 1,8,-1
 12 605 l 1,9,-1
 0 636 l 1,10,-1
 97 674 l 1,11,-1
 97 675 l 1,12,-1
 130 675 l 1,13,-1
 130 32 l 1,14,-1
 130 32 l 1,0,-1
EndSplineSet
Validated: 5
EndChar

StartChar: two
Encoding: 50 50 76
Width: 359
Flags: W
LayerCount: 2
Fore
SplineSet
33 32 m 1,0,-1
 289 32 l 1,1,-1
 289 -1 l 1,2,-1
 33 -1 l 1,3,-1
 17 -1 l 1,4,-1
 0 -1 l 1,5,-1
 0 139 l 2,6,7
 0 179 0 179 12 210.5 c 128,-1,8
 24 242 24 242 43.5 267.5 c 128,-1,9
 63 293 63 293 87.5 314.5 c 128,-1,10
 112 336 112 336 137 356 c 0,11,12
 160 374 160 374 181.5 392.5 c 128,-1,13
 203 411 203 411 219.5 432 c 128,-1,14
 236 453 236 453 246 477.5 c 128,-1,15
 256 502 256 502 256 534 c 0,16,17
 256 557 256 557 247 577 c 128,-1,18
 238 597 238 597 223 612 c 128,-1,19
 208 627 208 627 188 636 c 128,-1,20
 168 645 168 645 145 645 c 256,21,22
 122 645 122 645 101.5 636 c 128,-1,23
 81 627 81 627 66 612 c 128,-1,24
 51 597 51 597 42 577 c 128,-1,25
 33 557 33 557 33 534 c 1,26,-1
 0 534 l 1,27,28
 0 564 0 564 11.5 590.5 c 128,-1,29
 23 617 23 617 42.5 636.5 c 128,-1,30
 62 656 62 656 88.5 667.5 c 128,-1,31
 115 679 115 679 145 679 c 256,32,33
 175 679 175 679 201 667.5 c 128,-1,34
 227 656 227 656 246.5 636.5 c 128,-1,35
 266 617 266 617 277.5 590.5 c 128,-1,36
 289 564 289 564 289 534 c 0,37,38
 289 496 289 496 277.5 467 c 128,-1,39
 266 438 266 438 247.5 414 c 128,-1,40
 229 390 229 390 205.5 369.5 c 128,-1,41
 182 349 182 349 158 330 c 256,42,43
 134 311 134 311 111.5 291.5 c 128,-1,44
 89 272 89 272 71.5 249.5 c 128,-1,45
 54 227 54 227 43.5 200 c 128,-1,46
 33 173 33 173 33 139 c 2,47,-1
 33 32 l 1,0,-1
EndSplineSet
Validated: 1
EndChar

StartChar: three
Encoding: 51 51 77
Width: 359
Flags: W
LayerCount: 2
Fore
SplineSet
289 464 m 1,0,1
 289 422 289 422 268 388 c 128,-1,2
 247 354 247 354 212 335 c 1,3,4
 247 317 247 317 268 283 c 128,-1,5
 289 249 289 249 289 207 c 2,6,-1
 289 139 l 2,7,8
 289 109 289 109 277.5 82.5 c 128,-1,9
 266 56 266 56 246.5 36.5 c 128,-1,10
 227 17 227 17 201 5.5 c 128,-1,11
 175 -6 175 -6 145 -6 c 256,12,13
 115 -6 115 -6 88.5 5.5 c 128,-1,14
 62 17 62 17 42.5 36.5 c 128,-1,15
 23 56 23 56 11.5 82.5 c 128,-1,16
 0 109 0 109 0 139 c 1,17,-1
 33 139 l 1,18,19
 33 116 33 116 42 95.5 c 128,-1,20
 51 75 51 75 66 60 c 128,-1,21
 81 45 81 45 101.5 36 c 128,-1,22
 122 27 122 27 145 27 c 256,23,24
 168 27 168 27 188 36 c 128,-1,25
 208 45 208 45 223 60 c 128,-1,26
 238 75 238 75 247 95.5 c 128,-1,27
 256 116 256 116 256 139 c 2,28,-1
 256 207 l 2,29,30
 256 230 256 230 247 250.5 c 128,-1,31
 238 271 238 271 223 286 c 128,-1,32
 208 301 208 301 188 310 c 128,-1,33
 168 319 168 319 145 319 c 2,34,-1
 109 319 l 1,35,-1
 109 352 l 1,36,-1
 145 352 l 2,37,38
 168 352 168 352 188 361 c 128,-1,39
 208 370 208 370 223 385 c 128,-1,40
 238 400 238 400 247 420.5 c 128,-1,41
 256 441 256 441 256 464 c 2,42,-1
 256 533 l 2,43,44
 256 556 256 556 247 576.5 c 128,-1,45
 238 597 238 597 223 612 c 128,-1,46
 208 627 208 627 188 636 c 128,-1,47
 168 645 168 645 145 645 c 256,48,49
 122 645 122 645 101.5 636 c 128,-1,50
 81 627 81 627 66 612 c 128,-1,51
 51 597 51 597 42 576.5 c 128,-1,52
 33 556 33 556 33 533 c 1,53,-1
 0 533 l 1,54,55
 0 563 0 563 11.5 589.5 c 128,-1,56
 23 616 23 616 42.5 636 c 128,-1,57
 62 656 62 656 88.5 667.5 c 128,-1,58
 115 679 115 679 145 679 c 256,59,60
 175 679 175 679 201 667.5 c 128,-1,61
 227 656 227 656 246.5 636 c 128,-1,62
 266 616 266 616 277.5 589.5 c 128,-1,63
 289 563 289 563 289 533 c 2,64,-1
 289 464 l 1,65,-1
 289 464 l 1,0,1
EndSplineSet
Validated: 5
EndChar

StartChar: four
Encoding: 52 52 78
Width: 326
Flags: W
LayerCount: 2
Fore
SplineSet
222 423 m 1,0,-1
 256 423 l 1,1,-1
 256 242 l 1,2,-1
 256 208 l 1,3,-1
 256 -1 l 1,4,-1
 222 -1 l 1,5,-1
 222 208 l 1,6,-1
 -20 208 l 1,7,-1
 -20 242 l 1,8,-1
 -20 242 l 1,9,-1
 154 675 l 1,10,-1
 191 675 l 1,11,-1
 16 242 l 1,12,-1
 222 242 l 1,13,-1
 222 423 l 1,14,-1
 222 423 l 1,0,-1
EndSplineSet
Validated: 5
EndChar

StartChar: five
Encoding: 53 53 79
Width: 359
Flags: W
LayerCount: 2
Fore
SplineSet
145 423 m 1,0,1
 175 423 175 423 201 411.5 c 128,-1,2
 227 400 227 400 246.5 380.5 c 128,-1,3
 266 361 266 361 277.5 334.5 c 128,-1,4
 289 308 289 308 289 278 c 2,5,-1
 289 139 l 2,6,7
 289 109 289 109 277.5 82.5 c 128,-1,8
 266 56 266 56 246.5 36.5 c 128,-1,9
 227 17 227 17 201 5.5 c 128,-1,10
 175 -6 175 -6 145 -6 c 256,11,12
 115 -6 115 -6 88.5 5.5 c 128,-1,13
 62 17 62 17 42.5 36.5 c 128,-1,14
 23 56 23 56 11.5 82.5 c 128,-1,15
 0 109 0 109 0 139 c 1,16,-1
 33 139 l 1,17,18
 33 116 33 116 42 95.5 c 128,-1,19
 51 75 51 75 66 60 c 128,-1,20
 81 45 81 45 101.5 36 c 128,-1,21
 122 27 122 27 145 27 c 256,22,23
 168 27 168 27 188 36 c 128,-1,24
 208 45 208 45 223 60 c 128,-1,25
 238 75 238 75 247 95.5 c 128,-1,26
 256 116 256 116 256 139 c 2,27,-1
 256 278 l 2,28,29
 256 301 256 301 247 321.5 c 128,-1,30
 238 342 238 342 223 357 c 128,-1,31
 208 372 208 372 188 381 c 128,-1,32
 168 390 168 390 145 390 c 2,33,-1
 50 390 l 1,34,-1
 36 390 l 1,35,-1
 17 390 l 1,36,-1
 33 675 l 1,37,-1
 41 675 l 1,38,-1
 66 675 l 1,39,-1
 270 675 l 1,40,-1
 270 641 l 1,41,-1
 64 641 l 1,42,-1
 52 423 l 1,43,-1
 145 423 l 1,44,-1
 145 423 l 1,0,1
EndSplineSet
Validated: 5
EndChar

StartChar: six
Encoding: 54 54 80
Width: 359
Flags: W
LayerCount: 2
Fore
SplineSet
145 423 m 0,0,1
 175 423 175 423 201 411.5 c 128,-1,2
 227 400 227 400 246.5 380.5 c 128,-1,3
 266 361 266 361 277.5 334.5 c 128,-1,4
 289 308 289 308 289 278 c 2,5,-1
 289 139 l 2,6,7
 289 109 289 109 277.5 82.5 c 128,-1,8
 266 56 266 56 246.5 36.5 c 128,-1,9
 227 17 227 17 201 5.5 c 128,-1,10
 175 -6 175 -6 145 -6 c 256,11,12
 115 -6 115 -6 88.5 5.5 c 128,-1,13
 62 17 62 17 42.5 36.5 c 128,-1,14
 23 56 23 56 11.5 82.5 c 128,-1,15
 0 109 0 109 0 139 c 2,16,-1
 0 534 l 2,17,18
 0 564 0 564 11.5 590.5 c 128,-1,19
 23 617 23 617 42.5 636.5 c 128,-1,20
 62 656 62 656 88.5 667.5 c 128,-1,21
 115 679 115 679 145 679 c 256,22,23
 175 679 175 679 201 667.5 c 128,-1,24
 227 656 227 656 246.5 636.5 c 128,-1,25
 266 617 266 617 277.5 590.5 c 128,-1,26
 289 564 289 564 289 534 c 1,27,-1
 256 534 l 1,28,29
 256 557 256 557 247 577 c 128,-1,30
 238 597 238 597 223 612 c 128,-1,31
 208 627 208 627 188 636 c 128,-1,32
 168 645 168 645 145 645 c 256,33,34
 122 645 122 645 101.5 636 c 128,-1,35
 81 627 81 627 66 612 c 128,-1,36
 51 597 51 597 42 577 c 128,-1,37
 33 557 33 557 33 534 c 2,38,-1
 33 370 l 1,39,40
 53 394 53 394 82 408.5 c 128,-1,41
 111 423 111 423 145 423 c 0,0,1
256 278 m 2,42,43
 256 301 256 301 247 321.5 c 128,-1,44
 238 342 238 342 223 357 c 128,-1,45
 208 372 208 372 188 381 c 128,-1,46
 168 390 168 390 145 390 c 256,47,48
 122 390 122 390 101.5 381 c 128,-1,49
 81 372 81 372 66 357 c 128,-1,50
 51 342 51 342 42 321.5 c 128,-1,51
 33 301 33 301 33 278 c 2,52,-1
 33 139 l 2,53,54
 33 116 33 116 42 95.5 c 128,-1,55
 51 75 51 75 66 60 c 128,-1,56
 81 45 81 45 101.5 36 c 128,-1,57
 122 27 122 27 145 27 c 256,58,59
 168 27 168 27 188 36 c 128,-1,60
 208 45 208 45 223 60 c 128,-1,61
 238 75 238 75 247 95.5 c 128,-1,62
 256 116 256 116 256 139 c 2,63,-1
 256 278 l 2,42,43
EndSplineSet
Validated: 1
EndChar

StartChar: seven
Encoding: 55 55 81
Width: 301
Flags: W
LayerCount: 2
Fore
SplineSet
-20 675 m 1,0,-1
 231 675 l 1,1,-1
 231 641 l 1,2,-1
 51 -1 l 1,3,-1
 17 -1 l 1,4,-1
 198 641 l 1,5,-1
 -20 641 l 1,6,-1
 -20 675 l 1,7,-1
 -20 675 l 1,0,-1
EndSplineSet
Validated: 5
EndChar

StartChar: eight
Encoding: 56 56 82
Width: 359
Flags: W
LayerCount: 2
Fore
SplineSet
289 465 m 2,0,1
 289 423 289 423 267 388.5 c 128,-1,2
 245 354 245 354 209 336 c 1,3,4
 245 318 245 318 267 284 c 128,-1,5
 289 250 289 250 289 207 c 2,6,-1
 289 139 l 2,7,8
 289 109 289 109 277.5 82.5 c 128,-1,9
 266 56 266 56 246.5 36.5 c 128,-1,10
 227 17 227 17 201 5.5 c 128,-1,11
 175 -6 175 -6 145 -6 c 256,12,13
 115 -6 115 -6 88.5 5.5 c 128,-1,14
 62 17 62 17 42.5 36.5 c 128,-1,15
 23 56 23 56 11.5 82.5 c 128,-1,16
 0 109 0 109 0 139 c 2,17,-1
 0 207 l 2,18,19
 0 250 0 250 22 284 c 128,-1,20
 44 318 44 318 80 336 c 1,21,22
 44 354 44 354 22 388.5 c 128,-1,23
 0 423 0 423 0 465 c 2,24,-1
 0 534 l 2,25,26
 0 564 0 564 11.5 590.5 c 128,-1,27
 23 617 23 617 42.5 636.5 c 128,-1,28
 62 656 62 656 88.5 667.5 c 128,-1,29
 115 679 115 679 145 679 c 256,30,31
 175 679 175 679 201 667.5 c 128,-1,32
 227 656 227 656 246.5 636.5 c 128,-1,33
 266 617 266 617 277.5 590.5 c 128,-1,34
 289 564 289 564 289 534 c 2,35,-1
 289 465 l 2,0,1
256 207 m 2,36,37
 256 230 256 230 247 250.5 c 128,-1,38
 238 271 238 271 223 286 c 128,-1,39
 208 301 208 301 188 310 c 128,-1,40
 168 319 168 319 145 319 c 256,41,42
 122 319 122 319 101.5 310 c 128,-1,43
 81 301 81 301 66 286 c 128,-1,44
 51 271 51 271 42 250.5 c 128,-1,45
 33 230 33 230 33 207 c 2,46,-1
 33 139 l 2,47,48
 33 116 33 116 42 95.5 c 128,-1,49
 51 75 51 75 66 60 c 128,-1,50
 81 45 81 45 101.5 36 c 128,-1,51
 122 27 122 27 145 27 c 256,52,53
 168 27 168 27 188 36 c 128,-1,54
 208 45 208 45 223 60 c 128,-1,55
 238 75 238 75 247 95.5 c 128,-1,56
 256 116 256 116 256 139 c 2,57,-1
 256 207 l 2,36,37
145 354 m 256,58,59
 168 354 168 354 188 363 c 128,-1,60
 208 372 208 372 223 387 c 128,-1,61
 238 402 238 402 247 422 c 128,-1,62
 256 442 256 442 256 465 c 2,63,-1
 256 534 l 2,64,65
 256 557 256 557 247 577 c 128,-1,66
 238 597 238 597 223 612 c 128,-1,67
 208 627 208 627 188 636 c 128,-1,68
 168 645 168 645 145 645 c 256,69,70
 122 645 122 645 101.5 636 c 128,-1,71
 81 627 81 627 66 612 c 128,-1,72
 51 597 51 597 42 577 c 128,-1,73
 33 557 33 557 33 534 c 2,74,-1
 33 465 l 2,75,76
 33 442 33 442 42 422 c 128,-1,77
 51 402 51 402 66 387 c 128,-1,78
 81 372 81 372 101.5 363 c 128,-1,79
 122 354 122 354 145 354 c 256,58,59
EndSplineSet
Validated: 1
EndChar

StartChar: nine
Encoding: 57 57 83
Width: 359
Flags: W
LayerCount: 2
Fore
SplineSet
145 679 m 256,0,1
 175 679 175 679 201 667.5 c 128,-1,2
 227 656 227 656 246.5 636.5 c 128,-1,3
 266 617 266 617 277.5 590.5 c 128,-1,4
 289 564 289 564 289 534 c 2,5,-1
 289 139 l 2,6,7
 289 109 289 109 277.5 82.5 c 128,-1,8
 266 56 266 56 246.5 36.5 c 128,-1,9
 227 17 227 17 201 5.5 c 128,-1,10
 175 -6 175 -6 145 -6 c 256,11,12
 115 -6 115 -6 88.5 5.5 c 128,-1,13
 62 17 62 17 42.5 36.5 c 128,-1,14
 23 56 23 56 11.5 82.5 c 128,-1,15
 0 109 0 109 0 139 c 1,16,-1
 33 139 l 1,17,18
 33 116 33 116 42 95.5 c 128,-1,19
 51 75 51 75 66 60 c 128,-1,20
 81 45 81 45 101.5 36 c 128,-1,21
 122 27 122 27 145 27 c 256,22,23
 168 27 168 27 188 36 c 128,-1,24
 208 45 208 45 223 60 c 128,-1,25
 238 75 238 75 247 95.5 c 128,-1,26
 256 116 256 116 256 139 c 2,27,-1
 256 373 l 1,28,29
 236 349 236 349 207 335 c 128,-1,30
 178 321 178 321 145 321 c 0,31,32
 115 321 115 321 88.5 332.5 c 128,-1,33
 62 344 62 344 42.5 363.5 c 128,-1,34
 23 383 23 383 11.5 409 c 128,-1,35
 0 435 0 435 0 465 c 2,36,-1
 0 534 l 2,37,38
 0 564 0 564 11.5 590.5 c 128,-1,39
 23 617 23 617 42.5 636.5 c 128,-1,40
 62 656 62 656 88.5 667.5 c 128,-1,41
 115 679 115 679 145 679 c 256,0,1
145 354 m 256,42,43
 168 354 168 354 188 363 c 128,-1,44
 208 372 208 372 223 387 c 128,-1,45
 238 402 238 402 247 422 c 128,-1,46
 256 442 256 442 256 465 c 2,47,-1
 256 534 l 2,48,49
 256 557 256 557 247 577 c 128,-1,50
 238 597 238 597 223 612 c 128,-1,51
 208 627 208 627 188 636 c 128,-1,52
 168 645 168 645 145 645 c 256,53,54
 122 645 122 645 101.5 636 c 128,-1,55
 81 627 81 627 66 612 c 128,-1,56
 51 597 51 597 42 577 c 128,-1,57
 33 557 33 557 33 534 c 2,58,-1
 33 465 l 2,59,60
 33 442 33 442 42 422 c 128,-1,61
 51 402 51 402 66 387 c 128,-1,62
 81 372 81 372 101.5 363 c 128,-1,63
 122 354 122 354 145 354 c 256,42,43
EndSplineSet
Validated: 1
EndChar

StartChar: slash
Encoding: 47 47 84
Width: 302
Flags: W
LayerCount: 2
Fore
SplineSet
33 -1 m 1,0,-1
 0 -1 l 1,1,-1
 199 675 l 1,2,-1
 232 675 l 1,3,-1
 33 -1 l 1,4,-1
 33 -1 l 1,0,-1
EndSplineSet
Validated: 5
EndChar

StartChar: backslash
Encoding: 92 92 85
Width: 302
Flags: W
LayerCount: 2
Fore
SplineSet
199 -1 m 1,0,-1
 0 675 l 1,1,-1
 33 675 l 1,2,-1
 232 -1 l 1,3,-1
 199 -1 l 1,4,-1
 199 -1 l 1,0,-1
EndSplineSet
Validated: 5
EndChar

StartChar: Euro
Encoding: 8364 8364 86
Width: 443
Flags: W
LayerCount: 2
Fore
SplineSet
229 27 m 256,0,1
 252 27 252 27 272 36 c 128,-1,2
 292 45 292 45 307 60 c 128,-1,3
 322 75 322 75 331 95.5 c 128,-1,4
 340 116 340 116 340 139 c 1,5,-1
 373 139 l 1,6,7
 373 109 373 109 361.5 82.5 c 128,-1,8
 350 56 350 56 330.5 36.5 c 128,-1,9
 311 17 311 17 285 5.5 c 128,-1,10
 259 -6 259 -6 229 -6 c 256,11,12
 199 -6 199 -6 172.5 5.5 c 128,-1,13
 146 17 146 17 126.5 36.5 c 128,-1,14
 107 56 107 56 95.5 82.5 c 128,-1,15
 84 109 84 109 84 139 c 2,16,-1
 84 269 l 1,17,-1
 30 269 l 1,18,-1
 30 302 l 1,19,-1
 84 302 l 1,20,-1
 84 364 l 1,21,-1
 30 364 l 1,22,-1
 30 397 l 1,23,-1
 84 397 l 1,24,-1
 84 534 l 2,25,26
 84 564 84 564 95.5 590.5 c 128,-1,27
 107 617 107 617 126.5 636.5 c 128,-1,28
 146 656 146 656 172.5 667.5 c 128,-1,29
 199 679 199 679 229 679 c 256,30,31
 259 679 259 679 285 667.5 c 128,-1,32
 311 656 311 656 330.5 636.5 c 128,-1,33
 350 617 350 617 361.5 590.5 c 128,-1,34
 373 564 373 564 373 534 c 1,35,-1
 340 534 l 1,36,37
 340 557 340 557 331 577 c 128,-1,38
 322 597 322 597 307 612 c 128,-1,39
 292 627 292 627 272 636 c 128,-1,40
 252 645 252 645 229 645 c 256,41,42
 206 645 206 645 186 636 c 128,-1,43
 166 627 166 627 151 612 c 128,-1,44
 136 597 136 597 127 577 c 128,-1,45
 118 557 118 557 118 534 c 2,46,-1
 118 397 l 1,47,-1
 288 397 l 1,48,-1
 288 364 l 1,49,-1
 118 364 l 1,50,-1
 118 302 l 1,51,-1
 288 302 l 1,52,-1
 288 269 l 1,53,-1
 118 269 l 1,54,-1
 118 139 l 2,55,56
 118 116 118 116 127 95.5 c 128,-1,57
 136 75 136 75 151 60 c 128,-1,58
 166 45 166 45 186 36 c 128,-1,59
 206 27 206 27 229 27 c 256,0,1
EndSplineSet
Validated: 1
EndChar

StartChar: sterling
Encoding: 163 163 87
Width: 437
Flags: W
LayerCount: 2
Fore
SplineSet
367 143 m 1,0,1
 367 113 367 113 357 87 c 128,-1,2
 347 61 347 61 329 41.5 c 128,-1,3
 311 22 311 22 286 10.5 c 128,-1,4
 261 -1 261 -1 231 -1 c 2,5,-1
 0 -1 l 1,6,-1
 0 32 l 1,7,8
 45 32 45 32 65 63 c 128,-1,9
 85 94 85 94 86 139 c 2,10,-1
 86 315 l 1,11,-1
 0 315 l 1,12,-1
 0 348 l 1,13,-1
 86 348 l 1,14,-1
 86 534 l 2,15,16
 86 564 86 564 96 590.5 c 128,-1,17
 106 617 106 617 124 636.5 c 128,-1,18
 142 656 142 656 167 667.5 c 128,-1,19
 192 679 192 679 222 679 c 256,20,21
 252 679 252 679 277 667.5 c 128,-1,22
 302 656 302 656 320.5 636.5 c 128,-1,23
 339 617 339 617 349 590.5 c 128,-1,24
 359 564 359 564 359 534 c 1,25,-1
 325 534 l 1,26,27
 325 580 325 580 297 612.5 c 128,-1,28
 269 645 269 645 222 645 c 0,29,30
 176 645 176 645 147.5 612.5 c 128,-1,31
 119 580 119 580 119 534 c 2,32,-1
 119 348 l 1,33,-1
 232 348 l 1,34,-1
 232 315 l 1,35,-1
 119 315 l 1,36,-1
 119 143 l 1,37,-1
 120 143 l 1,38,39
 120 110 120 110 110.5 81 c 128,-1,40
 101 52 101 52 82 32 c 1,41,-1
 231 32 l 2,42,43
 277 32 277 32 305.5 64.5 c 128,-1,44
 334 97 334 97 334 143 c 1,45,-1
 367 143 l 1,0,1
EndSplineSet
Validated: 1
EndChar

StartChar: dollar
Encoding: 36 36 88
Width: 359
Flags: W
LayerCount: 2
Fore
SplineSet
161 349 m 1,0,1
 185 329 185 329 208 308.5 c 128,-1,2
 231 288 231 288 249 263 c 128,-1,3
 267 238 267 238 278 208 c 128,-1,4
 289 178 289 178 289 139 c 0,5,6
 289 111 289 111 279 86 c 128,-1,7
 269 61 269 61 252 42 c 128,-1,8
 235 23 235 23 211.5 10.5 c 128,-1,9
 188 -2 188 -2 161 -5 c 1,10,-1
 161 -50 l 1,11,-1
 128 -50 l 1,12,-1
 128 -5 l 1,13,14
 101 -2 101 -2 77.5 10.5 c 128,-1,15
 54 23 54 23 37 42 c 128,-1,16
 20 61 20 61 10 86 c 128,-1,17
 0 111 0 111 0 139 c 1,18,-1
 33 139 l 1,19,20
 33 97 33 97 60 66 c 128,-1,21
 87 35 87 35 128 28 c 1,22,-1
 128 333 l 1,23,24
 104 352 104 352 81 372 c 128,-1,25
 58 392 58 392 40 415.5 c 128,-1,26
 22 439 22 439 11 468 c 128,-1,27
 0 497 0 497 0 534 c 0,28,29
 0 562 0 562 10 586.5 c 128,-1,30
 20 611 20 611 37 630.5 c 128,-1,31
 54 650 54 650 77.5 662.5 c 128,-1,32
 101 675 101 675 128 678 c 1,33,-1
 128 715 l 1,34,-1
 161 715 l 1,35,-1
 161 678 l 1,36,37
 188 675 188 675 211.5 662.5 c 128,-1,38
 235 650 235 650 252 630.5 c 128,-1,39
 269 611 269 611 279 586.5 c 128,-1,40
 289 562 289 562 289 534 c 1,41,-1
 256 534 l 1,42,43
 256 576 256 576 229 607 c 128,-1,44
 202 638 202 638 161 644 c 1,45,-1
 161 349 l 1,0,1
33 534 m 0,46,47
 33 480 33 480 61.5 443 c 128,-1,48
 90 406 90 406 128 375 c 1,49,-1
 128 644 l 1,50,51
 87 638 87 638 60 607 c 128,-1,52
 33 576 33 576 33 534 c 0,46,47
161 28 m 1,53,54
 202 35 202 35 229 66 c 128,-1,55
 256 97 256 97 256 139 c 0,56,57
 256 168 256 168 248.5 191.5 c 128,-1,58
 241 215 241 215 228 235 c 128,-1,59
 215 255 215 255 197.5 272.5 c 128,-1,60
 180 290 180 290 161 306 c 1,61,-1
 161 28 l 1,53,54
EndSplineSet
Validated: 1
EndChar

StartChar: yen
Encoding: 165 165 89
Width: 367
Flags: W
LayerCount: 2
Fore
SplineSet
165 336 m 1,0,-1
 165 328 l 1,1,-1
 277 328 l 1,2,-1
 277 295 l 1,3,-1
 165 295 l 1,4,-1
 165 233 l 1,5,-1
 277 233 l 1,6,-1
 277 200 l 1,7,-1
 165 200 l 1,8,-1
 165 -1 l 1,9,-1
 132 -1 l 1,10,-1
 132 200 l 1,11,-1
 20 200 l 1,12,-1
 20 233 l 1,13,-1
 132 233 l 1,14,-1
 132 295 l 1,15,-1
 20 295 l 1,16,-1
 20 328 l 1,17,-1
 132 328 l 1,18,-1
 132 336 l 1,19,-1
 131 339 l 1,20,-1
 0 675 l 1,21,-1
 36 675 l 1,22,-1
 148 385 l 1,23,-1
 261 675 l 1,24,-1
 297 675 l 1,25,-1
 166 339 l 1,26,-1
 165 336 l 1,27,-1
 165 336 l 1,0,-1
EndSplineSet
Validated: 5
EndChar

StartChar: dagger
Encoding: 8224 8224 90
Width: 430
Flags: W
LayerCount: 2
Fore
SplineSet
360 527 m 1,0,-1
 360 493 l 1,1,-1
 196 493 l 1,2,-1
 196 -75 l 1,3,-1
 163 -75 l 1,4,-1
 163 493 l 1,5,-1
 0 493 l 1,6,-1
 0 527 l 1,7,-1
 163 527 l 1,8,-1
 163 717 l 1,9,-1
 196 717 l 1,10,-1
 196 527 l 1,11,-1
 360 527 l 1,12,-1
 360 527 l 1,0,-1
EndSplineSet
Validated: 5
EndChar

StartChar: daggerdbl
Encoding: 8225 8225 91
Width: 430
Flags: W
LayerCount: 2
Fore
SplineSet
360 493 m 1,0,-1
 196 493 l 1,1,-1
 196 261 l 1,2,-1
 360 261 l 1,3,-1
 360 228 l 1,4,-1
 196 228 l 1,5,-1
 196 -75 l 1,6,-1
 163 -75 l 1,7,-1
 163 228 l 1,8,-1
 0 228 l 1,9,-1
 0 261 l 1,10,-1
 163 261 l 1,11,-1
 163 493 l 1,12,-1
 0 493 l 1,13,-1
 0 527 l 1,14,-1
 163 527 l 1,15,-1
 163 717 l 1,16,-1
 196 717 l 1,17,-1
 196 527 l 1,18,-1
 360 527 l 1,19,-1
 360 493 l 1,20,-1
 360 493 l 1,0,-1
EndSplineSet
Validated: 5
EndChar

StartChar: d
Encoding: 100 100 92
Width: 338
Flags: W
LayerCount: 2
Fore
SplineSet
268 716 m 1,0,-1
 268 363 l 1,1,-1
 268 128 l 1,2,-1
 268 -1 l 1,3,-1
 235 -1 l 1,4,-1
 235 40 l 1,5,6
 216 19 216 19 190 6.5 c 128,-1,7
 164 -6 164 -6 134 -6 c 0,8,9
 106 -6 106 -6 81.5 4.5 c 128,-1,10
 57 15 57 15 39 33 c 128,-1,11
 21 51 21 51 10.5 75.5 c 128,-1,12
 0 100 0 100 0 128 c 2,13,-1
 0 363 l 2,14,15
 0 391 0 391 10.5 415.5 c 128,-1,16
 21 440 21 440 39 458 c 128,-1,17
 57 476 57 476 81.5 486.5 c 128,-1,18
 106 497 106 497 134 497 c 0,19,20
 164 497 164 497 190 485 c 128,-1,21
 216 473 216 473 235 451 c 1,22,-1
 235 716 l 1,23,-1
 268 716 l 1,0,-1
134 27 m 256,24,25
 155 27 155 27 173.5 35 c 128,-1,26
 192 43 192 43 205.5 56.5 c 128,-1,27
 219 70 219 70 227 88.5 c 128,-1,28
 235 107 235 107 235 128 c 2,29,-1
 235 363 l 2,30,31
 235 384 235 384 227 402.5 c 128,-1,32
 219 421 219 421 205.5 434.5 c 128,-1,33
 192 448 192 448 173.5 456 c 128,-1,34
 155 464 155 464 134 464 c 256,35,36
 113 464 113 464 94.5 456 c 128,-1,37
 76 448 76 448 62.5 434.5 c 128,-1,38
 49 421 49 421 41 402.5 c 128,-1,39
 33 384 33 384 33 363 c 2,40,-1
 33 128 l 2,41,42
 33 107 33 107 41 88.5 c 128,-1,43
 49 70 49 70 62.5 56.5 c 128,-1,44
 76 43 76 43 94.5 35 c 128,-1,45
 113 27 113 27 134 27 c 256,24,25
EndSplineSet
Validated: 1
EndChar

StartChar: fl
Encoding: 64258 64258 93
Width: 424
Flags: W
LayerCount: 2
Fore
SplineSet
354 683 m 1,0,-1
 354 -1 l 1,1,-1
 320 -1 l 1,2,-1
 320 683 l 1,3,-1
 209 683 l 2,4,5
 191 683 191 683 175 675 c 128,-1,6
 159 667 159 667 147 653.5 c 128,-1,7
 135 640 135 640 128 621.5 c 128,-1,8
 121 603 121 603 121 582 c 2,9,-1
 121 492 l 1,10,-1
 229 492 l 1,11,-1
 229 459 l 1,12,-1
 121 459 l 1,13,-1
 121 27 l 1,14,-1
 121 -1 l 1,15,-1
 121 -90 l 2,16,17
 121 -118 121 -118 111.5 -142.5 c 128,-1,18
 102 -167 102 -167 85.5 -185.5 c 128,-1,19
 69 -204 69 -204 47 -214.5 c 128,-1,20
 25 -225 25 -225 0 -225 c 1,21,-1
 0 -191 l 1,22,23
 18 -191 18 -191 34 -183 c 128,-1,24
 50 -175 50 -175 62 -161.5 c 128,-1,25
 74 -148 74 -148 81 -129.5 c 128,-1,26
 88 -111 88 -111 88 -90 c 2,27,-1
 88 -1 l 1,28,-1
 88 27 l 1,29,-1
 88 459 l 1,30,-1
 88 464 l 1,31,-1
 88 492 l 1,32,-1
 88 582 l 2,33,34
 88 610 88 610 97.5 634.5 c 128,-1,35
 107 659 107 659 123.5 677 c 128,-1,36
 140 695 140 695 162 705.5 c 128,-1,37
 184 716 184 716 209 716 c 2,38,-1
 320 716 l 1,39,-1
 354 716 l 1,40,-1
 354 683 l 1,0,-1
EndSplineSet
Validated: 1
EndChar

StartChar: fi
Encoding: 64257 64257 94
Width: 424
Flags: W
LayerCount: 2
Fore
SplineSet
209 683 m 1,0,1
 191 683 191 683 175 675 c 128,-1,2
 159 667 159 667 147 653.5 c 128,-1,3
 135 640 135 640 128 621.5 c 128,-1,4
 121 603 121 603 121 582 c 2,5,-1
 121 492 l 1,6,-1
 312 492 l 1,7,-1
 329 492 l 1,8,-1
 345 492 l 1,9,-1
 345 -1 l 1,10,-1
 312 -1 l 1,11,-1
 312 459 l 1,12,-1
 121 459 l 1,13,-1
 121 27 l 1,14,-1
 121 -1 l 1,15,-1
 121 -90 l 2,16,17
 121 -118 121 -118 111.5 -142.5 c 128,-1,18
 102 -167 102 -167 85.5 -185.5 c 128,-1,19
 69 -204 69 -204 47 -214.5 c 128,-1,20
 25 -225 25 -225 0 -225 c 1,21,-1
 0 -191 l 1,22,23
 18 -191 18 -191 34 -183 c 128,-1,24
 50 -175 50 -175 62 -161.5 c 128,-1,25
 74 -148 74 -148 81 -129.5 c 128,-1,26
 88 -111 88 -111 88 -90 c 2,27,-1
 88 -1 l 1,28,-1
 88 27 l 1,29,-1
 88 459 l 1,30,-1
 88 464 l 1,31,-1
 88 492 l 1,32,-1
 88 582 l 2,33,34
 88 610 88 610 97.5 634.5 c 128,-1,35
 107 659 107 659 123.5 677 c 128,-1,36
 140 695 140 695 162 705.5 c 128,-1,37
 184 716 184 716 209 716 c 2,38,-1
 354 716 l 1,39,-1
 354 683 l 1,40,-1
 209 683 l 1,41,-1
 209 683 l 1,0,1
EndSplineSet
Validated: 5
EndChar

StartChar: dieresis
Encoding: 168 168 95
Width: 176
Flags: W
LayerCount: 2
Fore
SplineSet
25 614 m 256,0,1
 14 614 14 614 7 621 c 128,-1,2
 0 628 0 628 0 639 c 256,3,4
 0 650 0 650 7 657 c 128,-1,5
 14 664 14 664 25 664 c 256,6,7
 36 664 36 664 43 657 c 128,-1,8
 50 650 50 650 50 639 c 256,9,10
 50 628 50 628 43 621 c 128,-1,11
 36 614 36 614 25 614 c 256,0,1
149 614 m 256,12,13
 138 614 138 614 131 621 c 128,-1,14
 124 628 124 628 124 639 c 256,15,16
 124 650 124 650 131 657 c 128,-1,17
 138 664 138 664 149 664 c 256,18,19
 160 664 160 664 167 657 c 128,-1,20
 174 650 174 650 174 639 c 256,21,22
 174 628 174 628 167 621 c 128,-1,23
 160 614 160 614 149 614 c 256,12,13
EndSplineSet
Validated: 1
EndChar

StartChar: acute
Encoding: 180 180 98
Width: 201
Flags: W
LayerCount: 2
Fore
SplineSet
0 604 m 1,0,-1
 192 664 l 1,1,-1
 202 632 l 1,2,-1
 10 572 l 1,3,-1
 0 604 l 1,4,-1
 0 604 l 1,0,-1
EndSplineSet
Validated: 5
EndChar

StartChar: grave
Encoding: 96 96 99
Width: 272
Flags: W
LayerCount: 2
Fore
SplineSet
202 604 m 1,0,-1
 192 572 l 1,1,-1
 0 632 l 1,2,-1
 10 664 l 1,3,-1
 202 604 l 1,4,-1
 202 604 l 1,0,-1
EndSplineSet
Validated: 5
EndChar

StartChar: circumflex
Encoding: 710 710 123
Width: 275
Flags: W
LayerCount: 2
Fore
SplineSet
205 604 m 1,0,-1
 200 572 l 1,1,-1
 102 629 l 1,2,-1
 5 572 l 1,3,-1
 0 604 l 1,4,-1
 102 664 l 1,5,-1
 102 664 l 1,6,-1
 102 664 l 1,7,-1
 103 665 l 1,8,-1
 103 663 l 1,9,-1
 205 604 l 1,10,-1
 205 604 l 1,0,-1
EndSplineSet
Validated: 5
EndChar

StartChar: ogonek
Encoding: 731 731 131
Width: 134
Flags: W
LayerCount: 2
Fore
SplineSet
63 -104 m 1,0,1
 33 -104 33 -104 20.5 -92.5 c 128,-1,2
 8 -81 8 -81 4 -73 c 0,3,4
 -13 -30 -13 -30 43 26 c 1,5,-1
 64 5 l 1,6,7
 48 -11 48 -11 37 -30 c 128,-1,8
 26 -49 26 -49 31 -61 c 0,9,10
 35 -70 35 -70 45 -72 c 128,-1,11
 55 -74 55 -74 63 -74 c 1,12,-1
 63 -104 l 1,0,1
EndSplineSet
Validated: 33
EndChar

StartChar: bullet
Encoding: 8226 8226 133
Width: 189
Flags: W
LayerCount: 2
Fore
SplineSet
60 219 m 0,0,1
 35 219 35 219 17.5 236.5 c 128,-1,2
 0 254 0 254 0 279 c 256,3,4
 0 304 0 304 17.5 321 c 128,-1,5
 35 338 35 338 60 338 c 0,6,7
 84 338 84 338 101.5 321 c 128,-1,8
 119 304 119 304 119 279 c 256,9,10
 119 254 119 254 101.5 236.5 c 128,-1,11
 84 219 84 219 60 219 c 0,0,1
EndSplineSet
Validated: 1
EndChar

StartChar: underscore
Encoding: 95 95 134
Width: 338
Flags: W
LayerCount: 2
Fore
SplineSet
0 -27 m 1,0,-1
 0 6 l 1,1,-1
 268 6 l 1,2,-1
 268 -27 l 1,3,-1
 0 -27 l 1,4,-1
 0 -27 l 1,0,-1
EndSplineSet
Validated: 5
EndChar

StartChar: guillemotleft
Encoding: 171 171 135
Width: 423
Flags: W
LayerCount: 2
Fore
SplineSet
329 102 m 1,0,-1
 138 301 l 1,1,-1
 329 500 l 1,2,-1
 353 477 l 1,3,-1
 184 301 l 1,4,-1
 353 125 l 1,5,-1
 329 102 l 1,6,-1
 329 102 l 1,0,-1
191 102 m 1,7,-1
 0 301 l 1,8,-1
 191 500 l 1,9,-1
 215 477 l 1,10,-1
 46 301 l 1,11,-1
 215 125 l 1,12,-1
 191 102 l 1,13,-1
 191 102 l 1,7,-1
EndSplineSet
Validated: 5
EndChar

StartChar: cedilla
Encoding: 184 184 137
Width: 92
Flags: W
LayerCount: 2
Fore
SplineSet
72 -22 m 0,0,1
 93 -35 93 -35 93 -60 c 0,2,3
 93 -82 93 -82 77.5 -96 c 128,-1,4
 62 -110 62 -110 39 -110 c 0,5,6
 14 -110 14 -110 3 -101 c 1,7,-1
 0 -100 l 1,8,-1
 7 -78 l 1,9,-1
 12 -80 l 2,10,11
 16 -82 16 -82 23 -84.5 c 128,-1,12
 30 -87 30 -87 38 -87 c 0,13,14
 49 -87 49 -87 57.5 -81 c 128,-1,15
 66 -75 66 -75 66 -62 c 0,16,17
 66 -46 66 -46 54.5 -41.5 c 128,-1,18
 43 -37 43 -37 32 -37 c 0,19,20
 19 -37 19 -37 14 -38 c 2,21,-1
 8 -39 l 1,22,-1
 14 9 l 1,23,-1
 38 9 l 1,24,-1
 34 -14 l 1,25,-1
 40 -14 l 2,26,27
 58 -14 58 -14 72 -22 c 0,0,1
EndSplineSet
Validated: 1
EndChar

StartChar: dotaccent
Encoding: 729 729 145
Width: 137
Flags: W
LayerCount: 2
Fore
SplineSet
42 614 m 0,0,1
 31 614 31 614 24 621 c 128,-1,2
 17 628 17 628 17 639 c 256,3,4
 17 650 17 650 24 657 c 128,-1,5
 31 664 31 664 42 664 c 0,6,7
 52 664 52 664 59.5 657 c 128,-1,8
 67 650 67 650 67 639 c 256,9,10
 67 628 67 628 59.5 621 c 128,-1,11
 52 614 52 614 42 614 c 0,0,1
EndSplineSet
Validated: 1
EndChar

StartChar: igrave
Encoding: 236 236 146
Width: 162
Flags: W
LayerCount: 2
Fore
SplineSet
4 500 m 1,0,-1
 4 466 l 1,1,-1
 37 466 l 1,2,-1
 37 6 l 1,3,-1
 71 6 l 1,4,-1
 71 466 l 1,5,-1
 71 500 l 1,6,-1
 37 500 l 1,7,-1
 4 500 l 1,8,-1
 4 500 l 1,0,-1
152 604 m 1,9,-1
 142 572 l 1,10,-1
 -50 632 l 1,11,-1
 -40 664 l 1,12,-1
 152 604 l 1,13,-1
 152 604 l 1,9,-1
EndSplineSet
Validated: 5
EndChar

StartChar: iacute
Encoding: 237 237 147
Width: 162
Flags: W
LayerCount: 2
Fore
SplineSet
10 500 m 1,0,-1
 43 500 l 1,1,-1
 77 500 l 1,2,-1
 77 466 l 1,3,-1
 77 6 l 1,4,-1
 43 6 l 1,5,-1
 43 466 l 1,6,-1
 10 466 l 1,7,-1
 10 500 l 1,0,-1
-50 604 m 5,8,-1
 142 664 l 5,9,-1
 152 632 l 5,10,-1
 -40 572 l 5,11,-1
 -50 604 l 5,8,-1
EndSplineSet
Validated: 1
EndChar

StartChar: icircumflex
Encoding: 238 238 148
Width: 165
Flags: W
LayerCount: 2
Fore
SplineSet
9 500 m 1,0,-1
 42 500 l 1,1,-1
 76 500 l 1,2,-1
 76 466 l 1,3,-1
 76 6 l 1,4,-1
 42 6 l 1,5,-1
 42 466 l 1,6,-1
 9 466 l 1,7,-1
 9 500 l 1,0,-1
155 604 m 1,8,-1
 150 572 l 1,9,-1
 52 629 l 1,10,-1
 -45 572 l 1,11,-1
 -50 604 l 1,12,-1
 52 664 l 1,13,-1
 52 664 l 1,14,-1
 52 664 l 1,15,-1
 53 665 l 1,16,-1
 53 663 l 1,17,-1
 155 604 l 1,8,-1
EndSplineSet
Validated: 5
EndChar

StartChar: idieresis
Encoding: 239 239 149
Width: 144
Flags: W
LayerCount: 2
Fore
SplineSet
33 500 m 1,0,-1
 67 500 l 1,1,-1
 67 466 l 1,2,-1
 67 6 l 1,3,-1
 33 6 l 1,4,-1
 33 466 l 1,5,-1
 0 466 l 1,6,-1
 0 500 l 1,7,-1
 33 500 l 1,0,-1
-15 614 m 256,8,9
 -26 614 -26 614 -33 621 c 128,-1,10
 -40 628 -40 628 -40 639 c 256,11,12
 -40 650 -40 650 -33 657 c 128,-1,13
 -26 664 -26 664 -15 664 c 256,14,15
 -4 664 -4 664 3 657 c 128,-1,16
 10 650 10 650 10 639 c 256,17,18
 10 628 10 628 3 621 c 128,-1,19
 -4 614 -4 614 -15 614 c 256,8,9
109 614 m 256,20,21
 98 614 98 614 91 621 c 128,-1,22
 84 628 84 628 84 639 c 256,23,24
 84 650 84 650 91 657 c 128,-1,25
 98 664 98 664 109 664 c 256,26,27
 120 664 120 664 127 657 c 128,-1,28
 134 650 134 650 134 639 c 256,29,30
 134 628 134 628 127 621 c 128,-1,31
 120 614 120 614 109 614 c 256,20,21
EndSplineSet
Validated: 1
EndChar

StartChar: guillemotright
Encoding: 187 187 152
Width: 423
Flags: W
LayerCount: 2
Fore
SplineSet
24 102 m 1,0,-1
 0 125 l 1,1,-1
 169 300 l 1,2,-1
 0 477 l 1,3,-1
 24 500 l 1,4,-1
 215 300 l 1,5,-1
 24 102 l 1,6,-1
 24 102 l 1,0,-1
162 102 m 1,7,-1
 138 125 l 1,8,-1
 307 300 l 1,9,-1
 138 477 l 1,10,-1
 162 500 l 1,11,-1
 353 300 l 1,12,-1
 162 102 l 1,13,-1
 162 102 l 1,7,-1
EndSplineSet
Validated: 5
EndChar

StartChar: equal
Encoding: 61 61 153
Width: 408
Flags: W
LayerCount: 2
Fore
SplineSet
338 374 m 1,0,-1
 0 374 l 1,1,-1
 0 407 l 1,2,-1
 338 407 l 1,3,-1
 338 374 l 1,4,-1
 338 374 l 1,0,-1
338 219 m 1,5,-1
 0 219 l 1,6,-1
 0 252 l 1,7,-1
 338 252 l 1,8,-1
 338 219 l 1,9,-1
 338 219 l 1,5,-1
EndSplineSet
Validated: 5
EndChar

StartChar: numbersign
Encoding: 35 35 154
Width: 408
Flags: W
LayerCount: 2
Fore
SplineSet
338 374 m 1,0,-1
 0 374 l 1,1,-1
 0 407 l 1,2,-1
 338 407 l 1,3,-1
 338 374 l 1,4,-1
 338 374 l 1,0,-1
338 219 m 1,5,-1
 0 219 l 1,6,-1
 0 252 l 1,7,-1
 338 252 l 1,8,-1
 338 219 l 1,9,-1
 338 219 l 1,5,-1
230 144 m 1,10,-1
 230 482 l 1,11,-1
 263 482 l 1,12,-1
 263 144 l 1,13,-1
 230 144 l 1,14,-1
 230 144 l 1,10,-1
75 144 m 1,15,-1
 75 482 l 1,16,-1
 108 482 l 1,17,-1
 108 144 l 1,18,-1
 75 144 l 1,19,-1
 75 144 l 1,15,-1
EndSplineSet
Validated: 5
EndChar

StartChar: tilde
Encoding: 732 732 155
Width: 277
Flags: W
LayerCount: 2
Fore
SplineSet
146 586 m 2,0,1
 132 586 132 586 119 591 c 128,-1,2
 106 596 106 596 93 602 c 0,3,4
 68 613 68 613 53.5 614 c 128,-1,5
 39 615 39 615 25 593 c 1,6,-1
 0 609 l 1,7,8
 21 644 21 644 54 644 c 0,9,10
 68 644 68 644 80.5 639 c 128,-1,11
 93 634 93 634 105 629 c 0,12,13
 131 617 131 617 147.5 616.5 c 128,-1,14
 164 616 164 616 181 642 c 1,15,-1
 207 626 l 1,16,17
 182 587 182 587 148 586 c 2,18,-1
 146 586 l 2,0,1
EndSplineSet
Validated: 33
EndChar

StartChar: asciitilde
Encoding: 126 126 159
Width: 386
Flags: W
LayerCount: 2
Fore
SplineSet
226 245 m 2,0,1
 205 245 205 245 185 252.5 c 128,-1,2
 165 260 165 260 145 269 c 256,3,4
 125 278 125 278 108 284 c 128,-1,5
 91 290 91 290 77 289 c 128,-1,6
 63 288 63 288 50 279.5 c 128,-1,7
 37 271 37 271 25 252 c 1,8,-1
 0 268 l 1,9,10
 33 319 33 319 79 319 c 0,11,12
 99 319 99 319 118.5 312 c 128,-1,13
 138 305 138 305 157 296 c 256,14,15
 176 287 176 287 194 280.5 c 128,-1,16
 212 274 212 274 228.5 275 c 128,-1,17
 245 276 245 276 260.5 286 c 128,-1,18
 276 296 276 296 291 320 c 1,19,-1
 316 304 l 1,20,21
 280 246 280 246 229 245 c 2,22,-1
 226 245 l 2,0,1
EndSplineSet
Validated: 33
EndChar

StartChar: asciicircum
Encoding: 94 94 160
Width: 328
Flags: W
LayerCount: 2
Fore
SplineSet
278 491 m 1,0,-1
 255 467 l 1,1,-1
 140 624 l 1,2,-1
 23 467 l 1,3,-1
 0 491 l 1,4,-1
 140 682 l 1,5,-1
 278 491 l 1,6,-1
 278 491 l 1,0,-1
EndSplineSet
Validated: 5
EndChar

StartChar: bracketright
Encoding: 93 93 161
Width: 183
Flags: W
LayerCount: 2
Fore
SplineSet
0 762 m 1,0,-1
 0 795 l 1,1,-1
 80 795 l 1,2,-1
 113 795 l 1,3,-1
 113 762 l 1,4,-1
 113 -55 l 1,5,-1
 113 -89 l 1,6,-1
 80 -89 l 1,7,-1
 0 -89 l 1,8,-1
 0 -55 l 1,9,-1
 80 -55 l 1,10,-1
 80 762 l 1,11,-1
 0 762 l 1,12,-1
 0 762 l 1,0,-1
EndSplineSet
Validated: 5
EndChar

StartChar: bracketleft
Encoding: 91 91 162
Width: 183
Flags: W
LayerCount: 2
Fore
SplineSet
113 762 m 1,0,-1
 33 762 l 1,1,-1
 33 -55 l 1,2,-1
 113 -55 l 1,3,-1
 113 -89 l 1,4,-1
 33 -89 l 1,5,-1
 0 -89 l 1,6,-1
 0 -55 l 1,7,-1
 0 762 l 1,8,-1
 0 795 l 1,9,-1
 33 795 l 1,10,-1
 113 795 l 1,11,-1
 113 762 l 1,12,-1
 113 762 l 1,0,-1
EndSplineSet
Validated: 5
EndChar

StartChar: bar
Encoding: 124 124 163
Width: 103
Flags: W
LayerCount: 2
Fore
SplineSet
33 -89 m 1,0,-1
 0 -89 l 1,1,-1
 0 795 l 1,2,-1
 33 795 l 1,3,-1
 33 -89 l 1,4,-1
 33 -89 l 1,0,-1
EndSplineSet
Validated: 5
EndChar

StartChar: braceleft
Encoding: 123 123 164
Width: 301
Flags: W
LayerCount: 2
Fore
SplineSet
0 353 m 1,0,-1
 0 354 l 1,1,2
 46 354 46 354 66 386.5 c 128,-1,3
 86 419 86 419 86 465 c 2,4,-1
 86 651 l 2,5,6
 86 681 86 681 97.5 707 c 128,-1,7
 109 733 109 733 128.5 752.5 c 128,-1,8
 148 772 148 772 174.5 783.5 c 128,-1,9
 201 795 201 795 231 795 c 1,10,-1
 231 762 l 1,11,12
 208 762 208 762 188 753 c 128,-1,13
 168 744 168 744 153 729 c 128,-1,14
 138 714 138 714 129 694 c 128,-1,15
 120 674 120 674 120 651 c 2,16,-1
 120 465 l 2,17,18
 120 423 120 423 105 389 c 128,-1,19
 90 355 90 355 61 337 c 1,20,21
 90 319 90 319 105 285 c 128,-1,22
 120 251 120 251 120 209 c 2,23,-1
 120 56 l 2,24,25
 120 33 120 33 129 13 c 128,-1,26
 138 -7 138 -7 153 -22 c 128,-1,27
 168 -37 168 -37 188 -46 c 128,-1,28
 208 -55 208 -55 231 -55 c 1,29,-1
 231 -89 l 1,30,31
 201 -89 201 -89 174.5 -77.5 c 128,-1,32
 148 -66 148 -66 128.5 -46.5 c 128,-1,33
 109 -27 109 -27 97.5 -0.5 c 128,-1,34
 86 26 86 26 86 56 c 2,35,-1
 86 209 l 2,36,37
 86 255 86 255 66 287.5 c 128,-1,38
 46 320 46 320 0 320 c 1,39,-1
 0 353 l 1,0,-1
EndSplineSet
Validated: 1
EndChar

StartChar: braceright
Encoding: 125 125 165
Width: 301
Flags: W
LayerCount: 2
Fore
SplineSet
231 320 m 1,0,1
 185 320 185 320 165 287.5 c 128,-1,2
 145 255 145 255 145 209 c 1,3,-1
 144 209 l 1,4,-1
 144 56 l 2,5,6
 144 26 144 26 132.5 -0.5 c 128,-1,7
 121 -27 121 -27 101.5 -46.5 c 128,-1,8
 82 -66 82 -66 56 -77.5 c 128,-1,9
 30 -89 30 -89 0 -89 c 1,10,-1
 0 -55 l 1,11,12
 23 -55 23 -55 43 -46 c 128,-1,13
 63 -37 63 -37 78 -22 c 128,-1,14
 93 -7 93 -7 102 13 c 128,-1,15
 111 33 111 33 111 56 c 2,16,-1
 111 209 l 2,17,18
 111 251 111 251 126 285 c 128,-1,19
 141 319 141 319 170 337 c 1,20,21
 141 355 141 355 126 389 c 128,-1,22
 111 423 111 423 111 465 c 2,23,-1
 111 651 l 2,24,25
 111 674 111 674 102 694 c 128,-1,26
 93 714 93 714 78 729 c 128,-1,27
 63 744 63 744 43 753 c 128,-1,28
 23 762 23 762 0 762 c 1,29,-1
 0 795 l 1,30,31
 30 795 30 795 56 783.5 c 128,-1,32
 82 772 82 772 101.5 752.5 c 128,-1,33
 121 733 121 733 132.5 707 c 128,-1,34
 144 681 144 681 144 651 c 2,35,-1
 144 465 l 1,36,-1
 145 465 l 1,37,38
 145 419 145 419 165 386.5 c 128,-1,39
 185 354 185 354 231 354 c 1,40,-1
 231 353 l 1,41,-1
 231 320 l 1,0,1
EndSplineSet
Validated: 1
EndChar

StartChar: less
Encoding: 60 60 166
Width: 285
Flags: W
LayerCount: 2
Fore
SplineSet
191 102 m 1,0,-1
 0 300 l 1,1,-1
 191 500 l 1,2,-1
 215 477 l 1,3,-1
 46 300 l 1,4,-1
 215 125 l 1,5,-1
 191 102 l 1,6,-1
 191 102 l 1,0,-1
EndSplineSet
Validated: 5
EndChar

StartChar: greater
Encoding: 62 62 167
Width: 285
Flags: W
LayerCount: 2
Fore
SplineSet
24 102 m 1,0,-1
 0 125 l 1,1,-1
 169 300 l 1,2,-1
 0 477 l 1,3,-1
 24 500 l 1,4,-1
 215 300 l 1,5,-1
 24 102 l 1,6,-1
 24 102 l 1,0,-1
EndSplineSet
Validated: 5
EndChar

StartChar: parenleft
Encoding: 40 40 168
Width: 214
Flags: W
LayerCount: 2
Fore
SplineSet
144 -89 m 1,0,1
 114 -89 114 -89 88 -77.5 c 128,-1,2
 62 -66 62 -66 42.5 -46.5 c 128,-1,3
 23 -27 23 -27 11.5 -0.5 c 128,-1,4
 0 26 0 26 0 56 c 2,5,-1
 0 651 l 2,6,7
 0 681 0 681 11.5 707 c 128,-1,8
 23 733 23 733 42.5 752.5 c 128,-1,9
 62 772 62 772 88 783.5 c 128,-1,10
 114 795 114 795 144 795 c 1,11,-1
 144 762 l 1,12,13
 121 762 121 762 101 753 c 128,-1,14
 81 744 81 744 66 729 c 128,-1,15
 51 714 51 714 42 694 c 128,-1,16
 33 674 33 674 33 651 c 2,17,-1
 33 56 l 2,18,19
 33 33 33 33 42 13 c 128,-1,20
 51 -7 51 -7 66 -22 c 128,-1,21
 81 -37 81 -37 101 -46 c 128,-1,22
 121 -55 121 -55 144 -55 c 1,23,-1
 144 -89 l 1,24,-1
 144 -89 l 1,0,1
EndSplineSet
Validated: 5
EndChar

StartChar: parenright
Encoding: 41 41 169
Width: 214
Flags: W
LayerCount: 2
Fore
SplineSet
0 -89 m 1,0,-1
 0 -55 l 1,1,2
 23 -55 23 -55 43 -46 c 128,-1,3
 63 -37 63 -37 78 -22 c 128,-1,4
 93 -7 93 -7 102 13 c 128,-1,5
 111 33 111 33 111 56 c 2,6,-1
 111 651 l 2,7,8
 111 674 111 674 102 694 c 128,-1,9
 93 714 93 714 78 729 c 128,-1,10
 63 744 63 744 43 753 c 128,-1,11
 23 762 23 762 0 762 c 1,12,-1
 0 795 l 1,13,14
 30 795 30 795 56 783.5 c 128,-1,15
 82 772 82 772 101.5 752.5 c 128,-1,16
 121 733 121 733 132.5 707 c 128,-1,17
 144 681 144 681 144 651 c 2,18,-1
 144 56 l 2,19,20
 144 26 144 26 132.5 -0.5 c 128,-1,21
 121 -27 121 -27 101.5 -46.5 c 128,-1,22
 82 -66 82 -66 56 -77.5 c 128,-1,23
 30 -89 30 -89 0 -89 c 1,0,-1
EndSplineSet
Validated: 1
EndChar

StartChar: germandbls
Encoding: 223 223 170
Width: 400
Flags: W
LayerCount: 2
Fore
SplineSet
165 0 m 0,0,1
 155 0 155 0 154 1 c 2,2,-1
 111 1 l 1,3,-1
 111 34 l 1,4,-1
 156 34 l 1,5,6
 156 34 156 34 166.5 33.5 c 128,-1,7
 177 33 177 33 192 35.5 c 128,-1,8
 207 38 207 38 224.5 44.5 c 128,-1,9
 242 51 242 51 257 65 c 0,10,11
 297 101 297 101 297 175 c 0,12,13
 297 209 297 209 288 233.5 c 128,-1,14
 279 258 279 258 265 276 c 128,-1,15
 251 294 251 294 232.5 307 c 128,-1,16
 214 320 214 320 196 332 c 0,17,18
 181 342 181 342 167 352 c 128,-1,19
 153 362 153 362 142 374 c 128,-1,20
 131 386 131 386 124.5 400.5 c 128,-1,21
 118 415 118 415 118 434 c 0,22,23
 118 463 118 463 133 477 c 128,-1,24
 148 491 148 491 164 502 c 0,25,26
 181 513 181 513 192 524.5 c 128,-1,27
 203 536 203 536 203 561 c 0,28,29
 203 587 203 587 192 603.5 c 128,-1,30
 181 620 181 620 167 629.5 c 128,-1,31
 153 639 153 639 138.5 642.5 c 128,-1,32
 124 646 124 646 118 646 c 0,33,34
 113 646 113 646 99 642.5 c 128,-1,35
 85 639 85 639 70.5 629.5 c 128,-1,36
 56 620 56 620 44.5 603.5 c 128,-1,37
 33 587 33 587 33 561 c 2,38,-1
 33 1 l 1,39,-1
 0 1 l 1,40,-1
 0 561 l 2,41,42
 0 599 0 599 15.5 621 c 128,-1,43
 31 643 31 643 48 655 c 0,44,45
 66 668 66 668 85 673.5 c 128,-1,46
 104 679 104 679 118 679 c 256,47,48
 132 679 132 679 152 673 c 128,-1,49
 172 667 172 667 191 653 c 128,-1,50
 210 639 210 639 223 616.5 c 128,-1,51
 236 594 236 594 236 561 c 0,52,53
 236 542 236 542 231 528 c 128,-1,54
 226 514 226 514 218 504 c 128,-1,55
 210 494 210 494 200.5 487 c 128,-1,56
 191 480 191 480 182 474 c 0,57,58
 166 464 166 464 158.5 456 c 128,-1,59
 151 448 151 448 151 434 c 0,60,61
 151 411 151 411 168 395.5 c 128,-1,62
 185 380 185 380 214 360 c 0,63,64
 233 347 233 347 254 332 c 128,-1,65
 275 317 275 317 291.5 295.5 c 128,-1,66
 308 274 308 274 319 244.5 c 128,-1,67
 330 215 330 215 330 175 c 0,68,69
 330 86 330 86 279 40 c 0,70,71
 264 27 264 27 248 19 c 128,-1,72
 232 11 232 11 216.5 7 c 128,-1,73
 201 3 201 3 187.5 1.5 c 128,-1,74
 174 0 174 0 165 0 c 0,0,1
EndSplineSet
Validated: 1
EndChar

StartChar: a
Encoding: 97 97 171
Width: 338
Flags: W
LayerCount: 2
Fore
SplineSet
142 497 m 256,0,1
 170 497 170 497 193 486.5 c 128,-1,2
 216 476 216 476 232.5 458 c 128,-1,3
 249 440 249 440 258.5 415.5 c 128,-1,4
 268 391 268 391 268 363 c 2,5,-1
 268 246 l 1,6,-1
 268 128 l 1,7,-1
 268 -1 l 1,8,-1
 235 -1 l 1,9,-1
 235 40 l 1,10,11
 216 19 216 19 190 6.5 c 128,-1,12
 164 -6 164 -6 134 -6 c 0,13,14
 106 -6 106 -6 81.5 4.5 c 128,-1,15
 57 15 57 15 39 33 c 128,-1,16
 21 51 21 51 10.5 75.5 c 128,-1,17
 0 100 0 100 0 128 c 2,18,-1
 0 156 l 2,19,20
 0 218 0 218 76 246 c 0,21,22
 85 250 85 250 106.5 258 c 128,-1,23
 128 266 128 266 152.5 275.5 c 128,-1,24
 177 285 177 285 200 293.5 c 128,-1,25
 223 302 223 302 235 307 c 1,26,-1
 235 363 l 2,27,28
 235 405 235 405 209.5 434.5 c 128,-1,29
 184 464 184 464 142 464 c 0,30,31
 121 464 121 464 103 456 c 128,-1,32
 85 448 85 448 71 434.5 c 128,-1,33
 57 421 57 421 49 402.5 c 128,-1,34
 41 384 41 384 41 363 c 1,35,-1
 8 363 l 1,36,37
 8 391 8 391 18.5 415.5 c 128,-1,38
 29 440 29 440 47 458 c 128,-1,39
 65 476 65 476 89.5 486.5 c 128,-1,40
 114 497 114 497 142 497 c 256,0,1
235 246 m 1,41,-1
 235 271 l 1,42,43
 220 265 220 265 198 257 c 128,-1,44
 176 249 176 249 154 240.5 c 128,-1,45
 132 232 132 232 114 225 c 128,-1,46
 96 218 96 218 88 215 c 0,47,48
 69 208 69 208 51 194 c 128,-1,49
 33 180 33 180 33 156 c 2,50,-1
 33 128 l 2,51,52
 33 107 33 107 41 88.5 c 128,-1,53
 49 70 49 70 62.5 56.5 c 128,-1,54
 76 43 76 43 94.5 35 c 128,-1,55
 113 27 113 27 134 27 c 256,56,57
 155 27 155 27 173.5 35 c 128,-1,58
 192 43 192 43 205.5 56.5 c 128,-1,59
 219 70 219 70 227 88.5 c 128,-1,60
 235 107 235 107 235 128 c 2,61,-1
 235 246 l 1,41,-1
EndSplineSet
Validated: 1
EndChar

StartChar: b
Encoding: 98 98 172
Width: 338
Flags: W
LayerCount: 2
Fore
SplineSet
134 497 m 0,0,1
 162 497 162 497 186.5 486.5 c 128,-1,2
 211 476 211 476 229 458 c 128,-1,3
 247 440 247 440 257.5 415.5 c 128,-1,4
 268 391 268 391 268 363 c 2,5,-1
 268 128 l 2,6,7
 268 100 268 100 257.5 75.5 c 128,-1,8
 247 51 247 51 229 33 c 128,-1,9
 211 15 211 15 186.5 4.5 c 128,-1,10
 162 -6 162 -6 134 -6 c 0,11,12
 104 -6 104 -6 78 6.5 c 128,-1,13
 52 19 52 19 33 40 c 1,14,-1
 33 -1 l 1,15,-1
 0 -1 l 1,16,-1
 0 128 l 1,17,-1
 0 363 l 1,18,-1
 0 716 l 1,19,-1
 33 716 l 1,20,-1
 33 451 l 1,21,22
 52 473 52 473 78 485 c 128,-1,23
 104 497 104 497 134 497 c 0,0,1
235 363 m 2,24,25
 235 384 235 384 227 402.5 c 128,-1,26
 219 421 219 421 205.5 434.5 c 128,-1,27
 192 448 192 448 173.5 456 c 128,-1,28
 155 464 155 464 134 464 c 256,29,30
 113 464 113 464 94.5 456 c 128,-1,31
 76 448 76 448 62.5 434.5 c 128,-1,32
 49 421 49 421 41 402.5 c 128,-1,33
 33 384 33 384 33 363 c 2,34,-1
 33 128 l 2,35,36
 33 107 33 107 41 88.5 c 128,-1,37
 49 70 49 70 62.5 56.5 c 128,-1,38
 76 43 76 43 94.5 35 c 128,-1,39
 113 27 113 27 134 27 c 256,40,41
 155 27 155 27 173.5 35 c 128,-1,42
 192 43 192 43 205.5 56.5 c 128,-1,43
 219 70 219 70 227 88.5 c 128,-1,44
 235 107 235 107 235 128 c 2,45,-1
 235 363 l 2,24,25
EndSplineSet
Validated: 1
EndChar

StartChar: c
Encoding: 99 99 173
Width: 338
Flags: W
LayerCount: 2
Fore
SplineSet
134 27 m 256,0,1
 155 27 155 27 173.5 35 c 128,-1,2
 192 43 192 43 205.5 56.5 c 128,-1,3
 219 70 219 70 227 88.5 c 128,-1,4
 235 107 235 107 235 128 c 1,5,-1
 268 128 l 1,6,7
 268 100 268 100 257.5 75.5 c 128,-1,8
 247 51 247 51 229 33 c 128,-1,9
 211 15 211 15 186.5 4.5 c 128,-1,10
 162 -6 162 -6 134 -6 c 256,11,12
 106 -6 106 -6 81.5 4.5 c 128,-1,13
 57 15 57 15 39 33 c 128,-1,14
 21 51 21 51 10.5 75.5 c 128,-1,15
 0 100 0 100 0 128 c 2,16,-1
 0 363 l 2,17,18
 0 391 0 391 10.5 415.5 c 128,-1,19
 21 440 21 440 39 458 c 128,-1,20
 57 476 57 476 81.5 486.5 c 128,-1,21
 106 497 106 497 134 497 c 256,22,23
 162 497 162 497 186.5 486.5 c 128,-1,24
 211 476 211 476 229 458 c 128,-1,25
 247 440 247 440 257.5 415.5 c 128,-1,26
 268 391 268 391 268 363 c 1,27,-1
 235 363 l 1,28,29
 235 384 235 384 227 402.5 c 128,-1,30
 219 421 219 421 205.5 434.5 c 128,-1,31
 192 448 192 448 173.5 456 c 128,-1,32
 155 464 155 464 134 464 c 256,33,34
 113 464 113 464 94.5 456 c 128,-1,35
 76 448 76 448 62.5 434.5 c 128,-1,36
 49 421 49 421 41 402.5 c 128,-1,37
 33 384 33 384 33 363 c 2,38,-1
 33 128 l 2,39,40
 33 107 33 107 41 88.5 c 128,-1,41
 49 70 49 70 62.5 56.5 c 128,-1,42
 76 43 76 43 94.5 35 c 128,-1,43
 113 27 113 27 134 27 c 256,0,1
EndSplineSet
Validated: 1
EndChar

StartChar: degree
Encoding: 176 176 174
Width: 202
Flags: W
LayerCount: 2
Fore
SplineSet
101 485 m 256,0,1
 80 485 80 485 61.5 493 c 128,-1,2
 43 501 43 501 29.5 514.5 c 128,-1,3
 16 528 16 528 8 546.5 c 128,-1,4
 0 565 0 565 0 586 c 256,5,6
 0 607 0 607 8 625.5 c 128,-1,7
 16 644 16 644 29.5 657.5 c 128,-1,8
 43 671 43 671 61.5 679 c 128,-1,9
 80 687 80 687 101 687 c 256,10,11
 122 687 122 687 140 679 c 128,-1,12
 158 671 158 671 172 657.5 c 128,-1,13
 186 644 186 644 194 625.5 c 128,-1,14
 202 607 202 607 202 586 c 256,15,16
 202 565 202 565 194 546.5 c 128,-1,17
 186 528 186 528 172 514.5 c 128,-1,18
 158 501 158 501 140 493 c 128,-1,19
 122 485 122 485 101 485 c 256,0,1
101 654 m 0,20,21
 72 654 72 654 52.5 634 c 128,-1,22
 33 614 33 614 33 586 c 256,23,24
 33 558 33 558 52.5 538 c 128,-1,25
 72 518 72 518 101 518 c 0,26,27
 129 518 129 518 148.5 538 c 128,-1,28
 168 558 168 558 168 586 c 256,29,30
 168 614 168 614 148.5 634 c 128,-1,31
 129 654 129 654 101 654 c 0,20,21
EndSplineSet
Validated: 1
EndChar

StartChar: ordmasculine
Encoding: 186 186 175
Width: 94
Flags: W
LayerCount: 2
Fore
SplineSet
46 686 m 0,0,1
 66 686 66 686 79.5 672.5 c 128,-1,2
 93 659 93 659 93 639 c 2,3,-1
 93 526 l 2,4,5
 93 506 93 506 79.5 492.5 c 128,-1,6
 66 479 66 479 46 479 c 0,7,8
 27 479 27 479 13.5 492.5 c 128,-1,9
 0 506 0 506 0 526 c 2,10,-1
 0 639 l 2,11,12
 0 659 0 659 13.5 672.5 c 128,-1,13
 27 686 27 686 46 686 c 0,0,1
46 499 m 256,14,15
 57 499 57 499 65 507 c 128,-1,16
 73 515 73 515 73 526 c 2,17,-1
 73 639 l 2,18,19
 73 650 73 650 65 658 c 128,-1,20
 57 666 57 666 46 666 c 256,21,22
 35 666 35 666 27 658 c 128,-1,23
 19 650 19 650 19 639 c 2,24,-1
 19 526 l 2,25,26
 19 515 19 515 27 507 c 128,-1,27
 35 499 35 499 46 499 c 256,14,15
EndSplineSet
Validated: 1
EndChar

StartChar: onesuperior
Encoding: 185 185 176
Width: 63
Flags: W
LayerCount: 2
Fore
SplineSet
49 500 m 1,0,-1
 63 500 l 1,1,-1
 63 481 l 1,2,-1
 8 481 l 1,3,-1
 8 500 l 1,4,-1
 29 500 l 1,5,-1
 29 662 l 1,6,-1
 7 653 l 1,7,-1
 0 672 l 1,8,-1
 29 683 l 1,9,-1
 29 685 l 1,10,-1
 49 685 l 1,11,-1
 49 500 l 1,12,-1
 49 500 l 1,0,-1
EndSplineSet
Validated: 5
EndChar

StartChar: twosuperior
Encoding: 178 178 177
Width: 94
Flags: W
LayerCount: 2
Fore
SplineSet
19 500 m 1,0,-1
 93 500 l 1,1,-1
 93 481 l 1,2,-1
 0 481 l 1,3,-1
 0 526 l 2,4,5
 0 551 0 551 13.5 566 c 128,-1,6
 27 581 27 581 41 592 c 0,7,8
 54 603 54 603 63.5 613 c 128,-1,9
 73 623 73 623 73 639 c 0,10,11
 73 650 73 650 65 658 c 128,-1,12
 57 666 57 666 46 666 c 256,13,14
 35 666 35 666 27 658 c 128,-1,15
 19 650 19 650 19 639 c 2,16,-1
 19 634 l 1,17,-1
 0 634 l 1,18,-1
 0 639 l 2,19,20
 0 659 0 659 13.5 672.5 c 128,-1,21
 27 686 27 686 46 686 c 0,22,23
 64 686 64 686 77.5 674 c 128,-1,24
 91 662 91 662 93 644 c 2,25,-1
 93 639 l 2,26,27
 93 616 93 616 80 602 c 128,-1,28
 67 588 67 588 53 577 c 256,29,30
 39 566 39 566 29 555 c 128,-1,31
 19 544 19 544 19 526 c 2,32,-1
 19 500 l 1,0,-1
EndSplineSet
Validated: 1
EndChar

StartChar: threesuperior
Encoding: 179 179 178
Width: 94
Flags: W
LayerCount: 2
Fore
SplineSet
93 619 m 1,0,1
 93 597 93 597 75 582 c 1,2,3
 93 569 93 569 93 546 c 2,4,-1
 93 526 l 2,5,6
 93 506 93 506 79.5 492.5 c 128,-1,7
 66 479 66 479 46 479 c 0,8,9
 27 479 27 479 13.5 492.5 c 128,-1,10
 0 506 0 506 0 526 c 2,11,-1
 0 531 l 1,12,-1
 19 531 l 1,13,-1
 19 526 l 2,14,15
 19 515 19 515 27 507 c 128,-1,16
 35 499 35 499 46 499 c 256,17,18
 57 499 57 499 65 507 c 128,-1,19
 73 515 73 515 73 526 c 2,20,-1
 73 546 l 2,21,22
 73 557 73 557 65 564.5 c 128,-1,23
 57 572 57 572 46 572 c 2,24,-1
 31 572 l 1,25,-1
 31 592 l 1,26,-1
 47 592 l 2,27,28
 58 593 58 593 65.5 600.5 c 128,-1,29
 73 608 73 608 73 619 c 2,30,-1
 73 639 l 2,31,32
 73 650 73 650 65 658 c 128,-1,33
 57 666 57 666 46 666 c 256,34,35
 35 666 35 666 27 658 c 128,-1,36
 19 650 19 650 19 639 c 2,37,-1
 19 634 l 1,38,-1
 0 634 l 1,39,-1
 0 639 l 2,40,41
 0 659 0 659 13.5 672.5 c 128,-1,42
 27 686 27 686 46 686 c 0,43,44
 66 686 66 686 79.5 672.5 c 128,-1,45
 93 659 93 659 93 639 c 2,46,-1
 93 619 l 1,47,-1
 93 619 l 1,0,1
EndSplineSet
Validated: 5
EndChar

StartChar: ordfeminine
Encoding: 170 170 179
Width: 113
Flags: W
LayerCount: 2
Fore
SplineSet
60 683 m 0,0,1
 83 683 83 683 98 667 c 128,-1,2
 113 651 113 651 113 627 c 2,3,-1
 113 480 l 1,4,-1
 93 480 l 1,5,-1
 93 491 l 1,6,7
 75 478 75 478 56 478 c 0,8,9
 33 478 33 478 16.5 494.5 c 128,-1,10
 0 511 0 511 0 534 c 2,11,-1
 0 545 l 2,12,13
 0 573 0 573 32 584 c 0,14,15
 39 587 39 587 59.5 594.5 c 128,-1,16
 80 602 80 602 93 607 c 1,17,-1
 93 627 l 2,18,19
 93 643 93 643 83.5 653 c 128,-1,20
 74 663 74 663 60 663 c 0,21,22
 45 663 45 663 34 652.5 c 128,-1,23
 23 642 23 642 23 627 c 2,24,-1
 23 624 l 1,25,-1
 3 624 l 1,26,-1
 3 627 l 2,27,28
 3 650 3 650 19.5 666.5 c 128,-1,29
 36 683 36 683 60 683 c 0,0,1
56 498 m 256,30,31
 71 498 71 498 82 508.5 c 128,-1,32
 93 519 93 519 93 534 c 2,33,-1
 93 586 l 1,34,35
 70 578 70 578 57 573 c 128,-1,36
 44 568 44 568 39 566 c 0,37,38
 32 563 32 563 26 558 c 128,-1,39
 20 553 20 553 20 545 c 2,40,-1
 20 534 l 2,41,42
 20 519 20 519 30.5 508.5 c 128,-1,43
 41 498 41 498 56 498 c 256,30,31
EndSplineSet
Validated: 1
EndChar

StartChar: ae
Encoding: 230 230 180
Width: 503
Flags: W
LayerCount: 2
Fore
SplineSet
268 135 m 1,0,-1
 268 132 l 2,1,2
 269 112 269 112 277 94 c 128,-1,3
 285 76 285 76 299 62.5 c 128,-1,4
 313 49 313 49 331 41.5 c 128,-1,5
 349 34 349 34 369 34 c 0,6,7
 390 34 390 34 408.5 42 c 128,-1,8
 427 50 427 50 440.5 64 c 128,-1,9
 454 78 454 78 462 96 c 128,-1,10
 470 114 470 114 470 135 c 1,11,-1
 503 135 l 1,12,13
 503 107 503 107 492.5 82.5 c 128,-1,14
 482 58 482 58 464 40 c 128,-1,15
 446 22 446 22 421.5 11.5 c 128,-1,16
 397 1 397 1 369 1 c 0,17,18
 339 1 339 1 313 13.5 c 128,-1,19
 287 26 287 26 268 47 c 1,20,-1
 268 6 l 1,21,-1
 235 6 l 1,22,-1
 235 47 l 1,23,24
 216 26 216 26 190 13.5 c 128,-1,25
 164 1 164 1 134 1 c 0,26,27
 106 1 106 1 81.5 11.5 c 128,-1,28
 57 22 57 22 39 40 c 128,-1,29
 21 58 21 58 10.5 82.5 c 128,-1,30
 0 107 0 107 0 135 c 2,31,-1
 0 163 l 2,32,33
 0 225 0 225 76 254 c 0,34,35
 85 257 85 257 106 265 c 128,-1,36
 127 273 127 273 151.5 282.5 c 128,-1,37
 176 292 176 292 199 300.5 c 128,-1,38
 222 309 222 309 235 314 c 1,39,-1
 235 370 l 1,40,-1
 235 374 l 2,41,42
 234 415 234 415 209 443 c 128,-1,43
 184 471 184 471 142 471 c 0,44,45
 121 471 121 471 103 463 c 128,-1,46
 85 455 85 455 71 441.5 c 128,-1,47
 57 428 57 428 49 409.5 c 128,-1,48
 41 391 41 391 41 370 c 1,49,-1
 8 370 l 1,50,51
 8 398 8 398 18.5 422.5 c 128,-1,52
 29 447 29 447 47 465.5 c 128,-1,53
 65 484 65 484 89.5 494.5 c 128,-1,54
 114 505 114 505 142 505 c 0,55,56
 180 505 180 505 208.5 486 c 128,-1,57
 237 467 237 467 253 437 c 1,58,59
 270 467 270 467 300.5 486 c 128,-1,60
 331 505 331 505 369 505 c 0,61,62
 397 505 397 505 421.5 494.5 c 128,-1,63
 446 484 446 484 464 466 c 128,-1,64
 482 448 482 448 492.5 423.5 c 128,-1,65
 503 399 503 399 503 371 c 2,66,-1
 503 370 l 2,67,68
 503 309 503 309 427 280 c 0,69,70
 418 277 418 277 397 269 c 128,-1,71
 376 261 376 261 351.5 251.5 c 128,-1,72
 327 242 327 242 304 233.5 c 128,-1,73
 281 225 281 225 268 220 c 1,74,-1
 268 135 l 1,0,-1
369 471 m 0,75,76
 327 471 327 471 298.5 443 c 128,-1,77
 270 415 270 415 268 373 c 2,78,-1
 268 370 l 1,79,-1
 268 255 l 1,80,81
 283 261 283 261 305 269.5 c 128,-1,82
 327 278 327 278 349 286 c 128,-1,83
 371 294 371 294 389.5 301 c 128,-1,84
 408 308 408 308 416 311 c 0,85,86
 434 319 434 319 452 333 c 128,-1,87
 470 347 470 347 470 371 c 0,88,89
 470 392 470 392 462 410 c 128,-1,90
 454 428 454 428 440.5 441.5 c 128,-1,91
 427 455 427 455 408.5 463 c 128,-1,92
 390 471 390 471 369 471 c 0,75,76
134 34 m 0,93,94
 176 34 176 34 204.5 62.5 c 128,-1,95
 233 91 233 91 235 132 c 2,96,-1
 235 135 l 1,97,-1
 235 278 l 1,98,99
 220 272 220 272 198 264 c 128,-1,100
 176 256 176 256 154 248 c 128,-1,101
 132 240 132 240 114 233 c 128,-1,102
 96 226 96 226 88 223 c 0,103,104
 69 215 69 215 51 201 c 128,-1,105
 33 187 33 187 33 163 c 2,106,-1
 33 135 l 2,107,108
 33 114 33 114 41 96 c 128,-1,109
 49 78 49 78 62.5 64 c 128,-1,110
 76 50 76 50 94.5 42 c 128,-1,111
 113 34 113 34 134 34 c 0,93,94
EndSplineSet
Validated: 1
EndChar

StartChar: oe
Encoding: 339 339 181
Width: 505
Flags: W
LayerCount: 2
Fore
SplineSet
428 280 m 0,0,1
 419 277 419 277 397.5 269 c 128,-1,2
 376 261 376 261 351.5 251.5 c 128,-1,3
 327 242 327 242 304 233.5 c 128,-1,4
 281 225 281 225 268 220 c 1,5,-1
 268 135 l 2,6,7
 268 114 268 114 276 96 c 128,-1,8
 284 78 284 78 298 64 c 128,-1,9
 312 50 312 50 330 42 c 128,-1,10
 348 34 348 34 369 34 c 256,11,12
 390 34 390 34 408.5 42 c 128,-1,13
 427 50 427 50 440.5 64 c 128,-1,14
 454 78 454 78 462 96 c 128,-1,15
 470 114 470 114 470 135 c 1,16,-1
 504 135 l 1,17,18
 504 107 504 107 493.5 82.5 c 128,-1,19
 483 58 483 58 464.5 40 c 128,-1,20
 446 22 446 22 421.5 11.5 c 128,-1,21
 397 1 397 1 369 1 c 0,22,23
 331 1 331 1 300 20 c 128,-1,24
 269 39 269 39 252 71 c 1,25,26
 235 39 235 39 203.5 20 c 128,-1,27
 172 1 172 1 134 1 c 0,28,29
 106 1 106 1 81.5 11.5 c 128,-1,30
 57 22 57 22 39 40 c 128,-1,31
 21 58 21 58 10.5 82.5 c 128,-1,32
 0 107 0 107 0 135 c 2,33,-1
 0 370 l 2,34,35
 0 398 0 398 10.5 422.5 c 128,-1,36
 21 447 21 447 39 465.5 c 128,-1,37
 57 484 57 484 81.5 494.5 c 128,-1,38
 106 505 106 505 134 505 c 0,39,40
 172 505 172 505 203.5 485.5 c 128,-1,41
 235 466 235 466 252 435 c 1,42,43
 269 466 269 466 300 485.5 c 128,-1,44
 331 505 331 505 369 505 c 0,45,46
 397 505 397 505 421.5 494.5 c 128,-1,47
 446 484 446 484 464 466 c 128,-1,48
 482 448 482 448 493 423.5 c 128,-1,49
 504 399 504 399 504 371 c 2,50,-1
 504 370 l 2,51,52
 502 309 502 309 428 280 c 0,0,1
268 255 m 1,53,54
 283 261 283 261 305 269.5 c 128,-1,55
 327 278 327 278 349 286 c 128,-1,56
 371 294 371 294 389.5 301 c 128,-1,57
 408 308 408 308 416 311 c 0,58,59
 435 319 435 319 452.5 333 c 128,-1,60
 470 347 470 347 470 371 c 0,61,62
 470 392 470 392 462 410 c 128,-1,63
 454 428 454 428 440.5 441.5 c 128,-1,64
 427 455 427 455 408.5 463 c 128,-1,65
 390 471 390 471 369 471 c 256,66,67
 348 471 348 471 330 463 c 128,-1,68
 312 455 312 455 298 441.5 c 128,-1,69
 284 428 284 428 276 409.5 c 128,-1,70
 268 391 268 391 268 370 c 2,71,-1
 268 255 l 1,53,54
235 370 m 2,72,73
 235 391 235 391 227 409.5 c 128,-1,74
 219 428 219 428 205.5 441.5 c 128,-1,75
 192 455 192 455 173.5 463 c 128,-1,76
 155 471 155 471 134 471 c 256,77,78
 113 471 113 471 94.5 463 c 128,-1,79
 76 455 76 455 62.5 441.5 c 128,-1,80
 49 428 49 428 41 409.5 c 128,-1,81
 33 391 33 391 33 370 c 2,82,-1
 33 135 l 2,83,84
 33 114 33 114 41 96 c 128,-1,85
 49 78 49 78 62.5 64 c 128,-1,86
 76 50 76 50 94.5 42 c 128,-1,87
 113 34 113 34 134 34 c 256,88,89
 155 34 155 34 173.5 42 c 128,-1,90
 192 50 192 50 205.5 64 c 128,-1,91
 219 78 219 78 227 96 c 128,-1,92
 235 114 235 114 235 135 c 2,93,-1
 235 370 l 2,72,73
EndSplineSet
Validated: 1
EndChar

StartChar: Lslash
Encoding: 321 321 182
Width: 277
Flags: W
LayerCount: 2
Fore
SplineSet
-47.037109375 300.365234375 m 5,0,-1
 46.30078125 478.556640625 l 5,1,-1
 76 463 l 5,2,-1
 -17.337890625 284.80859375 l 5,3,-1
 -47.037109375 300.365234375 l 5,0,-1
33 32 m 1,4,-1
 247 32 l 1,5,-1
 247 -1 l 1,6,-1
 33 -1 l 1,7,-1
 0 -1 l 1,8,-1
 0 -1 l 1,9,-1
 0 675 l 1,10,-1
 33 675 l 1,11,-1
 33 32 l 1,12,-1
 33 32 l 1,4,-1
EndSplineSet
Validated: 5
EndChar

StartChar: lslash
Encoding: 322 322 183
Width: 113
Flags: W
LayerCount: 2
Fore
SplineSet
-47.037109375 300.365234375 m 1,0,-1
 46.30078125 478.556640625 l 1,1,-1
 76 463 l 1,2,-1
 -17.337890625 284.80859375 l 1,3,-1
 -47.037109375 300.365234375 l 1,0,-1
33 -1 m 1,4,-1
 0 -1 l 1,5,-1
 0 716 l 1,6,-1
 33 716 l 1,7,-1
 33 -1 l 1,8,-1
 33 -1 l 1,4,-1
EndSplineSet
Validated: 5
EndChar

StartChar: Aogonek
Encoding: 260 260 184
Width: 376
Flags: W
LayerCount: 2
Fore
SplineSet
302 -1 m 1,0,-1
 255 211 l 1,1,-1
 61 211 l 1,2,-1
 14 -1 l 1,3,-1
 -20 -1 l 1,4,-1
 130 675 l 1,5,-1
 186 675 l 1,6,-1
 336 -1 l 1,7,-1
 302 -1 l 1,0,-1
68 244 m 1,8,-1
 248 244 l 1,9,-1
 158 648 l 1,10,-1
 68 244 l 1,8,-1
EndSplineSet
Refer: 137 184 S 1 0 0 1 293 0 2
Validated: 5
EndChar

StartChar: aogonek
Encoding: 261 261 185
Width: 338
Flags: W
LayerCount: 2
Fore
SplineSet
142 497 m 256,0,1
 170 497 170 497 193 486.5 c 0,2,3
 216 476 216 476 232.5 458 c 0,4,5
 249 440 249 440 258.5 415.5 c 0,6,7
 268 391 268 391 268 363 c 2,8,-1
 268 246 l 1,9,-1
 268 128 l 1,10,-1
 268 -1 l 1,11,-1
 235 -1 l 1,12,-1
 235 40 l 1,13,14
 216 19 216 19 190 6.5 c 0,15,16
 164 -6 164 -6 134 -6 c 0,17,18
 106 -6 106 -6 81.5 4.5 c 0,19,20
 57 15 57 15 39 33 c 0,21,22
 21 51 21 51 10.5 75.5 c 0,23,24
 0 100 0 100 0 128 c 2,25,-1
 0 156 l 2,26,27
 0 218 0 218 76 246 c 0,28,29
 85 250 85 250 106.5 258 c 0,30,31
 128 266 128 266 152.5 275.5 c 0,32,33
 177 285 177 285 200 293.5 c 0,34,35
 223 302 223 302 235 307 c 1,36,-1
 235 363 l 2,37,38
 235 405 235 405 209.5 434.5 c 0,39,40
 184 464 184 464 142 464 c 0,41,42
 121 464 121 464 103 456 c 0,43,44
 85 448 85 448 71 434.5 c 0,45,46
 57 421 57 421 49 402.5 c 0,47,48
 41 384 41 384 41 363 c 1,49,-1
 8 363 l 1,50,51
 8 391 8 391 18.5 415.5 c 0,52,53
 29 440 29 440 47 458 c 0,54,55
 65 476 65 476 89.5 486.5 c 0,56,57
 114 497 114 497 142 497 c 256,0,1
235 246 m 1,58,-1
 235 271 l 1,59,60
 220 265 220 265 198 257 c 0,61,62
 176 249 176 249 154 240.5 c 0,63,64
 132 232 132 232 114 225 c 0,65,66
 96 218 96 218 88 215 c 0,67,68
 69 208 69 208 51 194 c 0,69,70
 33 180 33 180 33 156 c 2,71,-1
 33 128 l 2,72,73
 33 107 33 107 41 88.5 c 0,74,75
 49 70 49 70 62.5 56.5 c 0,76,77
 76 43 76 43 94.5 35 c 0,78,79
 113 27 113 27 134 27 c 256,80,81
 155 27 155 27 173.5 35 c 0,82,83
 192 43 192 43 205.5 56.5 c 0,84,85
 219 70 219 70 227 88.5 c 0,86,87
 235 107 235 107 235 128 c 2,88,-1
 235 246 l 1,58,-1
EndSplineSet
Refer: 137 184 S 1 0 0 1 227 1 2
Validated: 5
EndChar

StartChar: Cacute
Encoding: 262 262 186
Width: 359
Flags: W
LayerCount: 2
Fore
SplineSet
145 27 m 256,0,1
 168 27 168 27 188 36 c 0,2,3
 208 45 208 45 223 60 c 0,4,5
 238 75 238 75 247 95.5 c 0,6,7
 256 116 256 116 256 139 c 1,8,-1
 289 139 l 1,9,10
 289 109 289 109 277.5 82.5 c 0,11,12
 266 56 266 56 246.5 36.5 c 0,13,14
 227 17 227 17 201 5.5 c 0,15,16
 175 -6 175 -6 145 -6 c 256,17,18
 115 -6 115 -6 88.5 5.5 c 0,19,20
 62 17 62 17 42.5 36.5 c 0,21,22
 23 56 23 56 11.5 82.5 c 0,23,24
 0 109 0 109 0 139 c 2,25,-1
 0 534 l 2,26,27
 0 564 0 564 11.5 590.5 c 0,28,29
 23 617 23 617 42.5 636.5 c 0,30,31
 62 656 62 656 88.5 667.5 c 0,32,33
 115 679 115 679 145 679 c 256,34,35
 175 679 175 679 201 667.5 c 0,36,37
 227 656 227 656 246.5 636.5 c 0,38,39
 266 617 266 617 277.5 590.5 c 0,40,41
 289 564 289 564 289 534 c 1,42,-1
 256 534 l 1,43,44
 256 557 256 557 247 577 c 0,45,46
 238 597 238 597 223 612 c 0,47,48
 208 627 208 627 188 636 c 0,49,50
 168 645 168 645 145 645 c 256,51,52
 122 645 122 645 101.5 636 c 0,53,54
 81 627 81 627 66 612 c 0,55,56
 51 597 51 597 42 577 c 0,57,58
 33 557 33 557 33 534 c 2,59,-1
 33 139 l 2,60,61
 33 116 33 116 42 95.5 c 0,62,63
 51 75 51 75 66 60 c 0,64,65
 81 45 81 45 101.5 36 c 0,66,67
 122 27 122 27 145 27 c 256,0,1
EndSplineSet
Refer: 98 180 S 1 0 0 1 40 183 2
Validated: 5
EndChar

StartChar: cacute
Encoding: 263 263 187
Width: 338
Flags: W
LayerCount: 2
Fore
SplineSet
134 27 m 256,0,1
 155 27 155 27 173.5 35 c 0,2,3
 192 43 192 43 205.5 56.5 c 0,4,5
 219 70 219 70 227 88.5 c 0,6,7
 235 107 235 107 235 128 c 1,8,-1
 268 128 l 1,9,10
 268 100 268 100 257.5 75.5 c 0,11,12
 247 51 247 51 229 33 c 0,13,14
 211 15 211 15 186.5 4.5 c 0,15,16
 162 -6 162 -6 134 -6 c 256,17,18
 106 -6 106 -6 81.5 4.5 c 0,19,20
 57 15 57 15 39 33 c 0,21,22
 21 51 21 51 10.5 75.5 c 0,23,24
 0 100 0 100 0 128 c 2,25,-1
 0 363 l 2,26,27
 0 391 0 391 10.5 415.5 c 0,28,29
 21 440 21 440 39 458 c 0,30,31
 57 476 57 476 81.5 486.5 c 0,32,33
 106 497 106 497 134 497 c 256,34,35
 162 497 162 497 186.5 486.5 c 0,36,37
 211 476 211 476 229 458 c 0,38,39
 247 440 247 440 257.5 415.5 c 0,40,41
 268 391 268 391 268 363 c 1,42,-1
 235 363 l 1,43,44
 235 384 235 384 227 402.5 c 0,45,46
 219 421 219 421 205.5 434.5 c 0,47,48
 192 448 192 448 173.5 456 c 0,49,50
 155 464 155 464 134 464 c 256,51,52
 113 464 113 464 94.5 456 c 0,53,54
 76 448 76 448 62.5 434.5 c 0,55,56
 49 421 49 421 41 402.5 c 0,57,58
 33 384 33 384 33 363 c 2,59,-1
 33 128 l 2,60,61
 33 107 33 107 41 88.5 c 0,62,63
 49 70 49 70 62.5 56.5 c 0,64,65
 76 43 76 43 94.5 35 c 0,66,67
 113 27 113 27 134 27 c 256,0,1
EndSplineSet
Refer: 98 180 S 1 0 0 1 35 0 2
Validated: 5
EndChar

StartChar: Nacute
Encoding: 323 323 188
Width: 348
Flags: W
LayerCount: 2
Fore
SplineSet
245 675 m 1,0,-1
 278 675 l 1,1,-1
 278 -1 l 1,2,-1
 245 -1 l 1,3,-1
 33 583 l 1,4,-1
 33 -1 l 1,5,-1
 0 -1 l 1,6,-1
 0 675 l 1,7,-1
 33 675 l 1,8,-1
 245 91 l 1,9,-1
 245 675 l 1,10,-1
 245 675 l 1,0,-1
EndSplineSet
Refer: 98 180 S 1 0 0 1 40 183 2
Validated: 5
EndChar

StartChar: nacute
Encoding: 324 324 189
Width: 338
Flags: W
LayerCount: 2
Fore
SplineSet
134 497 m 0,0,1
 162 497 162 497 186.5 486.5 c 0,2,3
 211 476 211 476 229 458 c 0,4,5
 247 440 247 440 257.5 415.5 c 0,6,7
 268 391 268 391 268 363 c 2,8,-1
 268 246 l 1,9,-1
 268 -1 l 1,10,-1
 235 -1 l 1,11,-1
 235 246 l 1,12,-1
 235 363 l 2,13,14
 235 384 235 384 227 402.5 c 0,15,16
 219 421 219 421 205.5 434.5 c 0,17,18
 192 448 192 448 173.5 456 c 0,19,20
 155 464 155 464 134 464 c 256,21,22
 113 464 113 464 94.5 456 c 0,23,24
 76 448 76 448 62.5 434.5 c 0,25,26
 49 421 49 421 41 402.5 c 0,27,28
 33 384 33 384 33 363 c 2,29,-1
 33 246 l 1,30,-1
 33 -1 l 1,31,-1
 0 -1 l 1,32,-1
 0 246 l 1,33,-1
 0 363 l 1,34,-1
 0 492 l 1,35,-1
 33 492 l 1,36,-1
 33 451 l 1,37,38
 52 473 52 473 78 485 c 0,39,40
 104 497 104 497 134 497 c 0,0,1
EndSplineSet
Refer: 98 180 S 1 0 0 1 35 0 2
Validated: 5
EndChar

StartChar: sacute
Encoding: 347 347 190
Width: 338
Flags: W
LayerCount: 2
Fore
SplineSet
142 261 m 0,0,1
 164 250 164 250 186.5 237.5 c 0,2,3
 209 225 209 225 227 209 c 0,4,5
 245 193 245 193 256.5 173.5 c 0,6,7
 268 154 268 154 268 128 c 0,8,9
 268 100 268 100 257.5 75.5 c 0,10,11
 247 51 247 51 229 33 c 0,12,13
 211 15 211 15 186.5 4.5 c 0,14,15
 162 -6 162 -6 134 -6 c 256,16,17
 106 -6 106 -6 81.5 4.5 c 0,18,19
 57 15 57 15 39 33 c 0,20,21
 21 51 21 51 10.5 75.5 c 0,22,23
 0 100 0 100 0 128 c 1,24,-1
 33 128 l 1,25,26
 33 107 33 107 41 88.5 c 0,27,28
 49 70 49 70 62.5 56.5 c 0,29,30
 76 43 76 43 94.5 35 c 0,31,32
 113 27 113 27 134 27 c 256,33,34
 155 27 155 27 173.5 35 c 0,35,36
 192 43 192 43 205.5 56.5 c 0,37,38
 219 70 219 70 227 88.5 c 0,39,40
 235 107 235 107 235 128 c 0,41,42
 235 146 235 146 226 160.5 c 0,43,44
 217 175 217 175 202 187 c 0,45,46
 187 199 187 199 167.5 209.5 c 0,47,48
 148 220 148 220 127 231 c 0,49,50
 104 242 104 242 81.5 254.5 c 0,51,52
 59 267 59 267 41 282.5 c 0,53,54
 23 298 23 298 11.5 317.5 c 0,55,56
 0 337 0 337 0 363 c 0,57,58
 0 391 0 391 10.5 415.5 c 0,59,60
 21 440 21 440 39 458 c 0,61,62
 57 476 57 476 81.5 486.5 c 0,63,64
 106 497 106 497 134 497 c 256,65,66
 162 497 162 497 186.5 486.5 c 0,67,68
 211 476 211 476 229 458 c 0,69,70
 247 440 247 440 257.5 415.5 c 0,71,72
 268 391 268 391 268 363 c 1,73,-1
 235 363 l 1,74,75
 235 384 235 384 227 402.5 c 0,76,77
 219 421 219 421 205.5 434.5 c 0,78,79
 192 448 192 448 173.5 456 c 0,80,81
 155 464 155 464 134 464 c 256,82,83
 113 464 113 464 94.5 456 c 0,84,85
 76 448 76 448 62.5 434.5 c 0,86,87
 49 421 49 421 41 402.5 c 0,88,89
 33 384 33 384 33 363 c 0,90,91
 33 345 33 345 42 330.5 c 0,92,93
 51 316 51 316 66.5 304 c 0,94,95
 82 292 82 292 101.5 281.5 c 0,96,97
 121 271 121 271 142 261 c 0,0,1
EndSplineSet
Refer: 98 180 S 1 0 0 1 35 0 2
Validated: 5
EndChar

StartChar: Sacute
Encoding: 346 346 191
Width: 359
Flags: W
LayerCount: 2
Fore
SplineSet
152 356 m 0,0,1
 177 336 177 336 201.5 314.5 c 0,2,3
 226 293 226 293 245.5 267.5 c 0,4,5
 265 242 265 242 277 210.5 c 0,6,7
 289 179 289 179 289 139 c 0,8,9
 289 109 289 109 277.5 82.5 c 0,10,11
 266 56 266 56 246.5 36.5 c 0,12,13
 227 17 227 17 201 5.5 c 0,14,15
 175 -6 175 -6 145 -6 c 256,16,17
 115 -6 115 -6 88.5 5.5 c 0,18,19
 62 17 62 17 42.5 36.5 c 0,20,21
 23 56 23 56 11.5 82.5 c 0,22,23
 0 109 0 109 0 139 c 1,24,-1
 33 139 l 1,25,26
 33 116 33 116 42 95.5 c 0,27,28
 51 75 51 75 66 60 c 0,29,30
 81 45 81 45 101.5 36 c 0,31,32
 122 27 122 27 145 27 c 256,33,34
 168 27 168 27 188 36 c 0,35,36
 208 45 208 45 223 60 c 0,37,38
 238 75 238 75 247 95.5 c 0,39,40
 256 116 256 116 256 139 c 0,41,42
 256 173 256 173 245.5 200 c 0,43,44
 235 227 235 227 217.5 249.5 c 0,45,46
 200 272 200 272 177.5 291.5 c 0,47,48
 155 311 155 311 131 330 c 256,49,50
 107 349 107 349 83.5 369.5 c 0,51,52
 60 390 60 390 41.5 414 c 0,53,54
 23 438 23 438 11.5 467 c 0,55,56
 0 496 0 496 0 534 c 0,57,58
 0 564 0 564 11.5 590.5 c 0,59,60
 23 617 23 617 42.5 636.5 c 0,61,62
 62 656 62 656 88.5 667.5 c 0,63,64
 115 679 115 679 145 679 c 256,65,66
 175 679 175 679 201 667.5 c 0,67,68
 227 656 227 656 246.5 636.5 c 0,69,70
 266 617 266 617 277.5 590.5 c 0,71,72
 289 564 289 564 289 534 c 1,73,-1
 256 534 l 1,74,75
 256 557 256 557 247 577 c 0,76,77
 238 597 238 597 223 612 c 0,78,79
 208 627 208 627 188 636 c 0,80,81
 168 645 168 645 145 645 c 256,82,83
 122 645 122 645 101.5 636 c 0,84,85
 81 627 81 627 66 612 c 0,86,87
 51 597 51 597 42 577 c 0,88,89
 33 557 33 557 33 534 c 0,90,91
 33 502 33 502 43 477.5 c 0,92,93
 53 453 53 453 69.5 432 c 0,94,95
 86 411 86 411 107.5 392.5 c 0,96,97
 129 374 129 374 152 356 c 0,0,1
EndSplineSet
Refer: 98 180 S 1 0 0 1 40 183 2
Validated: 5
EndChar

StartChar: Zacute
Encoding: 377 377 192
Width: 321
Flags: W
LayerCount: 2
Fore
SplineSet
271 641 m 1,0,-1
 33 32 l 1,1,-1
 271 32 l 1,2,-1
 271 -1 l 1,3,-1
 0 -1 l 1,4,-1
 0 32 l 1,5,-1
 0 32 l 1,6,-1
 238 641 l 1,7,-1
 0 641 l 1,8,-1
 0 675 l 1,9,-1
 271 675 l 1,10,-1
 271 641 l 1,11,-1
 271 641 l 1,12,-1
 271 641 l 1,0,-1
EndSplineSet
Refer: 98 180 S 1 0 0 1 40 183 2
Validated: 5
EndChar

StartChar: Zdotaccent
Encoding: 379 379 193
Width: 321
Flags: W
LayerCount: 2
Fore
SplineSet
136 795 m 4,0,1
 125 795 125 795 118 802 c 132,-1,2
 111 809 111 809 111 820 c 260,3,4
 111 831 111 831 118 838 c 132,-1,5
 125 845 125 845 136 845 c 4,6,7
 146 845 146 845 153.5 838 c 132,-1,8
 161 831 161 831 161 820 c 260,9,10
 161 809 161 809 153.5 802 c 132,-1,11
 146 795 146 795 136 795 c 4,0,1
271 641 m 1,12,-1
 33 32 l 1,13,-1
 271 32 l 1,14,-1
 271 -1 l 1,15,-1
 0 -1 l 1,16,-1
 0 32 l 1,17,-1
 0 32 l 1,18,-1
 238 641 l 1,19,-1
 0 641 l 1,20,-1
 0 675 l 1,21,-1
 271 675 l 1,22,-1
 271 641 l 1,23,-1
 271 641 l 1,24,-1
 271 641 l 1,12,-1
EndSplineSet
Validated: 5
EndChar

StartChar: zacute
Encoding: 378 378 194
Width: 294
Flags: W
LayerCount: 2
Fore
SplineSet
234 492 m 1,0,-1
 234 459 l 1,1,-1
 234 459 l 1,2,-1
 234 459 l 1,3,-1
 17 32 l 1,4,-1
 234 32 l 1,5,-1
 234 -1 l 1,6,-1
 -20 -1 l 1,7,-1
 -20 32 l 1,8,-1
 -20 32 l 1,9,-1
 197 459 l 1,10,-1
 -20 459 l 1,11,-1
 -20 492 l 1,12,-1
 234 492 l 1,13,-1
 234 492 l 1,0,-1
  Spiro
    234 492 v
    234 459 v
    234 459 v
    234 459 v
    17 32 v
    234 32 v
    234 -1 v
    -20 -1 v
    -20 32 v
    -20 32 v
    197 459 v
    -20 459 v
    -20 492 v
    234 492 v
    0 0 z
  EndSpiro
EndSplineSet
Refer: 98 180 S 1 0 0 1 5 -1 2
Validated: 5
EndChar

StartChar: zdotaccent
Encoding: 380 380 195
Width: 294
Flags: W
LayerCount: 2
Fore
SplineSet
107 613 m 4,0,1
 96 613 96 613 89 620 c 132,-1,2
 82 627 82 627 82 638 c 260,3,4
 82 649 82 649 89 656 c 132,-1,5
 96 663 96 663 107 663 c 4,6,7
 117 663 117 663 124.5 656 c 132,-1,8
 132 649 132 649 132 638 c 260,9,10
 132 627 132 627 124.5 620 c 132,-1,11
 117 613 117 613 107 613 c 4,0,1
234 492 m 1,12,-1
 234 459 l 1,13,-1
 234 459 l 1,14,-1
 234 459 l 1,15,-1
 17 32 l 1,16,-1
 234 32 l 1,17,-1
 234 -1 l 1,18,-1
 -20 -1 l 1,19,-1
 -20 32 l 1,20,-1
 -20 32 l 1,21,-1
 197 459 l 1,22,-1
 -20 459 l 1,23,-1
 -20 492 l 1,24,-1
 234 492 l 1,25,-1
 234 492 l 1,12,-1
EndSplineSet
Validated: 5
EndChar

StartChar: Eogonek
Encoding: 280 280 196
Width: 313
Flags: W
LayerCount: 2
Fore
SplineSet
263 641 m 1,0,-1
 33 641 l 1,1,-1
 33 386 l 1,2,-1
 222 386 l 1,3,-1
 222 353 l 1,4,-1
 33 353 l 1,5,-1
 33 32 l 1,6,-1
 263 32 l 1,7,-1
 263 -1 l 1,8,-1
 33 -1 l 1,9,-1
 0 -1 l 1,10,-1
 0 -1 l 1,11,-1
 0 675 l 1,12,-1
 0 675 l 1,13,-1
 33 675 l 1,14,-1
 263 675 l 1,15,-1
 263 641 l 1,16,-1
 263 641 l 1,0,-1
EndSplineSet
Refer: 137 184 S 1 0 0 1 91 0 2
Validated: 5
EndChar

StartChar: eogonek
Encoding: 281 281 197
Width: 338
Flags: W
LayerCount: 2
Fore
SplineSet
192 273 m 0,0,1
 183 270 183 270 162 261.5 c 0,2,3
 141 253 141 253 116.5 244 c 0,4,5
 92 235 92 235 69 226 c 0,6,7
 46 217 46 217 33 213 c 1,8,-1
 33 128 l 2,9,10
 33 107 33 107 41 88.5 c 0,11,12
 49 70 49 70 62.5 56.5 c 0,13,14
 76 43 76 43 94.5 35 c 0,15,16
 113 27 113 27 134 27 c 256,17,18
 155 27 155 27 173.5 35 c 0,19,20
 192 43 192 43 205.5 56.5 c 0,21,22
 219 70 219 70 227 88.5 c 0,23,24
 235 107 235 107 235 128 c 1,25,-1
 268 128 l 1,26,27
 268 100 268 100 257.5 75.5 c 0,28,29
 247 51 247 51 229 33 c 0,30,31
 211 15 211 15 186.5 4.5 c 0,32,33
 162 -6 162 -6 134 -6 c 256,34,35
 106 -6 106 -6 81.5 4.5 c 0,36,37
 57 15 57 15 39 33 c 0,38,39
 21 51 21 51 10.5 75.5 c 0,40,41
 0 100 0 100 0 128 c 2,42,-1
 0 363 l 2,43,44
 0 391 0 391 10.5 415.5 c 0,45,46
 21 440 21 440 39 458 c 0,47,48
 57 476 57 476 81.5 486.5 c 0,49,50
 106 497 106 497 134 497 c 256,51,52
 162 497 162 497 186.5 486.5 c 0,53,54
 211 476 211 476 229 458 c 0,55,56
 247 440 247 440 257.5 415.5 c 0,57,58
 268 391 268 391 268 364 c 2,59,-1
 268 363 l 2,60,61
 268 301 268 301 192 273 c 0,0,1
134 464 m 256,62,63
 113 464 113 464 94.5 456 c 0,64,65
 76 448 76 448 62.5 434.5 c 0,66,67
 49 421 49 421 41 402.5 c 0,68,69
 33 384 33 384 33 363 c 2,70,-1
 33 248 l 1,71,72
 48 254 48 254 70 262.5 c 0,73,74
 92 271 92 271 114 279 c 0,75,76
 136 287 136 287 154.5 294 c 0,77,78
 173 301 173 301 181 304 c 0,79,80
 199 311 199 311 217 325 c 0,81,82
 235 339 235 339 235 364 c 0,83,84
 235 385 235 385 227 403 c 0,85,86
 219 421 219 421 205.5 434.5 c 0,87,88
 192 448 192 448 173.5 456 c 0,89,90
 155 464 155 464 134 464 c 256,62,63
EndSplineSet
Refer: 137 184 S 1 0 0 1 91 0 2
Validated: 5
EndChar
